<svg xmlns="http://www.w3.org/2000/svg" viewBox="0 0 390 200"><path d="M53.5 73.5l2.1-10.8-5.7-13.3-6.3-6.6-.4-.3c10.2 4.4 17.8 16.4 19.1 31v.1l-8.8-.1zm-3.3 0H39V43l.1.1c6.6 5.6 11 16.9 11 29.9.1.2.1.5.1.5zm12 0h-8.7v-1.6c0 .7 0-2-.3-5.3-.8-8.1-3.3-14.6-6.9-20.2-1.5-2.3-3.1-3.8-3.1-3.8v-.1s.8.5 1.3.8c.7.4 1.4.9 2 1.4 2.3 1.7 4.3 3.6 5.4 4.6l.9.9c.4.4.8 1 1.2 1.4 1.3 1.6 2.6 3.4 3.8 5.5.6 1.1 1.2 2.3 1.6 3.5 1.9 4.8 2.6 9.5 2.8 12.6v.3zm0-.4zm4.3-1.1l-4.3-17.4-9-9.6s-2.7-1.9-4.2-2.9c-.6-.4-1.1-.7-1.1-.7 12.8 5.2 22 17.5 22.5 32.1L66.5 72zm-1 1.5s-.3-3.5-.9-6.7c-.5-2.7-1.4-5-1.5-5.3-.5-1.5-1.1-3.2-2.1-5.1-1.7-3.3-3.4-6.4-6.5-9.7-.9-1-2-2.1-3.2-3.1-.8-.7-1.6-1.2-2.1-1.6.3.2.7.4 1.2.7.9.5 2 1.2 3.2 2 .5.4 1 .7 1.6 1.1.1.1 1.8 1.4 3.4 2.9 1.4 1.3 2.6 2.8 3.5 3.8 1.6 2 3.1 4.3 4.4 6.8 1.5 3 2.5 6.1 3.1 8.8.5 2 .8 5.3.8 5.3l-4.9.1zm-3.3 0h-8.7v-1.6c0 .7 0-2-.3-5.3-.8-8.1-3.3-14.6-6.9-20.2-1.5-2.3-3.1-3.8-3.1-3.8v-.1s.8.5 1.3.8c.7.4 1.4.9 2 1.4 2.3 1.7 4.3 3.6 5.4 4.6l.9.9c.4.4.8 1 1.2 1.4 1.3 1.6 2.6 3.4 3.8 5.5.6 1.1 1.2 2.3 1.6 3.5 1.9 4.8 2.6 9.5 2.8 12.6v.3zm0-.4zm-31-30.3l-6.3 6.6-5.7 13.3 2.1 10.8h-8.8v-.1c1.3-14.5 8.9-26.5 19.1-31l-.4.4zm-6.7 30.8v-.5c0-13 4.5-24.3 11-29.9l.1-.1v30.5H24.5zm-11.9-.5zm18.9-30.6s-1.6 1.6-3.1 3.8c-3.6 5.6-6 12.1-6.9 20.2-.3 3.4-.3 6-.3 5.3v1.6h-8.7V73c.2-3.1.9-7.9 2.8-12.6.5-1.2 1-2.3 1.6-3.5 1.1-2.1 2.4-3.9 3.8-5.5.3-.4.8-.9 1.2-1.4l.9-.9c1.1-1.1 3-3 5.4-4.6.6-.5 1.3-.9 2-1.4.5-.1 1.4-.7 1.3-.6zm-5.8-.5c-1.5 1-4.2 2.9-4.2 2.9l-9 9.7-4.6 18.9H4.2c.5-14.6 9.7-26.9 22.5-32.1s-.4.2-1 .6zm-5.4 4.8c-3.1 3.3-4.8 6.4-6.5 9.7-.9 1.8-1.5 3.5-2.1 5.1-.1.3-1 2.6-1.5 5.3-.6 3.1-.9 6.7-.9 6.7H4.5s.3-3.3.8-5.3c.6-2.7 1.6-5.7 3.1-8.8 1.3-2.6 2.8-4.9 4.4-6.9.9-1.1 2.1-2.6 3.5-3.8 1.6-1.5 3.3-2.8 3.4-2.9.5-.4 1-.8 1.6-1.1 1.2-.8 2.3-1.4 3.2-2 .5-.3.9-.5 1.2-.7-.5.4-1.3.9-2.1 1.6-1.3 1-2.4 2.1-3.3 3.1zm-7.7 26.3zm18.9-30.6s-1.6 1.6-3.1 3.8c-3.6 5.6-6 12.1-6.9 20.2-.3 3.4-.3 6-.3 5.3v1.6h-8.7V73c.2-3.1.9-7.9 2.8-12.6.5-1.2 1-2.3 1.6-3.5 1.1-2.1 2.4-3.9 3.8-5.5.3-.4.8-.9 1.2-1.4l.9-.9c1.1-1.1 3-3 5.4-4.6.6-.5 1.3-.9 2-1.4.5-.1 1.4-.7 1.3-.6zm12.4-12h-13c-.1 0-.2-.1-.2-.2v-.5c0-.1.1-.2.2-.2h13c.1 0 .2.1.2.2v.5c0 .1-.1.2-.2.2zm0 9.8h-13c-.1 0-.2-.1-.2-.2v-.5c0-.1.1-.2.2-.2h13c.1 0 .2.1.2.2v.5c0 .1-.1.2-.2.2zM72.2 77H2.5c-.1 0-.2-.1-.2-.2v-.6c0-.1.1-.2.2-.2h69.7c.1 0 .2.1.2.2v.6c0 .1-.1.2-.2.2zM36.1 22.7h-.2v-.5h.2v.5c.1 0 0 0 0 0zm2.7 0h-.2v-.5h.2v.5zm-2.9.1v-.2h2.9v.2h-2.9zm1.6-2.1h-.2s-.1 0-.1-.1v-.5s0-.1.1-.1h.2s.1 0 .1.1l-.1.6zm-.2 3.4v-3.4h.2v3.4h-.2zm-5 4.8c0-2.9 2.3-5.3 5-5.3 2.8 0 5 2.3 5 5.2h-10zm11.4 1.5H31c-.2 0-.4-.2-.4-.4v-.1c0-.2.2-.4.4-.4h12.7c.2 0 .4.2.4.4v.1c0 .3-.2.4-.4.4zm0 9.9H31c-.2 0-.4-.2-.4-.4v-.1c0-.2.2-.4.4-.4h12.7c.2 0 .4.2.4.4v.1c0 .2-.2.4-.4.4zM38 38.6h-1.3c-.2 0-.4-.2-.4-.4v-6.8c0-.2.2-.4.4-.4H38c.2 0 .4.2.4.4v6.8c0 .2-.2.4-.4.4zm3.3 0H40c-.2 0-.4-.2-.4-.4v-6.8c0-.2.2-.4.4-.4h1.3c.2 0 .4.2.4.4v6.8c0 .2-.2.4-.4.4zm-6.6 0h-1.3c-.2 0-.4-.2-.4-.4v-6.8c0-.2.2-.4.4-.4h1.3c.2 0 .4.2.4.4v6.8c0 .2-.2.4-.4.4zM50 76.4v-1.5c0-.2.1-.3.3-.3h3.1c.2 0 .3.1.3.3v1.4l-3.7.1zm3.3 5.5h-3c-.2 0-.4-.2-.4-.4v-3c0-.2.2-.4.4-.4h3c.2 0 .4.2.4.4v3c0 .2-.2.4-.4.4zm8.6-5.5v-1.5c0-.2.1-.3.3-.3h3.1c.2 0 .3.1.3.3v1.4l-3.7.1zm3.3 5.5h-3c-.2 0-.4-.2-.4-.4v-3c0-.2.2-.4.4-.4h3c.2 0 .4.2.4.4v3c0 .2-.1.4-.4.4zM21 76.3v-1.4c0-.2.1-.3.3-.3h3.1c.2 0 .3.1.3.3v1.5l-3.7-.1zm3.4 5.6h-3c-.2 0-.4-.2-.4-.4v-3c0-.2.2-.4.4-.4h3c.2 0 .4.2.4.4v3c0 .2-.2.4-.4.4zM9.1 76.3v-1.4c0-.2.1-.3.3-.3h3.1c.2 0 .3.1.3.3v1.5l-3.7-.1zm3.3 5.6h-3c-.2 0-.4-.2-.4-.4v-3c0-.2.2-.4.4-.4h3c.2 0 .4.2.4.4v3c0 .2-.2.4-.4.4zm23.1-5.6v-1.4c0-.2.1-.3.3-.3h3.1c.2 0 .3.1.3.3v1.5l-3.7-.1zm3.3 5.6h-3c-.2 0-.4-.2-.4-.4v-3c0-.2.2-.4.4-.4h3c.2 0 .4.2.4.4v3c0 .2-.2.4-.4.4zM72 77H2.7c-.2 0-.4-.2-.4-.4v-.2c0-.2.2-.4.4-.4H72c.2 0 .4.2.4.4v.2c0 .2-.2.4-.4.4zm0 8.2H2.7c-.2 0-.4-.2-.4-.4v-1.6c0-.2.2-.4.4-.4H72c.2 0 .4.2.4.4v1.6c0 .2-.2.4-.4.4zM2.6 100.3c0-2.6 1.9-4.9 4.7-4.9 1.6 0 2.6.5 3.5 1.2l-.7.8c-.7-.6-1.5-1.1-2.8-1.1-2.1 0-3.6 1.7-3.6 3.8 0 2.2 1.4 3.9 3.7 3.9 1.1 0 2.1-.4 2.7-.9v-2.3H7.3v-.8h3.9v3.7c-.9.8-2.2 1.4-3.8 1.4-3 0-4.8-2.1-4.8-4.8zm12 0c0-2.6 1.9-4.9 4.8-4.9 2.8 0 4.8 2.2 4.8 4.8 0 2.6-1.9 4.8-4.8 4.8s-4.8-2.1-4.8-4.7zm8.4 0c0-2.1-1.5-3.9-3.7-3.9s-3.7 1.7-3.7 3.8c0 2.1 1.5 3.9 3.7 3.9s3.7-1.6 3.7-3.8zm4.9-4.7h4c1.1 0 1.9.3 2.4.8.4.4.6.9.6 1.5 0 1.2-.7 1.8-1.5 2.2 1.1.3 2 1 2 2.3 0 1.6-1.3 2.5-3.4 2.5h-4.2v-9.3zm3.8 4.2c1.3 0 2.1-.6 2.1-1.7 0-.9-.7-1.5-2.1-1.5h-2.8v3.2h2.8zm.4 4.2c1.4 0 2.3-.6 2.3-1.7 0-1-.9-1.6-2.5-1.6h-3v3.3h3.2zm7.1-8.4h1.1v9.3h-1.1v-9.3zm5.3 0h6.8v1h-5.7v3.2h5.1v1h-5.1v3.3h5.8v1h-6.8v-9.5zm10.4 0h4c1.1 0 2.1.3 2.7.9.5.5.7 1.1.7 1.8 0 1.5-1.1 2.5-2.5 2.7l2.9 3.8h-1.3l-2.7-3.6H56v3.6h-1.1v-9.2zm4 4.8c1.4 0 2.4-.7 2.4-1.9 0-1.1-.9-1.8-2.4-1.8H56v3.8h2.9zm7.2-4.8h1l5.9 7.5v-7.5h1v9.3h-.8l-6-7.7v7.7h-1v-9.3zm11.7 4.7c0-2.6 1.9-4.9 4.8-4.9 2.8 0 4.8 2.2 4.8 4.8 0 2.6-1.9 4.8-4.8 4.8s-4.8-2.1-4.8-4.7zm8.4 0c0-2.1-1.5-3.9-3.7-3.9s-3.7 1.7-3.7 3.8c0 2.1 1.5 3.9 3.7 3.9s3.7-1.6 3.7-3.8zm10.4-4.7h3.2c2.9 0 5 2 5 4.6 0 2.6-2 4.7-5 4.7h-3.2v-9.3zm3.3 8.4c2.4 0 3.9-1.6 3.9-3.7s-1.5-3.7-3.9-3.7h-2.2v7.4h2.2zm8.7-8.4h6.8v1h-5.7v3.2h5.1v1h-5.1v3.3h5.8v1h-6.8v-9.5zm16 0h1.1v8.4h5.3v1h-6.3v-9.4zm13.2 0h1l4.3 9.4H142l-1.1-2.5h-5.1l-1.1 2.5h-1.1l4.2-9.4zm2.6 6l-2.1-4.8-2.1 4.8h4.2zM15.3 127.2c.1 0 .1.1.1.3 0 .2 0 .3-.1.3-.4.1-.9.2-1.3.2-.5 0-.9-.1-1.4-.3s-.9-.6-1.3-1l-3-3.8c-.4-.5-.8-.8-1.3-1s-1.1-.2-1.9-.3v3.7c0 .6.2 1 .5 1.3s.9.4 1.6.5c0 0 .1.1.1.2v.3c0 .1-.1.2-.1.2H1.3s-.1-.1-.1-.2-.1-.2-.1-.3c0-.1 0-.2.1-.2.5-.1.9-.2 1.2-.5.3-.3.4-.7.4-1.2v-8.6c0-.6-.1-1-.4-1.3-.3-.3-.7-.5-1.2-.6-.1 0-.1-.2-.1-.4s.1-.3.2-.3c.6.1 1.3.1 2.2.1.5 0 1.2 0 2-.1.8 0 1.4-.1 1.7-.1 1.5 0 2.7.3 3.6.9.9.6 1.3 1.5 1.3 2.7 0 1-.3 1.9-1 2.5-.7.6-1.5.9-2.4 1v.1c.4 0 .7.1 1.1.3.3.2.7.6 1.1 1.1l2.9 3.6c.4.6 1 .9 1.5.9zm-9.6-6.5c1.5 0 2.5-.2 3.1-.5.6-.3.9-1 .9-1.9 0-1-.3-1.8-.8-2.3-.6-.5-1.3-.8-2.2-.8-.6 0-.9.1-1.2.4s-.3.6-.3 1.2v4l.5-.1zm12.8 7c-.1 0-.1-.1-.2-.3 0-.2 0-.3.1-.4.4-.1.7-.2.8-.2.2 0 .4-.1.6-.3s.4-.3.5-.5c.1-.2.1-.5.1-.8v-8.6c0-.6-.1-1-.4-1.2-.3-.3-.7-.4-1.2-.6-.1 0-.1-.1-.1-.3 0-.2.1-.3.2-.3.7.1 2.4.1 5 .1h1.5c.5 0 1.1 0 1.6-.1h1.4c.2 0 .3.1.4.2v.5l-.5 1.8c0 .1-.1.2-.3.2s-.3-.1-.3-.2c-.2-.5-.5-.9-.9-1.1-.5-.2-1.2-.4-2.4-.4-.7 0-1.1.1-1.4.3-.3.2-.4.5-.4 1v3.1c0 .2.1.4.2.5.1.1.3.1.5.1h.4c1.8 0 3.1-.3 3.7-.9.1-.1.2-.1.4-.1s.2.2.1.3l-1.1 2.4c-.1.2-.2.3-.3.3-.1 0-.2-.1-.3-.2-.4-.6-1.3-.9-2.6-.9h-.3c-.2 0-.4 0-.5.1s-.2.2-.2.5v3.2c0 .6.2.9.4 1.2.3.2.8.3 1.6.3 2.1 0 3.7-.7 4.5-2.1.1-.1.2-.1.4-.1s.3.2.3.3c0 .6-.2 1.2-.6 1.9s-.9 1-1.4 1c-1.4-.1-2.7-.1-3.8-.1-2.8.3-4.7.4-5.5.4zm26.7-9.4c0 1.7-.7 2.9-2.1 3.6-1.4.7-3.2 1-5.4.6v2.8c0 .6.2 1 .5 1.3.3.2.9.4 1.6.5 0 0 .1.1.1.2v.3c0 .1-.1.2-.1.2H34s-.1-.1-.1-.2-.1-.2-.1-.3 0-.2.1-.2c.5-.1.9-.2 1.2-.5s.4-.7.4-1.2v-8.6c0-.6-.1-1-.4-1.3s-.7-.5-1.2-.6c-.1 0-.1-.2-.1-.4s.1-.3.2-.3c.6.1 1.3.1 2.2.1.5 0 1.2 0 2-.1.8 0 1.3-.1 1.6-.1 1.6 0 2.9.3 3.9 1s1.5 1.8 1.5 3.2zm-7.2-2.8c-.2.2-.3.6-.3 1.2v4.9c1.7.2 2.9.1 3.7-.3.8-.5 1.2-1.3 1.2-2.5 0-1.1-.3-2-1-2.6s-1.5-1-2.5-1c-.5 0-.9.1-1.1.3zM56.3 128c-.7 0-1.4-.1-2.1-.3-.6-.2-1.3-.5-1.8-.9-.6-.4-1-1-1.4-1.7-.3-.7-.5-1.5-.5-2.5v-6.1c0-.6-.1-1-.4-1.2s-.6-.4-1.2-.5c0 0-.1-.1-.1-.2s0-.2.1-.3.1-.2.1-.2h5.3s.1.1.1.2.1.2.1.3 0 .2-.1.2c-.5.1-.9.2-1.1.5-.3.2-.4.7-.4 1.3v6.2c0 1.3.3 2.3 1 2.9.7.7 1.5 1 2.6 1s2-.3 2.7-1 1.1-1.7 1.1-2.9v-6.2c0-.6-.1-1-.4-1.2-.3-.3-.7-.4-1.2-.5 0 0-.1-.1-.1-.2v-.3c0-.1.1-.2.1-.2H63s.1.1.1.2.1.2.1.3c0 .1 0 .2-.1.2-.5.1-.9.2-1.1.5s-.4.7-.4 1.3v6c0 1.7-.5 3.1-1.5 4-.9.8-2.2 1.3-3.8 1.3zm0-18.6c.1-.2.3-.2.6 0s.6.4.8.7c.2.3.2.5.1.6l-2.5 1.9c-.1.1-.3 0-.5-.2s-.3-.4-.2-.5l1.7-2.5zm18.9 10.9c1 0 1.8.3 2.5 1s1 1.5 1 2.5c0 1.2-.5 2.1-1.5 2.9-1 .7-2.3 1.1-3.9 1.1-.3 0-.8 0-1.5-.1-.8 0-1.4-.1-1.9-.1-1.3 0-2.3 0-3 .1-.1 0-.1-.1-.2-.3 0-.2 0-.3.1-.4.4-.1.7-.2.8-.2.2 0 .4-.1.6-.3s.4-.3.5-.5c.1-.2.1-.5.1-.8v-8.6c0-.6-.1-1-.4-1.2-.3-.3-.7-.4-1.2-.6-.1 0-.1-.1-.1-.3 0-.2.1-.3.2-.3.6.1 1.4.1 2.3.1.6 0 1.2 0 2-.1.8 0 1.3-.1 1.5-.1 1.3 0 2.4.3 3.2.8.9.5 1.3 1.3 1.3 2.3 0 .8-.2 1.4-.7 1.9-.5.5-1 .8-1.8 1l.1.2zm-2 6.4c.9 0 1.7-.2 2.2-.6.5-.4.8-1 .8-2s-.3-1.8-.9-2.4c-.6-.6-1.4-.8-2.3-.8h-2v4.2c0 .6.2 1 .5 1.2.4.3.9.4 1.7.4zm-1.9-11.2c-.2.2-.3.6-.3 1.1v3.4h2c1.5 0 2.2-.7 2.2-2.2 0-.9-.3-1.5-.8-2s-1.2-.7-2-.7c-.5 0-.9.2-1.1.4zm11.2 12.2c-.1 0-.1-.1-.2-.3 0-.2 0-.3.1-.4.4-.1.7-.2.8-.2s.4-.1.6-.3.4-.3.5-.5c.1-.2.1-.5.1-.8v-8.6c0-.4-.1-.8-.3-1s-.4-.4-.6-.5c-.2-.1-.5-.2-.8-.2 0 0-.1-.1-.1-.2s0-.2.1-.3c0-.1.1-.2.1-.2h5.3s.1.1.1.2.1.2 0 .3c0 .1 0 .2-.1.2-.5.1-.9.2-1.2.5-.3.2-.4.7-.4 1.3v8.6c0 .6.2.9.4 1.2.3.2.8.3 1.6.3 2.1 0 3.7-.7 4.5-2.1.1-.1.2-.1.4-.1s.3.2.3.3c0 .6-.2 1.2-.6 1.9s-.9 1-1.4 1c-1.4-.1-2.7-.1-3.8-.1-2.7-.1-4.6 0-5.4 0zm15 0s-.1-.1-.1-.2-.1-.2-.1-.3c0-.1 0-.2.1-.2.5-.1.9-.2 1.2-.5s.4-.7.4-1.2v-8.7c0-.6-.1-1-.4-1.2-.3-.3-.7-.4-1.2-.5 0 0-.1-.1-.1-.2s0-.2.1-.3c0-.1.1-.2.1-.2h5.3s.1.1.1.2.1.2.1.3c0 .1 0 .2-.1.2-.5.1-.9.2-1.2.5s-.4.7-.4 1.3v8.7c0 .6.1 1 .4 1.3s.7.4 1.2.5c0 0 .1.1.1.2s0 .2-.1.3c0 .1-.1.2-.1.2l-5.3-.2zm17 .3c-.7 0-1.4-.1-2-.2-.7-.2-1.4-.4-2-.8-.7-.4-1.3-.8-1.8-1.3s-.9-1.2-1.3-1.9c-.3-.8-.5-1.6-.5-2.6 0-.9.1-1.7.4-2.6.3-.8.7-1.6 1.3-2.3.6-.7 1.3-1.3 2.3-1.8 1-.4 2.1-.7 3.4-.7.7 0 1.4.1 2.1.2s1.1.3 1.5.5c.3.2.5.4.4.6l-.3.9c-.1.4-.3.6-.4.7-.2.1-.4.1-.6 0-.3-.1-.5-.3-.8-.5s-.7-.4-1.3-.5-1.1-.3-1.7-.3c-1.3 0-2.4.4-3.1 1.2-.7.8-1 1.9-1 3.4 0 1 .2 2 .6 2.8s.8 1.5 1.4 1.9 1.2.8 1.9 1.1c.7.2 1.4.4 2.1.4.3 0 .8-.1 1.4-.2.7-.2 1.2-.4 1.7-.7.1 0 .2 0 .3.2.1.2.2.3.1.4-.4.5-1 1-2 1.5-1 .4-1.6.6-2.1.6zm21.7-1c.1 0 .2.1.2.3 0 .2-.1.3-.2.3h-5.1c-.1 0-.2-.1-.2-.3 0-.2 0-.3.1-.3.2 0 .4-.1.5-.1s.3-.2.4-.3c.1-.1.2-.3.1-.6s-.1-.6-.3-1l-.2-.5c-.1-.2-.2-.4-.4-.4s-.4-.1-.7-.1h-3.9c-.3 0-.6 0-.7.1-.2.1-.3.2-.4.4l-.2.5c-.2.4-.3.7-.3 1 0 .3 0 .5.2.6s.3.2.4.3c.2.1.4.1.6.1.1 0 .2.1.2.3 0 .2-.1.3-.2.3H122c-.1 0-.2-.1-.2-.3 0-.2 0-.3.2-.3.4-.1.8-.2 1.1-.5.3-.3.6-.8.9-1.5l3.3-7.5c.6-1.5 1-2.6 1-3.2 0-.1.2-.2.7-.2.5-.1.7-.1.7 0l4.7 11c.3.8.6 1.3.9 1.6.2.1.5.3.9.3zm-5.9-4.1h.3c.1 0 .1 0 .2-.1 0 0 .1-.1 0-.2l-2.3-5.4-2.3 5.4c0 .1 0 .2.1.2s.2.1.4.1h3.6zm15.3 4.8c-.1 0-.1-.1-.2-.3 0-.2 0-.3.1-.4.4-.1.7-.2.8-.2.2 0 .4-.1.6-.3s.4-.3.5-.5c.1-.2.1-.5.1-.8v-8.6c0-.6-.1-1-.4-1.2-.3-.3-.7-.4-1.2-.6-.1 0-.1-.1-.1-.3 0-.2.1-.3.2-.3.6.1 1.4.1 2.4.1.5 0 1.2 0 2.1-.1.9 0 1.4-.1 1.7-.1 2.3 0 4 .6 5.3 1.8 1.3 1.2 1.9 2.8 1.9 4.7 0 1.3-.3 2.4-.8 3.5s-1.4 1.9-2.5 2.6c-1.1.7-2.4 1-3.9 1-.3 0-.8 0-1.6-.1-.8 0-1.4-.1-2-.1-1.2.1-2.2.2-3 .2zm6.8-1c3.1 0 4.7-1.7 4.7-5 0-1.9-.5-3.5-1.5-4.7-1-1.2-2.3-1.9-4-1.9-.7 0-1.1.1-1.4.3-.3.2-.4.6-.4 1.1v8.6c0 .5.2.9.6 1.2s1.1.4 2 .4zm18.2 1.3c-2 0-3.7-.7-5-2-1.3-1.3-2-3-2-5s.6-3.7 1.9-5.1 3-2.1 5.1-2.1c2 0 3.7.7 5 2 1.3 1.3 2 3 2 5s-.6 3.7-1.9 5.1c-1.4 1.4-3 2.1-5.1 2.1zm.7-1.3c.5 0 .9-.1 1.3-.2s.9-.4 1.3-.8.7-.8 1-1.5c.2-.6.4-1.4.4-2.3 0-1.9-.5-3.5-1.6-4.8-1.1-1.3-2.4-1.9-3.8-1.9-.5 0-.9.1-1.3.2-.4.2-.8.4-1.3.8s-.7.8-1 1.5c-.2.6-.4 1.4-.4 2.3 0 1.9.5 3.5 1.6 4.8s2.4 1.9 3.8 1.9zm27.4.3s.1.1.1.2 0 .2-.1.3c0 .1-.1.2-.1.2h-5s-.1-.1-.1-.2-.1-.2-.1-.3c0-.1 0-.2.1-.2 1-.2 1.4-.7 1.3-1.7l-.4-6.5-3.1 6.4c-.4.9-.7 1.5-.8 2 0 .2-.3.3-.7.3-.3 0-.5-.1-.6-.3l-4.5-8.4-.3 6.6c0 1 .4 1.6 1.4 1.7 0 0 .1.1.1.2s0 .2-.1.3-.1.2-.1.2h-4s-.1-.1-.1-.2-.1-.2-.1-.3 0-.2.1-.2c.5 0 .9-.2 1.1-.4.3-.2.4-.7.5-1.3l.6-11.1c0-.2.1-.3.4-.3.3 0 .4.1.5.2l5.6 10.5 5.2-10.5c.1-.2.3-.3.5-.3.3 0 .4.1.4.2l.6 11.1c0 .6.2 1 .5 1.3.3.3.7.5 1.2.5zm3.9.7s-.1-.1-.1-.2-.1-.2-.1-.3c0-.1 0-.2.1-.2.5-.1.9-.2 1.2-.5s.4-.7.4-1.2v-8.7c0-.6-.1-1-.4-1.2-.3-.3-.7-.4-1.2-.5 0 0-.1-.1-.1-.2s0-.2.1-.3c0-.1.1-.2.1-.2h5.3s.1.1.1.2.1.2.1.3c0 .1 0 .2-.1.2-.5.1-.9.2-1.2.5s-.4.7-.4 1.3v8.7c0 .6.1 1 .4 1.3s.7.4 1.2.5c0 0 .1.1.1.2s0 .2-.1.3c0 .1-.1.2-.1.2l-5.3-.2zm22 .2c-.3 0-.5-.1-.7-.4l-9.2-9.6v7.3c0 .3 0 .6.1.8.1.2.2.4.4.5.2.1.4.2.5.3.2.1.4.1.8.2.1 0 .1.1.1.3s-.1.3-.2.3h-4.6c-.1 0-.1-.1-.2-.3 0-.2 0-.3.1-.3.6-.2 1-.4 1.2-.5.3-.3.4-.7.4-1.3v-7.5c0-1.2-.2-2.1-.7-2.7 0 0-.1-.1-.1-.2s-.1-.1-.1-.1l-.1-.1v-.1c0-.1 0-.2.1-.3.1-.1.2-.1.3-.1h1.4c.2 0 .4.1.5.2l9 9.5v-7.2c0-.3 0-.6-.1-.8s-.2-.4-.5-.5c-.2-.1-.4-.2-.5-.3s-.4-.1-.7-.2c-.1 0-.1-.1-.1-.3s.1-.3.2-.3h4.6c.1 0 .1.1.2.3 0 .2 0 .3-.1.3-.3.1-.5.2-.6.2s-.3.1-.5.3-.3.3-.4.5c-.1.2-.1.5-.1.8v7.5c0 1.7.1 2.8.2 3.4 0 .1 0 .2-.1.3s-.3.1-.5.1zm5.9-.2s-.1-.1-.1-.2-.1-.2-.1-.3c0-.1 0-.2.1-.2.5-.1.9-.2 1.2-.5s.4-.7.4-1.2v-8.7c0-.6-.1-1-.4-1.2-.3-.3-.7-.4-1.2-.5 0 0-.1-.1-.1-.2s0-.2.1-.3c0-.1.1-.2.1-.2h5.3s.1.1.1.2.1.2.1.3c0 .1 0 .2-.1.2-.5.1-.9.2-1.2.5s-.4.7-.4 1.3v8.7c0 .6.1 1 .4 1.3s.7.4 1.2.5c0 0 .1.1.1.2s0 .2-.1.3c0 .1-.1.2-.1.2l-5.3-.2zm17 .3c-.7 0-1.4-.1-2-.2-.7-.2-1.4-.4-2-.8-.7-.4-1.3-.8-1.8-1.3s-.9-1.2-1.3-1.9c-.3-.8-.5-1.6-.5-2.6 0-.9.1-1.7.4-2.6.3-.8.7-1.6 1.3-2.3.6-.7 1.3-1.3 2.3-1.8s2.1-.7 3.4-.7c.7 0 1.4.1 2.1.2.6.1 1.1.3 1.5.5.3.2.5.4.4.6l-.3.9c-.1.4-.3.6-.4.7-.2.1-.4.1-.6 0-.3-.1-.5-.3-.8-.5s-.7-.4-1.3-.5-1.1-.3-1.7-.3c-1.3 0-2.4.4-3.1 1.2-.7.8-1 1.9-1 3.4 0 1 .2 2 .6 2.8s.8 1.5 1.4 1.9 1.2.8 1.9 1.1c.7.2 1.4.4 2.1.4.3 0 .8-.1 1.4-.2.7-.2 1.2-.4 1.7-.7.1 0 .2 0 .3.2.1.2.2.3.1.4-.4.5-1 1-2 1.5-1 .4-1.6.6-2.1.6zm21.7-1c.1 0 .2.1.2.3 0 .2-.1.3-.2.3h-5.1c-.1 0-.2-.1-.2-.3 0-.2 0-.3.1-.3.2 0 .4-.1.5-.1s.3-.2.4-.3c.1-.1.2-.3.1-.6s-.1-.6-.3-1l-.2-.5c-.1-.2-.2-.4-.4-.4s-.4-.1-.7-.1h-3.9c-.3 0-.6 0-.7.1s-.3.2-.4.4l-.2.5c-.2.4-.3.7-.3 1 0 .3 0 .5.2.6s.3.2.4.3.4.1.6.1c.1 0 .2.1.2.3s-.1.3-.2.3H255c-.1 0-.2-.1-.2-.3s0-.3.2-.3c.4-.1.8-.2 1.1-.5.3-.3.6-.8.9-1.5l3.3-7.5c.6-1.5 1-2.6 1-3.2 0-.1.2-.2.7-.2.5-.1.7-.1.7 0l4.7 11c.3.8.6 1.3.9 1.6.2.1.5.3.9.3zm-5.9-4.1h.3c.1 0 .1 0 .2-.1s.1-.1 0-.2l-2.3-5.4-2.3 5.4c0 .1 0 .2.1.2s.2.1.4.1h3.6zm22.3 5c-.3 0-.5-.1-.7-.4l-9.2-9.6v7.3c0 .3 0 .6.1.8.1.2.2.4.4.5.2.1.4.2.5.3.2.1.4.1.8.2.1 0 .1.1.1.3s-.1.3-.2.3h-4.6c-.1 0-.1-.1-.2-.3 0-.2 0-.3.1-.3.6-.2 1-.4 1.2-.5.3-.3.4-.7.4-1.3v-7.5c0-1.2-.2-2.1-.7-2.7 0 0-.1-.1-.1-.2s-.1-.1-.1-.1l-.1-.1v-.1c0-.1 0-.2.1-.3.1-.1.2-.1.3-.1h1.4c.2 0 .4.1.5.2l9 9.5v-7.2c0-.3 0-.6-.1-.8s-.2-.4-.5-.5c-.2-.1-.4-.2-.5-.3s-.4-.1-.7-.2c-.1 0-.1-.1-.1-.3s.1-.3.2-.3h4.6c.1 0 .1.1.2.3 0 .2 0 .3-.1.3-.3.1-.5.2-.6.2s-.3.1-.5.3-.3.3-.4.5c-.1.2-.1.5-.1.8v7.5c0 1.7.1 2.8.2 3.4 0 .1 0 .2-.1.3s-.3.1-.5.1zm19.2-.9c.1 0 .2.1.2.3 0 .2-.1.3-.2.3h-5.1c-.1 0-.2-.1-.2-.3 0-.2 0-.3.1-.3.2 0 .4-.1.5-.1s.3-.2.4-.3c.1-.1.2-.3.1-.6s-.1-.6-.3-1l-.2-.5c-.1-.2-.2-.4-.4-.4s-.4-.1-.7-.1h-3.9c-.3 0-.6 0-.7.1s-.3.2-.4.4l-.2.5c-.2.4-.3.7-.3 1 0 .3 0 .5.2.6s.3.2.4.3.4.1.6.1c.1 0 .2.1.2.3s-.1.3-.2.3h-4.2c-.1 0-.2-.1-.2-.3s0-.3.2-.3c.4-.1.8-.2 1.1-.5.3-.3.6-.8.9-1.5l3.3-7.5c.6-1.5 1-2.6 1-3.2 0-.1.2-.2.7-.2.5-.1.7-.1.7 0l4.7 11c.3.8.6 1.3.9 1.6.3.1.6.3 1 .3zm-5.9-4.1h.3c.1 0 .1 0 .2-.1s.1-.1 0-.2l-2.3-5.4-2.3 5.4c0 .1 0 .2.1.2s.2.1.4.1h3.6z" fill="#003876"/><path d="M2.8 139.2h69.7v3.3H2.8zm1.4 32.4c-.1 0-.1-.1-.1-.2s-.1-.3-.1-.4 0-.2.1-.2c.8-.1 1.4-.3 1.8-.5.4-.2.6-.6.6-1.1v-10c0-.3-.1-.5-.2-.5-.1-.1-.3-.1-.5-.1h-.4c-.9 0-1.6.1-2.3.4s-1.1.6-1.2 1c-.1.3-.3.4-.6.3-.2 0-.3-.1-.3-.3.2-.7.4-1.6.5-2.6 0-.2.1-.3.2-.4h.5c1.1.1 3.1.2 6 .2 3.2 0 5.4-.1 6.6-.2h.3c.1 0 .2 0 .2.1.1.1.1.2 0 .3-.3 1-.5 1.9-.7 2.6 0 .2-.2.3-.4.3s-.4-.1-.4-.3c-.1-.4-.4-.7-.9-1-.5-.3-1.2-.4-2-.4h-.5c-.6 0-.8.2-.8.7v10c0 .5.2.9.6 1.1s1 .4 1.8.5c.1 0 .1.1.1.2s0 .2-.1.4c-.1.1-.1.2-.2.2H4.2v-.1zm28.6-.6c.1 0 .1.1.1.3 0 .2 0 .3-.1.3-2.1.6-3.8.1-4.9-1.3l-3.2-4c-.4-.6-.9-.9-1.3-1.1-.5-.2-1.1-.3-1.9-.3v4c0 .7.2 1.1.6 1.4s1 .4 1.7.5c0 0 .1.1.1.2s0 .3-.1.4c0 .1-.1.2-.1.2H17c-.1 0-.1-.1-.1-.2s-.1-.3-.1-.4 0-.2.1-.2c.6-.1 1-.2 1.3-.5.3-.3.4-.7.4-1.3v-9.1c0-.6-.1-1.1-.4-1.4-.3-.3-.7-.5-1.3-.7-.1 0-.1-.2-.1-.4 0-.3.1-.4.2-.4.6.1 1.5.1 2.4.1.7 0 1.5 0 2.5-.1 1 0 1.7-.1 2-.1 1.7 0 3 .3 4 1 .9.7 1.4 1.6 1.4 2.8 0 1.1-.4 2-1.1 2.6-.7.6-1.6 1-2.7 1v.1c.5 0 .9.1 1.3.3.4.2.8.7 1.3 1.3l2.9 3.7c.7.9 1.3 1.3 1.8 1.3zm-10.7-7.1c1.5 0 2.6-.2 3.1-.5s.8-1 .8-1.9c0-1.1-.3-1.9-.8-2.4s-1.3-.8-2.2-.8c-.6 0-1 .1-1.2.4s-.3.7-.3 1.3v4h.6v-.1zm27.1 6.9c.1 0 .2.2.2.4 0 .3-.1.4-.2.4h-6c-.1 0-.2-.1-.2-.4 0-.3 0-.4.2-.4s.4-.1.6-.2c.1-.1.3-.2.4-.3.1-.1.2-.4.2-.6 0-.3-.1-.6-.3-1l-.1-.2c-.1-.3-.2-.4-.3-.5-.1-.1-.3-.1-.6-.1H39c-.3 0-.6 0-.7.1-.1.1-.3.2-.4.5l-.1.2c-.2.4-.3.7-.3 1 0 .3.1.5.2.6.1.1.3.2.5.3.2.1.4.1.7.2.1 0 .2.2.2.4 0 .3-.1.4-.2.4H34c-.1 0-.2-.1-.2-.4 0-.3 0-.4.1-.4.5-.1.8-.3 1.1-.5.3-.3.6-.8.9-1.6l3.5-8.2c.7-1.6 1.1-2.7 1.1-3.4 0-.1.2-.2.7-.3s.7-.1.8-.1l5.1 11.8c.3.8.7 1.3 1 1.6.3.4.7.6 1.1.7zm-6.7-4.2h.2c.1 0 .1-.1.2-.1s.1-.1 0-.2l-2.1-5-2.1 5c-.1.1 0 .2 0 .3.1.1.2.1.4.1h3.4v-.1zm17.5-3c1.1 0 2 .3 2.7 1 .8.7 1.2 1.6 1.2 2.7 0 1.3-.6 2.3-1.7 3.1s-2.5 1.2-4.2 1.2c-.3 0-.8 0-1.6-.1-.8 0-1.5-.1-2.2-.1-1.6 0-2.8 0-3.5.1-.1 0-.1-.1-.2-.4 0-.3 0-.4.1-.5.4-.1.7-.2.9-.3l.6-.3c.2-.1.4-.3.5-.6.1-.2.1-.5.1-.9v-9.1c0-.4-.1-.7-.3-1-.2-.3-.4-.4-.6-.5s-.5-.2-.9-.3c-.1 0-.1-.2-.1-.4 0-.3.1-.4.2-.4.7.1 1.5.1 2.6.1.8 0 1.6 0 2.5-.1.9 0 1.4-.1 1.6-.1 1.4 0 2.5.3 3.4.9s1.4 1.4 1.4 2.5c0 .8-.2 1.5-.7 2-.5.6-1.1.9-2 1.1l.2.4zm-4-5.1c-.2.2-.3.6-.3 1.1v3.6h2c1.1 0 1.7-.7 1.7-2.2 0-.9-.2-1.6-.7-2.1-.4-.5-1.1-.8-1.9-.8-.3 0-.6.2-.8.4zm4.6 9.4c0-.9-.3-1.8-.8-2.4-.5-.7-1.2-1-2.1-1h-2v4.3c0 .6.2 1 .5 1.3.3.3.8.4 1.6.4 1.8-.1 2.8-.9 2.8-2.6zm20.4 2.9c.1 0 .2.2.2.4 0 .3-.1.4-.2.4h-6c-.1 0-.2-.1-.2-.4 0-.3 0-.4.2-.4s.4-.1.6-.2c.1-.1.3-.2.4-.3.1-.1.2-.4.2-.6 0-.3-.1-.6-.3-1l-.1-.2c-.1-.3-.2-.4-.3-.5-.1-.1-.3-.1-.6-.1h-4.1c-.3 0-.6 0-.7.1-.1.1-.3.2-.4.5l-.1.2c-.2.4-.3.7-.3 1 0 .3.1.5.2.6.1.1.3.2.5.3.2.1.4.1.7.2.1 0 .2.2.2.4 0 .3-.1.4-.2.4H66c-.1 0-.2-.1-.2-.4 0-.3 0-.4.1-.4.5-.1.8-.3 1.1-.5.3-.3.6-.8.9-1.6l3.5-8.2c.7-1.6 1.1-2.7 1.1-3.4 0-.1.2-.2.7-.3s.7-.1.8-.1l5.1 11.8c.3.8.7 1.3 1 1.6.1.4.5.6.9.7zm-6.7-4.2h.2c.1 0 .1-.1.2-.1s.1-.1 0-.2l-2.1-5-2.1 5c-.1.1 0 .2 0 .3.1.1.2.1.4.1h3.4v-.1zm8.4 9.5c-.1 0-.2-.1-.3-.2-.1-.1-.1-.3-.1-.4s0-.2.1-.2c.6-.1 1-.4 1.4-.9.4-.6.5-1.4.5-2.6v-12.1c0-.7-.1-1.1-.4-1.4-.3-.3-.7-.4-1.3-.5-.1 0-.1-.1-.1-.2s0-.2.1-.4l.1-.2H89c.1 0 .1.1.1.2s.1.2.1.4c0 .1 0 .2-.1.2-.3.1-.6.1-.9.2-.2.1-.4.3-.6.5-.2.3-.3.6-.3 1.1v12.1c0 1-.5 2-1.7 2.9-1 1-2 1.4-2.9 1.5zm16-4.2c-2.2 0-4-.7-5.4-2.1-1.4-1.4-2.2-3.2-2.2-5.4s.7-4 2.1-5.5c1.4-1.5 3.3-2.2 5.5-2.2s4 .7 5.4 2.1c1.4 1.4 2.2 3.2 2.2 5.4s-.7 4-2.1 5.5-3.2 2.2-5.5 2.2zm.9-1.6c1 0 1.8-.4 2.6-1.2.7-.8 1.1-2 1.1-3.6 0-2-.6-3.7-1.7-5.1-1.1-1.4-2.4-2.1-3.8-2.1-1 0-1.8.4-2.6 1.2-.7.8-1.1 2-1.1 3.6 0 2 .6 3.7 1.7 5.1 1.1 1.4 2.4 2.1 3.8 2.1z" fill="#ed232a"/></svg>