<?xml version="1.0" encoding="utf-8"?>
<!-- Generator: Adobe Illustrator 21.0.0, SVG Export Plug-In . SVG Version: 6.00 Build 0)  -->
<svg version="1.1" id="Layer_1" xmlns="http://www.w3.org/2000/svg" xmlns:xlink="http://www.w3.org/1999/xlink" x="0px" y="0px"
	 viewBox="0 0 1080 1080" style="enable-background:new 0 0 1080 1080;" xml:space="preserve">
<style type="text/css">
	.st0{fill:#ADB5BD;}
</style>
<path class="st0" d="M995.8,458.9l53.5,53.5c22.7,22.7,22.7,59.3,0,81.7L581,1062.7c-22.7,22.7-59.3,22.7-81.7,0L30.7,594.1
	C8,571.4,8,534.8,30.7,512.4l53.5-53.5c22.9-22.9,60.3-22.4,82.7,1l276.7,290.5V57.5c0-32.1,25.8-57.9,57.9-57.9h77.1
	c32.1,0,57.9,25.8,57.9,57.9v692.8l276.7-290.5C935.6,436.2,972.9,435.7,995.8,458.9z"/>
</svg>
