<?xml version="1.0" encoding="utf-8"?>
<!-- Generator: Adobe Illustrator 21.0.0, SVG Export Plug-In . SVG Version: 6.00 Build 0)  -->
<svg version="1.1" id="Layer_1" xmlns="http://www.w3.org/2000/svg" xmlns:xlink="http://www.w3.org/1999/xlink" x="0px" y="0px"
	 viewBox="0 0 1080 1080" style="enable-background:new 0 0 1080 1080;" xml:space="preserve">
<style type="text/css">
	.st0{fill:#ADB5BD;}
</style>
<path class="st0" d="M84.2,620.5L30.7,567C8,544.3,8,507.7,30.7,485.3L499,16.7c22.7-22.7,59.3-22.7,81.7,0l468.6,468.6
	c22.7,22.7,22.7,59.3,0,81.7l-53.5,53.5c-22.9,22.9-60.3,22.4-82.7-1L636.4,329.1v692.8c0,32.1-25.8,57.9-57.9,57.9h-77.1
	c-32.1,0-57.9-25.8-57.9-57.9V329.1L166.9,619.5C144.4,643.1,107.1,643.6,84.2,620.5z"/>
</svg>
