<?xml version="1.0" encoding="utf-8"?>
<!-- Generator: Adobe Illustrator 21.0.0, SVG Export Plug-In . SVG Version: 6.00 Build 0)  -->
<svg version="1.1" id="Layer_1" xmlns="http://www.w3.org/2000/svg" xmlns:xlink="http://www.w3.org/1999/xlink" x="0px" y="0px"
	 viewBox="0 0 390 200" style="enable-background:new 0 0 390 200;" xml:space="preserve">
<style type="text/css">
	.st0{fill:#FFFFFF;}
	.st1{fill:#ED232A;}
</style>
<g>
	<path class="st0" d="M53.5,73.5l2.1-10.8l-5.7-13.3l-6.3-6.6l-0.4-0.3c10.2,4.4,17.8,16.4,19.1,31v0.1L53.5,73.5z M50.2,73.5H39V43
		l0.1,0.1c6.6,5.6,11,16.9,11,29.9C50.2,73.2,50.2,73.5,50.2,73.5z M62.2,73.5h-8.7c0,0,0-1,0-1.6c0,0.7,0-2-0.3-5.3
		c-0.8-8.1-3.3-14.6-6.9-20.2c-1.5-2.3-3.1-3.8-3.1-3.8v-0.1c0,0,0.8,0.5,1.3,0.8c0.7,0.4,1.4,0.9,2,1.4c2.3,1.7,4.3,3.6,5.4,4.6
		c0.1,0.1,0.5,0.5,0.9,0.9s0.8,1,1.2,1.4c1.3,1.6,2.6,3.4,3.8,5.5c0.6,1.1,1.2,2.3,1.6,3.5c1.9,4.8,2.6,9.5,2.8,12.6
		C62.2,73.1,62.2,73.5,62.2,73.5z M62.2,73.1L62.2,73.1L62.2,73.1z M66.5,72l-4.3-17.4l-9-9.6c0,0-2.7-1.9-4.2-2.9
		c-0.6-0.4-1.1-0.7-1.1-0.7l0,0c12.8,5.2,22,17.5,22.5,32.1l0,0L66.5,72z M65.5,73.5c0,0-0.3-3.5-0.9-6.7c-0.5-2.7-1.4-5-1.5-5.3
		C62.6,60,62,58.3,61,56.4c-1.7-3.3-3.4-6.4-6.5-9.7c-0.9-1-2-2.1-3.2-3.1c-0.8-0.7-1.6-1.2-2.1-1.6c0.3,0.2,0.7,0.4,1.2,0.7
		c0.9,0.5,2,1.2,3.2,2c0.5,0.4,1,0.7,1.6,1.1c0.1,0.1,1.8,1.4,3.4,2.9c1.4,1.3,2.6,2.8,3.5,3.8c1.6,2,3.1,4.3,4.4,6.8
		c1.5,3,2.5,6.1,3.1,8.8c0.5,2,0.8,5.3,0.8,5.3L65.5,73.5z M62.2,73.5h-8.7c0,0,0-1,0-1.6c0,0.7,0-2-0.3-5.3
		c-0.8-8.1-3.3-14.6-6.9-20.2c-1.5-2.3-3.1-3.8-3.1-3.8v-0.1c0,0,0.8,0.5,1.3,0.8c0.7,0.4,1.4,0.9,2,1.4c2.3,1.7,4.3,3.6,5.4,4.6
		c0.1,0.1,0.5,0.5,0.9,0.9s0.8,1,1.2,1.4c1.3,1.6,2.6,3.4,3.8,5.5c0.6,1.1,1.2,2.3,1.6,3.5c1.9,4.8,2.6,9.5,2.8,12.6
		C62.2,73.1,62.2,73.5,62.2,73.5z M62.2,73.1L62.2,73.1L62.2,73.1z M31.2,42.8l-6.3,6.6l-5.7,13.3l2.1,10.8h-8.8v-0.1
		c1.3-14.5,8.9-26.5,19.1-31C31.6,42.4,31.2,42.8,31.2,42.8z M24.5,73.6c0,0,0-0.3,0-0.5c0-13,4.5-24.3,11-29.9l0.1-0.1v30.5H24.5z
		 M12.6,73.1L12.6,73.1L12.6,73.1L12.6,73.1L12.6,73.1z M31.5,42.5c0,0-1.6,1.6-3.1,3.8c-3.6,5.6-6,12.1-6.9,20.2
		c-0.3,3.4-0.3,6-0.3,5.3c0,0.6,0,1.6,0,1.6h-8.7V73l0,0l0,0c0.2-3.1,0.9-7.9,2.8-12.6c0.5-1.2,1-2.3,1.6-3.5
		c1.1-2.1,2.4-3.9,3.8-5.5c0.3-0.4,0.8-0.9,1.2-1.4c0.4-0.4,0.8-0.8,0.9-0.9c1.1-1.1,3-3,5.4-4.6c0.6-0.5,1.3-0.9,2-1.4
		C30.7,43,31.6,42.4,31.5,42.5L31.5,42.5z M25.7,42c-1.5,1-4.2,2.9-4.2,2.9l-9,9.7L7.9,73.5H4.2l0,0c0.5-14.6,9.7-26.9,22.5-32.1
		l0,0C26.7,41.4,26.3,41.6,25.7,42z M20.3,46.8c-3.1,3.3-4.8,6.4-6.5,9.7c-0.9,1.8-1.5,3.5-2.1,5.1c-0.1,0.3-1,2.6-1.5,5.3
		c-0.6,3.1-0.9,6.7-0.9,6.7H4.5c0,0,0.3-3.3,0.8-5.3c0.6-2.7,1.6-5.7,3.1-8.8c1.3-2.6,2.8-4.9,4.4-6.9c0.9-1.1,2.1-2.6,3.5-3.8
		c1.6-1.5,3.3-2.8,3.4-2.9c0.5-0.4,1-0.8,1.6-1.1c1.2-0.8,2.3-1.4,3.2-2c0.5-0.3,0.9-0.5,1.2-0.7c-0.5,0.4-1.3,0.9-2.1,1.6
		C22.3,44.7,21.2,45.8,20.3,46.8z M12.6,73.1L12.6,73.1L12.6,73.1L12.6,73.1L12.6,73.1z M31.5,42.5c0,0-1.6,1.6-3.1,3.8
		c-3.6,5.6-6,12.1-6.9,20.2c-0.3,3.4-0.3,6-0.3,5.3c0,0.6,0,1.6,0,1.6h-8.7V73l0,0l0,0c0.2-3.1,0.9-7.9,2.8-12.6
		c0.5-1.2,1-2.3,1.6-3.5c1.1-2.1,2.4-3.9,3.8-5.5c0.3-0.4,0.8-0.9,1.2-1.4c0.4-0.4,0.8-0.8,0.9-0.9c1.1-1.1,3-3,5.4-4.6
		c0.6-0.5,1.3-0.9,2-1.4C30.7,43,31.6,42.4,31.5,42.5L31.5,42.5z M43.9,30.5h-13c-0.1,0-0.2-0.1-0.2-0.2v-0.5c0-0.1,0.1-0.2,0.2-0.2
		h13c0.1,0,0.2,0.1,0.2,0.2v0.5C44.1,30.4,44,30.5,43.9,30.5z M43.9,40.3h-13c-0.1,0-0.2-0.1-0.2-0.2v-0.5c0-0.1,0.1-0.2,0.2-0.2h13
		c0.1,0,0.2,0.1,0.2,0.2v0.5C44.1,40.2,44,40.3,43.9,40.3z M72.2,77H2.5c-0.1,0-0.2-0.1-0.2-0.2v-0.6c0-0.1,0.1-0.2,0.2-0.2h69.7
		c0.1,0,0.2,0.1,0.2,0.2v0.6C72.4,76.9,72.3,77,72.2,77z M36.1,22.7h-0.2l0,0v-0.5l0,0h0.2l0,0V22.7C36.2,22.7,36.1,22.7,36.1,22.7z
		 M38.8,22.7h-0.2l0,0v-0.5l0,0h0.2l0,0V22.7L38.8,22.7z M35.9,22.8v-0.2h2.9v0.2H35.9z M37.5,20.7h-0.2c0,0-0.1,0-0.1-0.1v-0.5
		c0,0,0-0.1,0.1-0.1h0.2c0,0,0.1,0,0.1,0.1L37.5,20.7L37.5,20.7z M37.3,24.1v-3.4h0.2v3.4H37.3z M32.3,28.9L32.3,28.9
		c0-2.9,2.3-5.3,5-5.3c2.8,0,5,2.3,5,5.2l0,0h-10V28.9z M43.7,30.4H31c-0.2,0-0.4-0.2-0.4-0.4v-0.1c0-0.2,0.2-0.4,0.4-0.4h12.7
		c0.2,0,0.4,0.2,0.4,0.4V30C44.1,30.3,43.9,30.4,43.7,30.4z M43.7,40.3H31c-0.2,0-0.4-0.2-0.4-0.4v-0.1c0-0.2,0.2-0.4,0.4-0.4h12.7
		c0.2,0,0.4,0.2,0.4,0.4v0.1C44.1,40.1,43.9,40.3,43.7,40.3z M38,38.6h-1.3c-0.2,0-0.4-0.2-0.4-0.4v-6.8c0-0.2,0.2-0.4,0.4-0.4H38
		c0.2,0,0.4,0.2,0.4,0.4v6.8C38.4,38.4,38.2,38.6,38,38.6z M41.3,38.6H40c-0.2,0-0.4-0.2-0.4-0.4v-6.8c0-0.2,0.2-0.4,0.4-0.4h1.3
		c0.2,0,0.4,0.2,0.4,0.4v6.8C41.7,38.4,41.5,38.6,41.3,38.6z M34.7,38.6h-1.3c-0.2,0-0.4-0.2-0.4-0.4v-6.8c0-0.2,0.2-0.4,0.4-0.4
		h1.3c0.2,0,0.4,0.2,0.4,0.4v6.8C35.1,38.4,34.9,38.6,34.7,38.6z M50,76.4v-1.5c0-0.2,0.1-0.3,0.3-0.3h3.1c0.2,0,0.3,0.1,0.3,0.3
		v1.4L50,76.4z M53.3,81.9h-3c-0.2,0-0.4-0.2-0.4-0.4v-3c0-0.2,0.2-0.4,0.4-0.4h3c0.2,0,0.4,0.2,0.4,0.4v3
		C53.7,81.7,53.5,81.9,53.3,81.9z M61.9,76.4v-1.5c0-0.2,0.1-0.3,0.3-0.3h3.1c0.2,0,0.3,0.1,0.3,0.3v1.4L61.9,76.4z M65.2,81.9h-3
		c-0.2,0-0.4-0.2-0.4-0.4v-3c0-0.2,0.2-0.4,0.4-0.4h3c0.2,0,0.4,0.2,0.4,0.4v3C65.6,81.7,65.5,81.9,65.2,81.9z M21,76.3v-1.4
		c0-0.2,0.1-0.3,0.3-0.3h3.1c0.2,0,0.3,0.1,0.3,0.3v1.5L21,76.3z M24.4,81.9h-3c-0.2,0-0.4-0.2-0.4-0.4v-3c0-0.2,0.2-0.4,0.4-0.4h3
		c0.2,0,0.4,0.2,0.4,0.4v3C24.8,81.7,24.6,81.9,24.4,81.9z M9.1,76.3v-1.4c0-0.2,0.1-0.3,0.3-0.3h3.1c0.2,0,0.3,0.1,0.3,0.3v1.5
		L9.1,76.3z M12.4,81.9h-3c-0.2,0-0.4-0.2-0.4-0.4v-3c0-0.2,0.2-0.4,0.4-0.4h3c0.2,0,0.4,0.2,0.4,0.4v3
		C12.8,81.7,12.6,81.9,12.4,81.9z M35.5,76.3v-1.4c0-0.2,0.1-0.3,0.3-0.3h3.1c0.2,0,0.3,0.1,0.3,0.3v1.5L35.5,76.3z M38.8,81.9h-3
		c-0.2,0-0.4-0.2-0.4-0.4v-3c0-0.2,0.2-0.4,0.4-0.4h3c0.2,0,0.4,0.2,0.4,0.4v3C39.2,81.7,39,81.9,38.8,81.9z M72,77H2.7
		c-0.2,0-0.4-0.2-0.4-0.4v-0.2c0-0.2,0.2-0.4,0.4-0.4H72c0.2,0,0.4,0.2,0.4,0.4v0.2C72.4,76.8,72.2,77,72,77z M72,85.2H2.7
		c-0.2,0-0.4-0.2-0.4-0.4v-1.6c0-0.2,0.2-0.4,0.4-0.4H72c0.2,0,0.4,0.2,0.4,0.4v1.6C72.4,85,72.2,85.2,72,85.2z"/>
</g>
<g>
	<path class="st0" d="M2.6,100.3L2.6,100.3c0-2.6,1.9-4.9,4.7-4.9c1.6,0,2.6,0.5,3.5,1.2l-0.7,0.8c-0.7-0.6-1.5-1.1-2.8-1.1
		c-2.1,0-3.6,1.7-3.6,3.8l0,0c0,2.2,1.4,3.9,3.7,3.9c1.1,0,2.1-0.4,2.7-0.9v-2.3H7.3V100h3.9v3.7c-0.9,0.8-2.2,1.4-3.8,1.4
		C4.4,105.1,2.6,103,2.6,100.3z"/>
	<path class="st0" d="M14.6,100.3L14.6,100.3c0-2.6,1.9-4.9,4.8-4.9c2.8,0,4.8,2.2,4.8,4.8l0,0c0,2.6-1.9,4.8-4.8,4.8
		S14.6,102.9,14.6,100.3z M23,100.3L23,100.3c0-2.1-1.5-3.9-3.7-3.9s-3.7,1.7-3.7,3.8l0,0c0,2.1,1.5,3.9,3.7,3.9S23,102.5,23,100.3z
		"/>
	<path class="st0" d="M27.9,95.6h4c1.1,0,1.9,0.3,2.4,0.8c0.4,0.4,0.6,0.9,0.6,1.5l0,0c0,1.2-0.7,1.8-1.5,2.2c1.1,0.3,2,1,2,2.3l0,0
		c0,1.6-1.3,2.5-3.4,2.5h-4.2v-9.3H27.9z M31.7,99.8c1.3,0,2.1-0.6,2.1-1.7l0,0c0-0.9-0.7-1.5-2.1-1.5h-2.8v3.2H31.7z M32.1,104
		c1.4,0,2.3-0.6,2.3-1.7l0,0c0-1-0.9-1.6-2.5-1.6h-3v3.3C28.9,104,32.1,104,32.1,104z"/>
	<path class="st0" d="M39.2,95.6h1.1v9.3h-1.1V95.6z"/>
	<path class="st0" d="M44.5,95.6h6.8v1h-5.7v3.2h5.1v1h-5.1v3.3h5.8v1h-6.8L44.5,95.6L44.5,95.6z"/>
	<path class="st0" d="M54.9,95.6h4c1.1,0,2.1,0.3,2.7,0.9c0.5,0.5,0.7,1.1,0.7,1.8l0,0c0,1.5-1.1,2.5-2.5,2.7l2.9,3.8h-1.3l-2.7-3.6
		H56v3.6h-1.1V95.6z M58.9,100.4c1.4,0,2.4-0.7,2.4-1.9l0,0c0-1.1-0.9-1.8-2.4-1.8H56v3.8L58.9,100.4L58.9,100.4z"/>
	<path class="st0" d="M66.1,95.6h1l5.9,7.5v-7.5h1v9.3h-0.8l-6-7.7v7.7h-1L66.1,95.6L66.1,95.6z"/>
	<path class="st0" d="M77.8,100.3L77.8,100.3c0-2.6,1.9-4.9,4.8-4.9c2.8,0,4.8,2.2,4.8,4.8l0,0c0,2.6-1.9,4.8-4.8,4.8
		S77.8,102.9,77.8,100.3z M86.2,100.3L86.2,100.3c0-2.1-1.5-3.9-3.7-3.9s-3.7,1.7-3.7,3.8l0,0c0,2.1,1.5,3.9,3.7,3.9
		S86.2,102.5,86.2,100.3z"/>
	<path class="st0" d="M96.6,95.6h3.2c2.9,0,5,2,5,4.6l0,0c0,2.6-2,4.7-5,4.7h-3.2V95.6z M99.9,104c2.4,0,3.9-1.6,3.9-3.7l0,0
		c0-2.1-1.5-3.7-3.9-3.7h-2.2v7.4C97.7,104,99.9,104,99.9,104z"/>
	<path class="st0" d="M108.6,95.6h6.8v1h-5.7v3.2h5.1v1h-5.1v3.3h5.8v1h-6.8v-9.5H108.6z"/>
	<path class="st0" d="M124.6,95.6h1.1v8.4h5.3v1h-6.3L124.6,95.6L124.6,95.6z"/>
	<path class="st0" d="M137.8,95.6h1l4.3,9.4H142l-1.1-2.5h-5.1l-1.1,2.5h-1.1L137.8,95.6z M140.4,101.6l-2.1-4.8l-2.1,4.8H140.4z"/>
</g>
<g>
	<path class="st0" d="M15.3,127.2c0.1,0,0.1,0.1,0.1,0.3c0,0.2,0,0.3-0.1,0.3c-0.4,0.1-0.9,0.2-1.3,0.2c-0.5,0-0.9-0.1-1.4-0.3
		s-0.9-0.6-1.3-1l-3-3.8c-0.4-0.5-0.8-0.8-1.3-1s-1.1-0.2-1.9-0.3v3.7c0,0.6,0.2,1,0.5,1.3s0.9,0.4,1.6,0.5c0,0,0.1,0.1,0.1,0.2
		s0,0.2,0,0.3c0,0.1-0.1,0.2-0.1,0.2H1.3c0,0-0.1-0.1-0.1-0.2s-0.1-0.2-0.1-0.3c0-0.1,0-0.2,0.1-0.2c0.5-0.1,0.9-0.2,1.2-0.5
		s0.4-0.7,0.4-1.2v-8.6c0-0.6-0.1-1-0.4-1.3s-0.7-0.5-1.2-0.6c-0.1,0-0.1-0.2-0.1-0.4c0-0.2,0.1-0.3,0.2-0.3
		c0.6,0.1,1.3,0.1,2.2,0.1c0.5,0,1.2,0,2-0.1c0.8,0,1.4-0.1,1.7-0.1c1.5,0,2.7,0.3,3.6,0.9s1.3,1.5,1.3,2.7c0,1-0.3,1.9-1,2.5
		s-1.5,0.9-2.4,1v0.1c0.4,0,0.7,0.1,1.1,0.3c0.3,0.2,0.7,0.6,1.1,1.1l2.9,3.6C14.2,126.9,14.8,127.2,15.3,127.2L15.3,127.2z
		 M5.7,120.7c1.5,0,2.5-0.2,3.1-0.5c0.6-0.3,0.9-1,0.9-1.9c0-1-0.3-1.8-0.8-2.3c-0.6-0.5-1.3-0.8-2.2-0.8c-0.6,0-0.9,0.1-1.2,0.4
		s-0.3,0.6-0.3,1.2v4L5.7,120.7L5.7,120.7z"/>
	<path class="st0" d="M18.5,127.7c-0.1,0-0.1-0.1-0.2-0.3c0-0.2,0-0.3,0.1-0.4c0.4-0.1,0.7-0.2,0.8-0.2c0.2,0,0.4-0.1,0.6-0.3
		s0.4-0.3,0.5-0.5s0.1-0.5,0.1-0.8v-8.6c0-0.6-0.1-1-0.4-1.2c-0.3-0.3-0.7-0.4-1.2-0.6c-0.1,0-0.1-0.1-0.1-0.3
		c0-0.2,0.1-0.3,0.2-0.3c0.7,0.1,2.4,0.1,5,0.1c0.5,0,1,0,1.5,0s1.1,0,1.6-0.1c0.6,0,1.1,0,1.4,0c0.2,0,0.3,0.1,0.4,0.2
		c0,0.1,0,0.3,0,0.5l-0.5,1.8c0,0.1-0.1,0.2-0.3,0.2s-0.3-0.1-0.3-0.2c-0.2-0.5-0.5-0.9-0.9-1.1c-0.5-0.2-1.2-0.4-2.4-0.4
		c-0.7,0-1.1,0.1-1.4,0.3c-0.3,0.2-0.4,0.5-0.4,1v3.1c0,0.2,0.1,0.4,0.2,0.5s0.3,0.1,0.5,0.1h0.4c1.8,0,3.1-0.3,3.7-0.9
		c0.1-0.1,0.2-0.1,0.4-0.1s0.2,0.2,0.1,0.3l-1.1,2.4c-0.1,0.2-0.2,0.3-0.3,0.3c-0.1,0-0.2-0.1-0.3-0.2c-0.4-0.6-1.3-0.9-2.6-0.9
		h-0.3c-0.2,0-0.4,0-0.5,0.1s-0.2,0.2-0.2,0.5v3.2c0,0.6,0.2,0.9,0.4,1.2c0.3,0.2,0.8,0.3,1.6,0.3c2.1,0,3.7-0.7,4.5-2.1
		c0.1-0.1,0.2-0.1,0.4-0.1s0.3,0.2,0.3,0.3c0,0.6-0.2,1.2-0.6,1.9s-0.9,1-1.4,1c-1.4-0.1-2.7-0.1-3.8-0.1
		C21.2,127.6,19.3,127.7,18.5,127.7L18.5,127.7z"/>
	<path class="st0" d="M45.2,118.3c0,1.7-0.7,2.9-2.1,3.6c-1.4,0.7-3.2,1-5.4,0.6v2.8c0,0.6,0.2,1,0.5,1.3c0.3,0.2,0.9,0.4,1.6,0.5
		c0,0,0.1,0.1,0.1,0.2s0,0.2,0,0.3s-0.1,0.2-0.1,0.2H34c0,0-0.1-0.1-0.1-0.2s-0.1-0.2-0.1-0.3s0-0.2,0.1-0.2
		c0.5-0.1,0.9-0.2,1.2-0.5s0.4-0.7,0.4-1.2v-8.6c0-0.6-0.1-1-0.4-1.3s-0.7-0.5-1.2-0.6c-0.1,0-0.1-0.2-0.1-0.4
		c0-0.2,0.1-0.3,0.2-0.3c0.6,0.1,1.3,0.1,2.2,0.1c0.5,0,1.2,0,2-0.1c0.8,0,1.3-0.1,1.6-0.1c1.6,0,2.9,0.3,3.9,1
		C44.7,115.8,45.2,116.9,45.2,118.3L45.2,118.3z M38,115.5c-0.2,0.2-0.3,0.6-0.3,1.2v4.9c1.7,0.2,2.9,0.1,3.7-0.3
		c0.8-0.5,1.2-1.3,1.2-2.5c0-1.1-0.3-2-1-2.6s-1.5-1-2.5-1C38.6,115.2,38.2,115.3,38,115.5z"/>
	<path class="st0" d="M56.3,128c-0.7,0-1.4-0.1-2.1-0.3c-0.6-0.2-1.3-0.5-1.8-0.9c-0.6-0.4-1-1-1.4-1.7c-0.3-0.7-0.5-1.5-0.5-2.5
		v-6.1c0-0.6-0.1-1-0.4-1.2s-0.6-0.4-1.2-0.5c0,0-0.1-0.1-0.1-0.2s0-0.2,0.1-0.3s0.1-0.2,0.1-0.2h5.3c0,0,0.1,0.1,0.1,0.2
		s0.1,0.2,0.1,0.3s0,0.2-0.1,0.2c-0.5,0.1-0.9,0.2-1.1,0.5c-0.3,0.2-0.4,0.7-0.4,1.3v6.2c0,1.3,0.3,2.3,1,2.9c0.7,0.7,1.5,1,2.6,1
		s2-0.3,2.7-1s1.1-1.7,1.1-2.9v-6.2c0-0.6-0.1-1-0.4-1.2c-0.3-0.3-0.7-0.4-1.2-0.5c0,0-0.1-0.1-0.1-0.2s0-0.2,0-0.3
		c0-0.1,0.1-0.2,0.1-0.2H63c0,0,0.1,0.1,0.1,0.2s0.1,0.2,0.1,0.3c0,0.1,0,0.2-0.1,0.2c-0.5,0.1-0.9,0.2-1.1,0.5s-0.4,0.7-0.4,1.3v6
		c0,1.7-0.5,3.1-1.5,4C59.2,127.5,57.9,128,56.3,128L56.3,128z M56.3,109.4c0.1-0.2,0.3-0.2,0.6,0s0.6,0.4,0.8,0.7
		c0.2,0.3,0.2,0.5,0.1,0.6l-2.5,1.9c-0.1,0.1-0.3,0-0.5-0.2s-0.3-0.4-0.2-0.5L56.3,109.4z"/>
	<path class="st0" d="M75.2,120.3c1,0,1.8,0.3,2.5,1s1,1.5,1,2.5c0,1.2-0.5,2.1-1.5,2.9c-1,0.7-2.3,1.1-3.9,1.1
		c-0.3,0-0.8,0-1.5-0.1c-0.8,0-1.4-0.1-1.9-0.1c-1.3,0-2.3,0-3,0.1c-0.1,0-0.1-0.1-0.2-0.3c0-0.2,0-0.3,0.1-0.4
		c0.4-0.1,0.7-0.2,0.8-0.2c0.2,0,0.4-0.1,0.6-0.3s0.4-0.3,0.5-0.5s0.1-0.5,0.1-0.8v-8.6c0-0.6-0.1-1-0.4-1.2
		c-0.3-0.3-0.7-0.4-1.2-0.6c-0.1,0-0.1-0.1-0.1-0.3c0-0.2,0.1-0.3,0.2-0.3c0.6,0.1,1.4,0.1,2.3,0.1c0.6,0,1.2,0,2-0.1
		c0.8,0,1.3-0.1,1.5-0.1c1.3,0,2.4,0.3,3.2,0.8c0.9,0.5,1.3,1.3,1.3,2.3c0,0.8-0.2,1.4-0.7,1.9s-1,0.8-1.8,1L75.2,120.3L75.2,120.3z
		 M73.2,126.7c0.9,0,1.7-0.2,2.2-0.6s0.8-1,0.8-2s-0.3-1.8-0.9-2.4s-1.4-0.8-2.3-0.8h-2v4.2c0,0.6,0.2,1,0.5,1.2
		C71.9,126.6,72.4,126.7,73.2,126.7L73.2,126.7z M71.3,115.5c-0.2,0.2-0.3,0.6-0.3,1.1v3.4h2c1.5,0,2.2-0.7,2.2-2.2
		c0-0.9-0.3-1.5-0.8-2s-1.2-0.7-2-0.7C71.9,115.1,71.5,115.3,71.3,115.5z"/>
	<path class="st0" d="M82.5,127.7c-0.1,0-0.1-0.1-0.2-0.3c0-0.2,0-0.3,0.1-0.4c0.4-0.1,0.7-0.2,0.8-0.2s0.4-0.1,0.6-0.3
		s0.4-0.3,0.5-0.5s0.1-0.5,0.1-0.8v-8.6c0-0.4-0.1-0.8-0.3-1s-0.4-0.4-0.6-0.5s-0.5-0.2-0.8-0.2c0,0-0.1-0.1-0.1-0.2s0-0.2,0.1-0.3
		c0-0.1,0.1-0.2,0.1-0.2h5.3c0,0,0.1,0.1,0.1,0.2s0.1,0.2,0,0.3c0,0.1,0,0.2-0.1,0.2c-0.5,0.1-0.9,0.2-1.2,0.5
		c-0.3,0.2-0.4,0.7-0.4,1.3v8.6c0,0.6,0.2,0.9,0.4,1.2c0.3,0.2,0.8,0.3,1.6,0.3c2.1,0,3.7-0.7,4.5-2.1c0.1-0.1,0.2-0.1,0.4-0.1
		s0.3,0.2,0.3,0.3c0,0.6-0.2,1.2-0.6,1.9s-0.9,1-1.4,1c-1.4-0.1-2.7-0.1-3.8-0.1C85.2,127.6,83.3,127.7,82.5,127.7L82.5,127.7z"/>
	<path class="st0" d="M97.5,127.7c0,0-0.1-0.1-0.1-0.2s-0.1-0.2-0.1-0.3c0-0.1,0-0.2,0.1-0.2c0.5-0.1,0.9-0.2,1.2-0.5
		s0.4-0.7,0.4-1.2v-8.7c0-0.6-0.1-1-0.4-1.2c-0.3-0.3-0.7-0.4-1.2-0.5c0,0-0.1-0.1-0.1-0.2s0-0.2,0.1-0.3c0-0.1,0.1-0.2,0.1-0.2h5.3
		c0,0,0.1,0.1,0.1,0.2s0.1,0.2,0.1,0.3c0,0.1,0,0.2-0.1,0.2c-0.5,0.1-0.9,0.2-1.2,0.5s-0.4,0.7-0.4,1.3v8.7c0,0.6,0.1,1,0.4,1.3
		s0.7,0.4,1.2,0.5c0,0,0.1,0.1,0.1,0.2s0,0.2-0.1,0.3c0,0.1-0.1,0.2-0.1,0.2L97.5,127.7L97.5,127.7z"/>
	<path class="st0" d="M114.5,128c-0.7,0-1.4-0.1-2-0.2c-0.7-0.2-1.4-0.4-2-0.8c-0.7-0.4-1.3-0.8-1.8-1.3s-0.9-1.2-1.3-1.9
		c-0.3-0.8-0.5-1.6-0.5-2.6c0-0.9,0.1-1.7,0.4-2.6c0.3-0.8,0.7-1.6,1.3-2.3c0.6-0.7,1.3-1.3,2.3-1.8c1-0.4,2.1-0.7,3.4-0.7
		c0.7,0,1.4,0.1,2.1,0.2s1.1,0.3,1.5,0.5c0.3,0.2,0.5,0.4,0.4,0.6L118,116c-0.1,0.4-0.3,0.6-0.4,0.7c-0.2,0.1-0.4,0.1-0.6,0
		c-0.3-0.1-0.5-0.3-0.8-0.5s-0.7-0.4-1.3-0.5s-1.1-0.3-1.7-0.3c-1.3,0-2.4,0.4-3.1,1.2c-0.7,0.8-1,1.9-1,3.4c0,1,0.2,2,0.6,2.8
		s0.8,1.5,1.4,1.9s1.2,0.8,1.9,1.1c0.7,0.2,1.4,0.4,2.1,0.4c0.3,0,0.8-0.1,1.4-0.2c0.7-0.2,1.2-0.4,1.7-0.7c0.1,0,0.2,0,0.3,0.2
		c0.1,0.2,0.2,0.3,0.1,0.4c-0.4,0.5-1,1-2,1.5C115.6,127.8,115,128,114.5,128L114.5,128z"/>
	<path class="st0" d="M136.2,127c0.1,0,0.2,0.1,0.2,0.3c0,0.2-0.1,0.3-0.2,0.3h-5.1c-0.1,0-0.2-0.1-0.2-0.3c0-0.2,0-0.3,0.1-0.3
		c0.2,0,0.4-0.1,0.5-0.1s0.3-0.2,0.4-0.3c0.1-0.1,0.2-0.3,0.1-0.6s-0.1-0.6-0.3-1l-0.2-0.5c-0.1-0.2-0.2-0.4-0.4-0.4
		s-0.4-0.1-0.7-0.1h-3.9c-0.3,0-0.6,0-0.7,0.1c-0.2,0.1-0.3,0.2-0.4,0.4l-0.2,0.5c-0.2,0.4-0.3,0.7-0.3,1s0,0.5,0.2,0.6
		s0.3,0.2,0.4,0.3c0.2,0.1,0.4,0.1,0.6,0.1c0.1,0,0.2,0.1,0.2,0.3c0,0.2-0.1,0.3-0.2,0.3H122c-0.1,0-0.2-0.1-0.2-0.3
		c0-0.2,0-0.3,0.2-0.3c0.4-0.1,0.8-0.2,1.1-0.5c0.3-0.3,0.6-0.8,0.9-1.5l3.3-7.5c0.6-1.5,1-2.6,1-3.2c0-0.1,0.2-0.2,0.7-0.2
		c0.5-0.1,0.7-0.1,0.7,0l4.7,11c0.3,0.8,0.6,1.3,0.9,1.6C135.5,126.8,135.8,127,136.2,127L136.2,127z M130.3,122.9
		c0.1,0,0.2,0,0.3,0s0.1,0,0.2-0.1c0,0,0.1-0.1,0-0.2l-2.3-5.4l-2.3,5.4c0,0.1,0,0.2,0.1,0.2s0.2,0.1,0.4,0.1H130.3L130.3,122.9z"/>
	<path class="st0" d="M145.6,127.7c-0.1,0-0.1-0.1-0.2-0.3c0-0.2,0-0.3,0.1-0.4c0.4-0.1,0.7-0.2,0.8-0.2c0.2,0,0.4-0.1,0.6-0.3
		s0.4-0.3,0.5-0.5s0.1-0.5,0.1-0.8v-8.6c0-0.6-0.1-1-0.4-1.2c-0.3-0.3-0.7-0.4-1.2-0.6c-0.1,0-0.1-0.1-0.1-0.3
		c0-0.2,0.1-0.3,0.2-0.3c0.6,0.1,1.4,0.1,2.4,0.1c0.5,0,1.2,0,2.1-0.1c0.9,0,1.4-0.1,1.7-0.1c2.3,0,4,0.6,5.3,1.8
		c1.3,1.2,1.9,2.8,1.9,4.7c0,1.3-0.3,2.4-0.8,3.5s-1.4,1.9-2.5,2.6s-2.4,1-3.9,1c-0.3,0-0.8,0-1.6-0.1c-0.8,0-1.4-0.1-2-0.1
		C147.4,127.6,146.4,127.7,145.6,127.7L145.6,127.7z M152.4,126.7c3.1,0,4.7-1.7,4.7-5c0-1.9-0.5-3.5-1.5-4.7s-2.3-1.9-4-1.9
		c-0.7,0-1.1,0.1-1.4,0.3c-0.3,0.2-0.4,0.6-0.4,1.1v8.6c0,0.5,0.2,0.9,0.6,1.2S151.5,126.7,152.4,126.7L152.4,126.7z"/>
	<path class="st0" d="M170.6,128c-2,0-3.7-0.7-5-2s-2-3-2-5s0.6-3.7,1.9-5.1s3-2.1,5.1-2.1c2,0,3.7,0.7,5,2s2,3,2,5
		s-0.6,3.7-1.9,5.1C174.3,127.3,172.7,128,170.6,128L170.6,128z M171.3,126.7c0.5,0,0.9-0.1,1.3-0.2s0.9-0.4,1.3-0.8s0.7-0.8,1-1.5
		c0.2-0.6,0.4-1.4,0.4-2.3c0-1.9-0.5-3.5-1.6-4.8s-2.4-1.9-3.8-1.9c-0.5,0-0.9,0.1-1.3,0.2c-0.4,0.2-0.8,0.4-1.3,0.8s-0.7,0.8-1,1.5
		c-0.2,0.6-0.4,1.4-0.4,2.3c0,1.9,0.5,3.5,1.6,4.8S169.9,126.7,171.3,126.7L171.3,126.7z"/>
	<path class="st0" d="M198.7,127c0,0,0.1,0.1,0.1,0.2s0,0.2-0.1,0.3c0,0.1-0.1,0.2-0.1,0.2h-5c0,0-0.1-0.1-0.1-0.2s-0.1-0.2-0.1-0.3
		c0-0.1,0-0.2,0.1-0.2c1-0.2,1.4-0.7,1.3-1.7l-0.4-6.5l-3.1,6.4c-0.4,0.9-0.7,1.5-0.8,2c0,0.2-0.3,0.3-0.7,0.3
		c-0.3,0-0.5-0.1-0.6-0.3l-4.5-8.4l-0.3,6.6c0,1,0.4,1.6,1.4,1.7c0,0,0.1,0.1,0.1,0.2s0,0.2-0.1,0.3s-0.1,0.2-0.1,0.2h-4
		c0,0-0.1-0.1-0.1-0.2s-0.1-0.2-0.1-0.3s0-0.2,0.1-0.2c0.5,0,0.9-0.2,1.1-0.4c0.3-0.2,0.4-0.7,0.5-1.3l0.6-11.1
		c0-0.2,0.1-0.3,0.4-0.3c0.3,0,0.4,0.1,0.5,0.2l5.6,10.5l5.2-10.5c0.1-0.2,0.3-0.3,0.5-0.3c0.3,0,0.4,0.1,0.4,0.2l0.6,11.1
		c0,0.6,0.2,1,0.5,1.3C197.8,126.8,198.2,127,198.7,127L198.7,127z"/>
	<path class="st0" d="M202.6,127.7c0,0-0.1-0.1-0.1-0.2s-0.1-0.2-0.1-0.3c0-0.1,0-0.2,0.1-0.2c0.5-0.1,0.9-0.2,1.2-0.5
		s0.4-0.7,0.4-1.2v-8.7c0-0.6-0.1-1-0.4-1.2c-0.3-0.3-0.7-0.4-1.2-0.5c0,0-0.1-0.1-0.1-0.2s0-0.2,0.1-0.3c0-0.1,0.1-0.2,0.1-0.2h5.3
		c0,0,0.1,0.1,0.1,0.2s0.1,0.2,0.1,0.3c0,0.1,0,0.2-0.1,0.2c-0.5,0.1-0.9,0.2-1.2,0.5s-0.4,0.7-0.4,1.3v8.7c0,0.6,0.1,1,0.4,1.3
		s0.7,0.4,1.2,0.5c0,0,0.1,0.1,0.1,0.2s0,0.2-0.1,0.3c0,0.1-0.1,0.2-0.1,0.2L202.6,127.7L202.6,127.7z"/>
	<path class="st0" d="M224.6,127.9c-0.3,0-0.5-0.1-0.7-0.4l-9.2-9.6v7.3c0,0.3,0,0.6,0.1,0.8c0.1,0.2,0.2,0.4,0.4,0.5
		s0.4,0.2,0.5,0.3c0.2,0.1,0.4,0.1,0.8,0.2c0.1,0,0.1,0.1,0.1,0.3s-0.1,0.3-0.2,0.3h-4.6c-0.1,0-0.1-0.1-0.2-0.3
		c0-0.2,0-0.3,0.1-0.3c0.6-0.2,1-0.4,1.2-0.5c0.3-0.3,0.4-0.7,0.4-1.3v-7.5c0-1.2-0.2-2.1-0.7-2.7c0,0-0.1-0.1-0.1-0.2
		s-0.1-0.1-0.1-0.1l-0.1-0.1c0,0,0,0,0-0.1s0-0.2,0.1-0.3c0.1-0.1,0.2-0.1,0.3-0.1h1.4c0.2,0,0.4,0.1,0.5,0.2l9,9.5v-7.2
		c0-0.3,0-0.6-0.1-0.8s-0.2-0.4-0.5-0.5c-0.2-0.1-0.4-0.2-0.5-0.3s-0.4-0.1-0.7-0.2c-0.1,0-0.1-0.1-0.1-0.3s0.1-0.3,0.2-0.3h4.6
		c0.1,0,0.1,0.1,0.2,0.3c0,0.2,0,0.3-0.1,0.3c-0.3,0.1-0.5,0.2-0.6,0.2s-0.3,0.1-0.5,0.3s-0.3,0.3-0.4,0.5c-0.1,0.2-0.1,0.5-0.1,0.8
		v7.5c0,1.7,0.1,2.8,0.2,3.4c0,0.1,0,0.2-0.1,0.3S224.8,127.9,224.6,127.9L224.6,127.9z"/>
	<path class="st0" d="M230.5,127.7c0,0-0.1-0.1-0.1-0.2s-0.1-0.2-0.1-0.3c0-0.1,0-0.2,0.1-0.2c0.5-0.1,0.9-0.2,1.2-0.5
		s0.4-0.7,0.4-1.2v-8.7c0-0.6-0.1-1-0.4-1.2c-0.3-0.3-0.7-0.4-1.2-0.5c0,0-0.1-0.1-0.1-0.2s0-0.2,0.1-0.3c0-0.1,0.1-0.2,0.1-0.2h5.3
		c0,0,0.1,0.1,0.1,0.2s0.1,0.2,0.1,0.3c0,0.1,0,0.2-0.1,0.2c-0.5,0.1-0.9,0.2-1.2,0.5s-0.4,0.7-0.4,1.3v8.7c0,0.6,0.1,1,0.4,1.3
		s0.7,0.4,1.2,0.5c0,0,0.1,0.1,0.1,0.2s0,0.2-0.1,0.3c0,0.1-0.1,0.2-0.1,0.2L230.5,127.7L230.5,127.7z"/>
	<path class="st0" d="M247.5,128c-0.7,0-1.4-0.1-2-0.2c-0.7-0.2-1.4-0.4-2-0.8c-0.7-0.4-1.3-0.8-1.8-1.3s-0.9-1.2-1.3-1.9
		c-0.3-0.8-0.5-1.6-0.5-2.6c0-0.9,0.1-1.7,0.4-2.6c0.3-0.8,0.7-1.6,1.3-2.3c0.6-0.7,1.3-1.3,2.3-1.8s2.1-0.7,3.4-0.7
		c0.7,0,1.4,0.1,2.1,0.2c0.6,0.1,1.1,0.3,1.5,0.5c0.3,0.2,0.5,0.4,0.4,0.6L251,116c-0.1,0.4-0.3,0.6-0.4,0.7c-0.2,0.1-0.4,0.1-0.6,0
		c-0.3-0.1-0.5-0.3-0.8-0.5s-0.7-0.4-1.3-0.5s-1.1-0.3-1.7-0.3c-1.3,0-2.4,0.4-3.1,1.2c-0.7,0.8-1,1.9-1,3.4c0,1,0.2,2,0.6,2.8
		s0.8,1.5,1.4,1.9s1.2,0.8,1.9,1.1c0.7,0.2,1.4,0.4,2.1,0.4c0.3,0,0.8-0.1,1.4-0.2c0.7-0.2,1.2-0.4,1.7-0.7c0.1,0,0.2,0,0.3,0.2
		s0.2,0.3,0.1,0.4c-0.4,0.5-1,1-2,1.5C248.6,127.8,248,128,247.5,128L247.5,128z"/>
	<path class="st0" d="M269.2,127c0.1,0,0.2,0.1,0.2,0.3c0,0.2-0.1,0.3-0.2,0.3h-5.1c-0.1,0-0.2-0.1-0.2-0.3c0-0.2,0-0.3,0.1-0.3
		c0.2,0,0.4-0.1,0.5-0.1s0.3-0.2,0.4-0.3c0.1-0.1,0.2-0.3,0.1-0.6s-0.1-0.6-0.3-1l-0.2-0.5c-0.1-0.2-0.2-0.4-0.4-0.4
		s-0.4-0.1-0.7-0.1h-3.9c-0.3,0-0.6,0-0.7,0.1s-0.3,0.2-0.4,0.4l-0.2,0.5c-0.2,0.4-0.3,0.7-0.3,1s0,0.5,0.2,0.6s0.3,0.2,0.4,0.3
		s0.4,0.1,0.6,0.1c0.1,0,0.2,0.1,0.2,0.3s-0.1,0.3-0.2,0.3H255c-0.1,0-0.2-0.1-0.2-0.3s0-0.3,0.2-0.3c0.4-0.1,0.8-0.2,1.1-0.5
		c0.3-0.3,0.6-0.8,0.9-1.5l3.3-7.5c0.6-1.5,1-2.6,1-3.2c0-0.1,0.2-0.2,0.7-0.2c0.5-0.1,0.7-0.1,0.7,0l4.7,11
		c0.3,0.8,0.6,1.3,0.9,1.6C268.5,126.8,268.8,127,269.2,127L269.2,127z M263.3,122.9c0.1,0,0.2,0,0.3,0c0.1,0,0.1,0,0.2-0.1
		s0.1-0.1,0-0.2l-2.3-5.4l-2.3,5.4c0,0.1,0,0.2,0.1,0.2s0.2,0.1,0.4,0.1H263.3L263.3,122.9z"/>
	<path class="st0" d="M285.6,127.9c-0.3,0-0.5-0.1-0.7-0.4l-9.2-9.6v7.3c0,0.3,0,0.6,0.1,0.8c0.1,0.2,0.2,0.4,0.4,0.5
		c0.2,0.1,0.4,0.2,0.5,0.3c0.2,0.1,0.4,0.1,0.8,0.2c0.1,0,0.1,0.1,0.1,0.3s-0.1,0.3-0.2,0.3h-4.6c-0.1,0-0.1-0.1-0.2-0.3
		c0-0.2,0-0.3,0.1-0.3c0.6-0.2,1-0.4,1.2-0.5c0.3-0.3,0.4-0.7,0.4-1.3v-7.5c0-1.2-0.2-2.1-0.7-2.7c0,0-0.1-0.1-0.1-0.2
		s-0.1-0.1-0.1-0.1l-0.1-0.1c0,0,0,0,0-0.1s0-0.2,0.1-0.3c0.1-0.1,0.2-0.1,0.3-0.1h1.4c0.2,0,0.4,0.1,0.5,0.2l9,9.5v-7.2
		c0-0.3,0-0.6-0.1-0.8s-0.2-0.4-0.5-0.5c-0.2-0.1-0.4-0.2-0.5-0.3s-0.4-0.1-0.7-0.2c-0.1,0-0.1-0.1-0.1-0.3s0.1-0.3,0.2-0.3h4.6
		c0.1,0,0.1,0.1,0.2,0.3c0,0.2,0,0.3-0.1,0.3c-0.3,0.1-0.5,0.2-0.6,0.2s-0.3,0.1-0.5,0.3s-0.3,0.3-0.4,0.5s-0.1,0.5-0.1,0.8v7.5
		c0,1.7,0.1,2.8,0.2,3.4c0,0.1,0,0.2-0.1,0.3S285.8,127.9,285.6,127.9L285.6,127.9z"/>
	<path class="st0" d="M304.8,127c0.1,0,0.2,0.1,0.2,0.3c0,0.2-0.1,0.3-0.2,0.3h-5.1c-0.1,0-0.2-0.1-0.2-0.3c0-0.2,0-0.3,0.1-0.3
		c0.2,0,0.4-0.1,0.5-0.1s0.3-0.2,0.4-0.3c0.1-0.1,0.2-0.3,0.1-0.6s-0.1-0.6-0.3-1l-0.2-0.5c-0.1-0.2-0.2-0.4-0.4-0.4
		s-0.4-0.1-0.7-0.1h-3.9c-0.3,0-0.6,0-0.7,0.1s-0.3,0.2-0.4,0.4l-0.2,0.5c-0.2,0.4-0.3,0.7-0.3,1s0,0.5,0.2,0.6s0.3,0.2,0.4,0.3
		s0.4,0.1,0.6,0.1c0.1,0,0.2,0.1,0.2,0.3s-0.1,0.3-0.2,0.3h-4.2c-0.1,0-0.2-0.1-0.2-0.3s0-0.3,0.2-0.3c0.4-0.1,0.8-0.2,1.1-0.5
		c0.3-0.3,0.6-0.8,0.9-1.5l3.3-7.5c0.6-1.5,1-2.6,1-3.2c0-0.1,0.2-0.2,0.7-0.2c0.5-0.1,0.7-0.1,0.7,0l4.7,11
		c0.3,0.8,0.6,1.3,0.9,1.6C304.1,126.8,304.4,127,304.8,127L304.8,127z M298.9,122.9c0.1,0,0.2,0,0.3,0c0.1,0,0.1,0,0.2-0.1
		s0.1-0.1,0-0.2l-2.3-5.4l-2.3,5.4c0,0.1,0,0.2,0.1,0.2s0.2,0.1,0.4,0.1H298.9L298.9,122.9z"/>
</g>
<rect x="2.8" y="139.2" class="st1" width="69.7" height="3.3"/>
<g>
	<path class="st1" d="M4.2,171.6c-0.1,0-0.1-0.1-0.1-0.2S4,171.1,4,171s0-0.2,0.1-0.2c0.8-0.1,1.4-0.3,1.8-0.5
		c0.4-0.2,0.6-0.6,0.6-1.1v-10c0-0.3-0.1-0.5-0.2-0.5c-0.1-0.1-0.3-0.1-0.5-0.1H5.4c-0.9,0-1.6,0.1-2.3,0.4s-1.1,0.6-1.2,1
		c-0.1,0.3-0.3,0.4-0.6,0.3c-0.2,0-0.3-0.1-0.3-0.3c0.2-0.7,0.4-1.6,0.5-2.6c0-0.2,0.1-0.3,0.2-0.4c0.1,0,0.3,0,0.5,0
		c1.1,0.1,3.1,0.2,6,0.2c3.2,0,5.4-0.1,6.6-0.2c0.1,0,0.2,0,0.3,0s0.2,0,0.2,0.1c0.1,0.1,0.1,0.2,0,0.3c-0.3,1-0.5,1.9-0.7,2.6
		c0,0.2-0.2,0.3-0.4,0.3s-0.4-0.1-0.4-0.3c-0.1-0.4-0.4-0.7-0.9-1s-1.2-0.4-2-0.4h-0.5c-0.6,0-0.8,0.2-0.8,0.7v10
		c0,0.5,0.2,0.9,0.6,1.1s1,0.4,1.8,0.5c0.1,0,0.1,0.1,0.1,0.2s0,0.2-0.1,0.4c-0.1,0.1-0.1,0.2-0.2,0.2L4.2,171.6L4.2,171.6z"/>
	<path class="st1" d="M32.8,171c0.1,0,0.1,0.1,0.1,0.3s0,0.3-0.1,0.3c-2.1,0.6-3.8,0.1-4.9-1.3l-3.2-4c-0.4-0.6-0.9-0.9-1.3-1.1
		c-0.5-0.2-1.1-0.3-1.9-0.3v4c0,0.7,0.2,1.1,0.6,1.4s1,0.4,1.7,0.5c0,0,0.1,0.1,0.1,0.2c0,0.1,0,0.3-0.1,0.4c0,0.1-0.1,0.2-0.1,0.2
		H17c-0.1,0-0.1-0.1-0.1-0.2c0-0.1-0.1-0.3-0.1-0.4s0-0.2,0.1-0.2c0.6-0.1,1-0.2,1.3-0.5s0.4-0.7,0.4-1.3v-9.1
		c0-0.6-0.1-1.1-0.4-1.4c-0.3-0.3-0.7-0.5-1.3-0.7c-0.1,0-0.1-0.2-0.1-0.4c0-0.3,0.1-0.4,0.2-0.4c0.6,0.1,1.5,0.1,2.4,0.1
		c0.7,0,1.5,0,2.5-0.1c1,0,1.7-0.1,2-0.1c1.7,0,3,0.3,4,1c0.9,0.7,1.4,1.6,1.4,2.8c0,1.1-0.4,2-1.1,2.6s-1.6,1-2.7,1v0.1
		c0.5,0,0.9,0.1,1.3,0.3s0.8,0.7,1.3,1.3l2.9,3.7C31.7,170.6,32.3,171,32.8,171L32.8,171z M22.1,163.9c1.5,0,2.6-0.2,3.1-0.5
		s0.8-1,0.8-1.9c0-1.1-0.3-1.9-0.8-2.4s-1.3-0.8-2.2-0.8c-0.6,0-1,0.1-1.2,0.4s-0.3,0.7-0.3,1.3v4h0.6V163.9z"/>
	<path class="st1" d="M49.2,170.8c0.1,0,0.2,0.2,0.2,0.4c0,0.3-0.1,0.4-0.2,0.4h-6c-0.1,0-0.2-0.1-0.2-0.4c0-0.3,0-0.4,0.2-0.4
		s0.4-0.1,0.6-0.2c0.1-0.1,0.3-0.2,0.4-0.3c0.1-0.1,0.2-0.4,0.2-0.6c0-0.3-0.1-0.6-0.3-1l-0.1-0.2c-0.1-0.3-0.2-0.4-0.3-0.5
		s-0.3-0.1-0.6-0.1H39c-0.3,0-0.6,0-0.7,0.1c-0.1,0.1-0.3,0.2-0.4,0.5l-0.1,0.2c-0.2,0.4-0.3,0.7-0.3,1s0.1,0.5,0.2,0.6
		c0.1,0.1,0.3,0.2,0.5,0.3s0.4,0.1,0.7,0.2c0.1,0,0.2,0.2,0.2,0.4c0,0.3-0.1,0.4-0.2,0.4H34c-0.1,0-0.2-0.1-0.2-0.4
		c0-0.3,0-0.4,0.1-0.4c0.5-0.1,0.8-0.3,1.1-0.5c0.3-0.3,0.6-0.8,0.9-1.6l3.5-8.2c0.7-1.6,1.1-2.7,1.1-3.4c0-0.1,0.2-0.2,0.7-0.3
		s0.7-0.1,0.8-0.1l5.1,11.8c0.3,0.8,0.7,1.3,1,1.6C48.4,170.5,48.8,170.7,49.2,170.8L49.2,170.8z M42.5,166.6c0.1,0,0.2,0,0.2,0
		c0.1,0,0.1-0.1,0.2-0.1s0.1-0.1,0-0.2l-2.1-5l-2.1,5c-0.1,0.1,0,0.2,0,0.3c0.1,0.1,0.2,0.1,0.4,0.1h3.4V166.6z"/>
	<path class="st1" d="M60,163.6c1.1,0,2,0.3,2.7,1c0.8,0.7,1.2,1.6,1.2,2.7c0,1.3-0.6,2.3-1.7,3.1s-2.5,1.2-4.2,1.2
		c-0.3,0-0.8,0-1.6-0.1c-0.8,0-1.5-0.1-2.2-0.1c-1.6,0-2.8,0-3.5,0.1c-0.1,0-0.1-0.1-0.2-0.4c0-0.3,0-0.4,0.1-0.5
		c0.4-0.1,0.7-0.2,0.9-0.3s0.4-0.2,0.6-0.3c0.2-0.1,0.4-0.3,0.5-0.6c0.1-0.2,0.1-0.5,0.1-0.9v-9.1c0-0.4-0.1-0.7-0.3-1
		s-0.4-0.4-0.6-0.5s-0.5-0.2-0.9-0.3c-0.1,0-0.1-0.2-0.1-0.4c0-0.3,0.1-0.4,0.2-0.4c0.7,0.1,1.5,0.1,2.6,0.1c0.8,0,1.6,0,2.5-0.1
		c0.9,0,1.4-0.1,1.6-0.1c1.4,0,2.5,0.3,3.4,0.9s1.4,1.4,1.4,2.5c0,0.8-0.2,1.5-0.7,2c-0.5,0.6-1.1,0.9-2,1.1L60,163.6L60,163.6z
		 M56,158.5c-0.2,0.2-0.3,0.6-0.3,1.1v3.6h2c1.1,0,1.7-0.7,1.7-2.2c0-0.9-0.2-1.6-0.7-2.1c-0.4-0.5-1.1-0.8-1.9-0.8
		C56.5,158.1,56.2,158.3,56,158.5z M60.6,167.9c0-0.9-0.3-1.8-0.8-2.4c-0.5-0.7-1.2-1-2.1-1h-2v4.3c0,0.6,0.2,1,0.5,1.3
		s0.8,0.4,1.6,0.4C59.6,170.4,60.6,169.6,60.6,167.9z"/>
	<path class="st1" d="M81,170.8c0.1,0,0.2,0.2,0.2,0.4c0,0.3-0.1,0.4-0.2,0.4h-6c-0.1,0-0.2-0.1-0.2-0.4c0-0.3,0-0.4,0.2-0.4
		s0.4-0.1,0.6-0.2c0.1-0.1,0.3-0.2,0.4-0.3s0.2-0.4,0.2-0.6c0-0.3-0.1-0.6-0.3-1l-0.1-0.2c-0.1-0.3-0.2-0.4-0.3-0.5
		c-0.1-0.1-0.3-0.1-0.6-0.1h-4.1c-0.3,0-0.6,0-0.7,0.1s-0.3,0.2-0.4,0.5l-0.1,0.2c-0.2,0.4-0.3,0.7-0.3,1s0.1,0.5,0.2,0.6
		s0.3,0.2,0.5,0.3s0.4,0.1,0.7,0.2c0.1,0,0.2,0.2,0.2,0.4c0,0.3-0.1,0.4-0.2,0.4H66c-0.1,0-0.2-0.1-0.2-0.4c0-0.3,0-0.4,0.1-0.4
		c0.5-0.1,0.8-0.3,1.1-0.5c0.3-0.3,0.6-0.8,0.9-1.6l3.5-8.2c0.7-1.6,1.1-2.7,1.1-3.4c0-0.1,0.2-0.2,0.7-0.3s0.7-0.1,0.8-0.1
		l5.1,11.8c0.3,0.8,0.7,1.3,1,1.6C80.2,170.5,80.6,170.7,81,170.8L81,170.8z M74.3,166.6c0.1,0,0.2,0,0.2,0c0.1,0,0.1-0.1,0.2-0.1
		s0.1-0.1,0-0.2l-2.1-5l-2.1,5c-0.1,0.1,0,0.2,0,0.3c0.1,0.1,0.2,0.1,0.4,0.1h3.4V166.6z"/>
	<path class="st1" d="M82.7,176.1c-0.1,0-0.2-0.1-0.3-0.2c-0.1-0.1-0.1-0.3-0.1-0.4s0-0.2,0.1-0.2c0.6-0.1,1-0.4,1.4-0.9
		c0.4-0.6,0.5-1.4,0.5-2.6v-12.1c0-0.7-0.1-1.1-0.4-1.4c-0.3-0.3-0.7-0.4-1.3-0.5c-0.1,0-0.1-0.1-0.1-0.2c0-0.1,0-0.2,0.1-0.4
		s0.1-0.2,0.1-0.2H89c0.1,0,0.1,0.1,0.1,0.2c0,0.1,0.1,0.2,0.1,0.4c0,0.1,0,0.2-0.1,0.2c-0.3,0.1-0.6,0.1-0.9,0.2
		c-0.2,0.1-0.4,0.3-0.6,0.5c-0.2,0.3-0.3,0.6-0.3,1.1v12.1c0,1-0.5,2-1.7,2.9C84.6,175.6,83.6,176,82.7,176.1L82.7,176.1z"/>
	<path class="st1" d="M98.7,171.9c-2.2,0-4-0.7-5.4-2.1c-1.4-1.4-2.2-3.2-2.2-5.4s0.7-4,2.1-5.5s3.3-2.2,5.5-2.2s4,0.7,5.4,2.1
		c1.4,1.4,2.2,3.2,2.2,5.4s-0.7,4-2.1,5.5S101,171.9,98.7,171.9L98.7,171.9z M99.6,170.3c1,0,1.8-0.4,2.6-1.2c0.7-0.8,1.1-2,1.1-3.6
		c0-2-0.6-3.7-1.7-5.1c-1.1-1.4-2.4-2.1-3.8-2.1c-1,0-1.8,0.4-2.6,1.2c-0.7,0.8-1.1,2-1.1,3.6c0,2,0.6,3.7,1.7,5.1
		C96.9,169.6,98.2,170.3,99.6,170.3L99.6,170.3z"/>
</g>
</svg>
