<?xml version="1.0" encoding="utf-8"?>
<!-- Generator: Adobe Illustrator 21.0.0, SVG Export Plug-In . SVG Version: 6.00 Build 0)  -->
<svg version="1.1" id="Layer_1" xmlns="http://www.w3.org/2000/svg" xmlns:xlink="http://www.w3.org/1999/xlink" x="0px" y="0px"
	 viewBox="0 0 731.8 558.7" style="enable-background:new 0 0 731.8 558.7;" xml:space="preserve">
<style type="text/css">
	.st0{fill:#F2F2F2;}
	.st1{fill:#CCCCCC;}
	.st2{fill:#FFFFFF;}
	.st3{fill:#333333;}
	.st4{fill:#ECECEC;}
	.st5{fill:#4FC3F7;}
	.st6{fill:#43A047;}
	.st7{fill:#4CAF50;}
	.st8{fill:#FFD54F;}
	.st9{fill:#BA68C8;}
	.st10{fill:#EF5350;}
	.st11{fill:#66BB6A;}
	.st12{fill:#64B5F6;}
	.st13{fill:#B3B3B3;}
	.st14{fill:#E6E6E6;}
	.st15{fill:#607D8B;}
	.st16{fill:#FFA000;}
	.st17{fill:#FF6F00;}
	.st18{fill:#808080;}
	.st19{fill:#AB47BC;}
	.st20{fill:#9C27B0;}
	.st21{fill:#7E57C2;}
	.st22{fill:#424242;}
	.st23{fill:#03A9F4;}
	.st24{fill:#009688;}
	.st25{fill:#FFEB3B;}
	.st26{fill:#F44336;}
</style>
<path class="st0" d="M305.8,426l121.3,2.7l10,94.9H295.4L305.8,426z"/>
<path class="st1" d="M305.8,426l-3.2,29.5h127.2l-2.8-26.8L305.8,426L305.8,426z"/>
<path class="st2" d="M116.9,448.7h498.5c13.8,0,25-11.2,25-25V113.6c0-13.8-11.2-25-25-25H116.9c-13.8,0-25,11.2-25,25v310.2
	C92,437.5,103.2,448.7,116.9,448.7z"/>
<path class="st3" d="M91.9,81v317.5h548.6V81H91.9z M104.8,97.4h520.4l-69.8,261.5l-390-26.1L104.8,97.4z"/>
<path class="st3" d="M120.3,57.8h491.8c15.7,0,28.4,12.7,28.4,28.4v94.4c0,15.7-12.7,28.4-28.4,28.4H120.3
	c-15.7,0-28.4-12.7-28.4-28.4V86.1C91.9,70.5,104.6,57.8,120.3,57.8z"/>
<rect x="114.1" y="81.9" class="st4" width="504.2" height="290.5"/>
<path class="st2" d="M258.6,509.2h215.2c2.3,0,4.2,1.9,4.2,4.2v6.1c0,2.3-1.9,4.2-4.2,4.2H258.6c-2.3,0-4.2-1.9-4.2-4.2v-6.1
	C254.5,511.1,256.3,509.2,258.6,509.2z"/>
<circle class="st3" cx="366.2" cy="424.3" r="14.1"/>
<rect x="114.1" y="81.9" class="st5" width="504.3" height="290.6"/>
<rect x="114.1" y="81.9" class="st4" width="504.3" height="74.8"/>
<rect x="114.1" y="362.8" class="st4" width="504.3" height="9.6"/>
<rect x="114.1" y="81.9" class="st6" width="504.3" height="27.9"/>
<rect x="114.1" y="81.9" class="st7" width="504.3" height="13.8"/>
<rect x="116.5" y="84.3" class="st2" width="7" height="7.1"/>
<rect x="117.5" y="92.5" class="st2" width="5.9" height="6"/>
<rect x="124.7" y="87.9" class="st2" width="3.4" height="3.5"/>
<rect x="124.7" y="92.5" class="st2" width="4.8" height="4.9"/>
<path class="st2" d="M426.4,117h21.7c0.9,0,1.7,0.7,1.7,1.7v16.8c0,0.9-0.7,1.7-1.7,1.7h-21.7c-0.9,0-1.7-0.7-1.7-1.7v-16.8
	C424.7,117.7,425.5,117,426.4,117z"/>
<path class="st2" d="M458.5,117h21.7c0.9,0,1.7,0.7,1.7,1.7v16.8c0,0.9-0.7,1.7-1.7,1.7h-21.7c-0.9,0-1.7-0.7-1.7-1.7v-16.8
	C456.8,117.7,457.6,117,458.5,117z"/>
<path class="st2" d="M490.6,117h21.7c0.9,0,1.7,0.7,1.7,1.7v16.8c0,0.9-0.7,1.7-1.7,1.7h-21.7c-0.9,0-1.7-0.7-1.7-1.7v-16.8
	C488.9,117.7,489.7,117,490.6,117z"/>
<path class="st2" d="M522.7,117h21.7c0.9,0,1.7,0.7,1.7,1.7v16.8c0,0.9-0.7,1.7-1.7,1.7h-21.7c-0.9,0-1.7-0.7-1.7-1.7v-16.8
	C521,117.7,521.8,117,522.7,117z"/>
<path class="st2" d="M554.8,117h21.7c0.9,0,1.7,0.7,1.7,1.7v16.8c0,0.9-0.7,1.7-1.7,1.7h-21.7c-0.9,0-1.7-0.7-1.7-1.7v-16.8
	C553.1,117.7,553.9,117,554.8,117z"/>
<path class="st2" d="M183.7,118.1h90.8c0.9,0,1.7,0.7,1.7,1.7v4.9c0,0.9-0.7,1.7-1.7,1.7h-90.8c-0.9,0-1.7-0.7-1.7-1.7v-4.9
	C182,118.9,182.8,118.1,183.7,118.1z"/>
<path class="st2" d="M281,118.4h9.7c0.9,0,1.7,0.7,1.7,1.7v5.2c0,0.9-0.7,1.7-1.7,1.7H281c-0.9,0-1.7-0.7-1.7-1.7V120
	C279.3,119.1,280.1,118.4,281,118.4z"/>
<path class="st8" d="M122.3,116.6h14c0.9,0,1.7,0.7,1.7,1.7v14.5c0,0.9-0.7,1.7-1.7,1.7h-14c-0.9,0-1.7-0.7-1.7-1.7v-14.5
	C120.7,117.4,121.4,116.6,122.3,116.6z"/>
<path class="st2" d="M130.4,122.7h8.7c0.9,0,1.7,0.7,1.7,1.7v11.4c0,0.9-0.7,1.7-1.7,1.7h-8.7c-0.9,0-1.7-0.7-1.7-1.7v-11.4
	C128.7,123.4,129.4,122.7,130.4,122.7z"/>
<path class="st9" d="M285.3,130.1h5.4c0.6,0,1.1,0.5,1.1,1.1v5.4c0,0.6-0.5,1.1-1.1,1.1h-5.4c-0.6,0-1.1-0.5-1.1-1.1v-5.4
	C284.2,130.6,284.7,130.1,285.3,130.1z"/>
<path class="st10" d="M276.1,130.1h5.4c0.6,0,1.1,0.5,1.1,1.1v5.4c0,0.6-0.5,1.1-1.1,1.1h-5.4c-0.6,0-1.1-0.5-1.1-1.1v-5.4
	C274.9,130.6,275.4,130.1,276.1,130.1z"/>
<path class="st11" d="M146.7,118.7h21.7c0.5,0,0.9,0.4,0.9,0.9v2.6c0,0.5-0.4,0.9-0.9,0.9h-21.7c-0.5,0-0.9-0.4-0.9-0.9v-2.6
	C145.7,119.1,146.2,118.7,146.7,118.7z"/>
<path class="st11" d="M166.2,125.2h2.1c0.5,0,0.9,0.4,0.9,0.9v2.6c0,0.5-0.4,0.9-0.9,0.9h-2.1c-0.5,0-0.9-0.4-0.9-0.9v-2.6
	C165.3,125.6,165.7,125.2,166.2,125.2z"/>
<path class="st11" d="M146.7,131.8h21.7c0.5,0,0.9,0.4,0.9,0.9v2.6c0,0.5-0.4,0.9-0.9,0.9h-21.7c-0.5,0-0.9-0.4-0.9-0.9v-2.6
	C145.7,132.2,146.2,131.8,146.7,131.8z"/>
<path class="st11" d="M309.8,117.4h4c0.9,0,1.6,0.7,1.6,1.6v4.5c0,0.9-0.7,1.6-1.6,1.6h-4c-0.9,0-1.6-0.7-1.6-1.6v-4.5
	C308.2,118.2,308.9,117.4,309.8,117.4z"/>
<path class="st11" d="M319.2,117.4h13.2c0.9,0,1.6,0.7,1.6,1.6v4.5c0,0.9-0.7,1.6-1.6,1.6h-13.2c-0.9,0-1.6-0.7-1.6-1.6v-4.5
	C317.6,118.2,318.3,117.4,319.2,117.4z"/>
<path class="st11" d="M338.4,117.4h69.8c0.9,0,1.6,0.7,1.6,1.6v4.5c0,0.9-0.7,1.6-1.6,1.6h-69.8c-0.9,0-1.6-0.7-1.6-1.6v-4.5
	C336.8,118.2,337.5,117.4,338.4,117.4z"/>
<path class="st11" d="M309.8,128.3h4c0.9,0,1.6,0.7,1.6,1.6v4.5c0,0.9-0.7,1.6-1.6,1.6h-4c-0.9,0-1.6-0.7-1.6-1.6v-4.5
	C308.2,129,308.9,128.3,309.8,128.3z"/>
<path class="st11" d="M319.2,128.3h13.2c0.9,0,1.6,0.7,1.6,1.6v4.5c0,0.9-0.7,1.6-1.6,1.6h-13.2c-0.9,0-1.6-0.7-1.6-1.6v-4.5
	C317.6,129,318.3,128.3,319.2,128.3z"/>
<path class="st11" d="M338.4,128.3h69.8c0.9,0,1.6,0.7,1.6,1.6v4.5c0,0.9-0.7,1.6-1.6,1.6h-69.8c-0.9,0-1.6-0.7-1.6-1.6v-4.5
	C336.8,129,337.5,128.3,338.4,128.3z"/>
<path class="st12" d="M188.1,130.9h22c0.7,0,1.2,0.6,1.2,1.2v3.5c0,0.7-0.6,1.2-1.2,1.2h-22c-0.7,0-1.2-0.6-1.2-1.2v-3.5
	C186.9,131.5,187.4,130.9,188.1,130.9z"/>
<path class="st12" d="M216,130.9h22c0.7,0,1.2,0.6,1.2,1.2v3.5c0,0.7-0.6,1.2-1.2,1.2h-22c-0.7,0-1.2-0.6-1.2-1.2v-3.5
	C214.8,131.5,215.4,130.9,216,130.9z"/>
<path class="st12" d="M244.8,130.9h22c0.7,0,1.2,0.6,1.2,1.2v3.5c0,0.7-0.6,1.2-1.2,1.2h-22c-0.7,0-1.2-0.6-1.2-1.2v-3.5
	C243.6,131.5,244.1,130.9,244.8,130.9z"/>
<path class="st11" d="M592.9,116.7h18c0.5,0,1,0.4,1,1v2.7c0,0.5-0.4,1-1,1h-18c-0.5,0-1-0.4-1-1v-2.7
	C592,117.2,592.4,116.7,592.9,116.7z"/>
<path class="st11" d="M592.8,124.2H611c0.5,0,0.8,0.4,0.8,0.8v2.4c0,0.5-0.4,0.8-0.8,0.8h-18.2c-0.5,0-0.8-0.4-0.8-0.8v-2.4
	C592,124.6,592.3,124.2,592.8,124.2z"/>
<path class="st11" d="M592.8,131h18.3c0.4,0,0.8,0.4,0.8,0.8v2.2c0,0.4-0.4,0.8-0.8,0.8h-18.3c-0.4,0-0.8-0.4-0.8-0.8v-2.2
	C592,131.4,592.3,131,592.8,131z"/>
<rect x="117.8" y="364.8" class="st13" width="33.9" height="6"/>
<rect x="608.5" y="364.3" class="st13" width="6" height="6.4"/>
<rect x="582.2" y="364.3" class="st13" width="6" height="6.4"/>
<rect x="114.1" y="156.2" class="st1" width="504.3" height="216.2"/>
<path class="st2" d="M119.7,142.9h73.2c0.8,0,1.5,0.7,1.5,1.5v7.2c0,0.8-0.7,1.5-1.5,1.5h-73.2c-0.8,0-1.5-0.7-1.5-1.5v-7.2
	C118.2,143.6,118.9,142.9,119.7,142.9z"/>
<path class="st2" d="M200.5,142.9h411.8c0.8,0,1.5,0.7,1.5,1.5v7.2c0,0.8-0.7,1.5-1.5,1.5H200.5c-0.8,0-1.5-0.7-1.5-1.5v-7.2
	C199,143.6,199.7,142.9,200.5,142.9z"/>
<rect x="114.1" y="169.7" class="st2" width="504.3" height="202.7"/>
<rect x="114.1" y="200.6" class="st14" width="504.3" height="2.6"/>
<rect x="114.1" y="215" class="st14" width="504.3" height="2.6"/>
<rect x="114.1" y="229.3" class="st14" width="504.3" height="2.6"/>
<rect x="114.1" y="243.7" class="st14" width="504.3" height="2.6"/>
<rect x="114.1" y="258" class="st14" width="504.3" height="2.6"/>
<rect x="114.1" y="272.4" class="st14" width="504.3" height="2.6"/>
<rect x="114.1" y="286.8" class="st14" width="504.3" height="2.6"/>
<rect x="114.1" y="301.1" class="st14" width="504.3" height="2.6"/>
<rect x="114.1" y="315.5" class="st14" width="504.3" height="2.6"/>
<rect x="114.1" y="329.9" class="st14" width="504.3" height="2.6"/>
<rect x="114.1" y="344.2" class="st14" width="504.3" height="2.6"/>
<rect x="114.1" y="358.6" class="st14" width="504.3" height="2.6"/>
<rect x="131.7" y="156.2" class="st14" width="2.6" height="216.2"/>
<rect x="175.3" y="156.2" class="st14" width="2.6" height="216.2"/>
<rect x="270.3" y="156.2" class="st14" width="2.6" height="216.2"/>
<rect x="317.9" y="156.2" class="st14" width="2.6" height="216.2"/>
<rect x="366.4" y="156.2" class="st14" width="2.6" height="216.2"/>
<rect x="414.9" y="156.2" class="st14" width="2.6" height="216.2"/>
<rect x="463.8" y="156.2" class="st14" width="2.6" height="216.2"/>
<rect x="514.3" y="156.2" class="st14" width="2.6" height="216.2"/>
<rect x="568.9" y="156.2" class="st14" width="2.6" height="216.2"/>
<rect x="320.6" y="156.1" class="st15" width="46" height="13.9"/>
<rect x="134.3" y="169.7" class="st7" width="484.1" height="22.5"/>
<rect x="114.2" y="183.2" class="st14" width="18.6" height="2.5"/>
<path class="st1" d="M131.7,169.7l-17.6,13.5h17.6V169.7z"/>
<rect x="177.6" y="212.5" class="st2" width="140.3" height="88.9"/>
<rect x="320.5" y="212.5" class="st2" width="45.9" height="88.9"/>
<rect x="175.3" y="200.5" class="st16" width="193.4" height="17.1"/>
<rect x="180.3" y="206.5" class="st17" width="67.9" height="6.9"/>
<rect x="322.9" y="206.5" class="st17" width="29.3" height="6.9"/>
<rect x="180.3" y="221.1" class="st18" width="117.6" height="6.9"/>
<rect x="180.3" y="233.9" class="st18" width="90.5" height="6.9"/>
<rect x="180.3" y="248.5" class="st18" width="36.7" height="6.9"/>
<rect x="180.3" y="263.4" class="st18" width="67.9" height="6.9"/>
<rect x="340.9" y="221.1" class="st18" width="21.8" height="6.9"/>
<rect x="346.7" y="233.9" class="st18" width="16.1" height="6.9"/>
<rect x="341.8" y="248.5" class="st18" width="21" height="6.9"/>
<rect x="332.9" y="263.4" class="st18" width="29.9" height="6.9"/>
<rect x="332.9" y="291.2" class="st18" width="29.9" height="6.9"/>
<rect x="180.5" y="291.2" class="st18" width="29.9" height="6.9"/>
<rect x="214.7" y="291.2" class="st18" width="2.9" height="6.9"/>
<path class="st13" d="M120,187.7h4.2c0.8,0,1.5,0.7,1.5,1.5v8.1c0,0.8-0.7,1.5-1.5,1.5H120c-0.8,0-1.5-0.7-1.5-1.5v-8.1
	C118.5,188.4,119.2,187.7,120,187.7z"/>
<path class="st13" d="M119.5,205.1h5.2c0.6,0,1,0.5,1,1v5.6c0,0.6-0.5,1-1,1h-5.2c-0.6,0-1-0.5-1-1v-5.6
	C118.5,205.6,119,205.1,119.5,205.1z"/>
<path class="st13" d="M119.5,219.6h5.2c0.6,0,1,0.5,1,1v5.6c0,0.6-0.5,1-1,1h-5.2c-0.6,0-1-0.5-1-1v-5.6
	C118.5,220.1,119,219.6,119.5,219.6z"/>
<path class="st13" d="M119.5,233.8h5.2c0.6,0,1,0.5,1,1v5.6c0,0.6-0.5,1-1,1h-5.2c-0.6,0-1-0.5-1-1v-5.6
	C118.5,234.2,119,233.8,119.5,233.8z"/>
<path class="st13" d="M119.5,248.5h5.2c0.6,0,1,0.5,1,1v5.6c0,0.6-0.5,1-1,1h-5.2c-0.6,0-1-0.5-1-1v-5.6
	C118.5,249,119,248.5,119.5,248.5z"/>
<path class="st13" d="M119.5,262.7h5.2c0.6,0,1,0.5,1,1v5.6c0,0.6-0.5,1-1,1h-5.2c-0.6,0-1-0.5-1-1v-5.6
	C118.5,263.1,119,262.7,119.5,262.7z"/>
<path class="st13" d="M119.5,277.2h5.2c0.6,0,1,0.5,1,1v5.6c0,0.6-0.5,1-1,1h-5.2c-0.6,0-1-0.5-1-1v-5.6
	C118.5,277.7,119,277.2,119.5,277.2z"/>
<path class="st13" d="M119.5,291.6h5.2c0.6,0,1,0.5,1,1v5.6c0,0.6-0.5,1-1,1h-5.2c-0.6,0-1-0.5-1-1v-5.6
	C118.5,292,119,291.6,119.5,291.6z"/>
<path class="st13" d="M119.5,305.7h5.2c0.6,0,1,0.5,1,1v5.6c0,0.6-0.5,1-1,1h-5.2c-0.6,0-1-0.5-1-1v-5.6
	C118.5,306.2,119,305.7,119.5,305.7z"/>
<path class="st13" d="M119.5,320.2h5.2c0.6,0,1,0.5,1,1v5.6c0,0.6-0.5,1-1,1h-5.2c-0.6,0-1-0.5-1-1v-5.6
	C118.5,320.7,119,320.2,119.5,320.2z"/>
<path class="st13" d="M119.5,334.4h5.2c0.6,0,1,0.5,1,1v5.6c0,0.6-0.5,1-1,1h-5.2c-0.6,0-1-0.5-1-1v-5.6
	C118.5,334.9,119,334.4,119.5,334.4z"/>
<path class="st13" d="M119.5,348.9h5.2c0.6,0,1,0.5,1,1v5.6c0,0.6-0.5,1-1,1h-5.2c-0.6,0-1-0.5-1-1V350
	C118.5,349.4,119,348.9,119.5,348.9z"/>
<path class="st13" d="M119.5,363.1h5.2c0.6,0,1,0.5,1,1v5.6c0,0.6-0.5,1-1,1h-5.2c-0.6,0-1-0.5-1-1v-5.6
	C118.5,363.5,119,363.1,119.5,363.1z"/>
<path class="st2" d="M138.1,87.7h131.6c0.6,0,1,0.5,1,1v4.8c0,0.6-0.5,1-1,1H138.1c-0.6,0-1-0.5-1-1v-4.8
	C137.1,88.1,137.5,87.7,138.1,87.7z"/>
<path class="st11" d="M146.7,125.2h2.7c0.5,0,0.9,0.4,0.9,0.9v2.6c0,0.5-0.4,0.9-0.9,0.9h-2.7c-0.5,0-0.9-0.4-0.9-0.9v-2.6
	C145.7,125.6,146.2,125.2,146.7,125.2z"/>
<path class="st11" d="M152.7,125.2h9.9c0.5,0,0.9,0.4,0.9,0.9v2.6c0,0.5-0.4,0.9-0.9,0.9h-9.9c-0.5,0-0.9-0.4-0.9-0.9v-2.6
	C151.7,125.6,152.2,125.2,152.7,125.2z"/>
<rect x="177.9" y="332.8" class="st2" width="139.8" height="25.6"/>
<rect x="177.8" y="318.2" class="st19" width="140.1" height="11.6"/>
<rect x="180.5" y="321.7" class="st20" width="50.5" height="5.1"/>
<rect x="180.5" y="335.6" class="st20" width="50.5" height="5.1"/>
<rect x="180.5" y="349.3" class="st20" width="44.6" height="5.1"/>
<rect x="280.7" y="335.6" class="st20" width="34.1" height="5.1"/>
<rect x="280.7" y="349.1" class="st20" width="34.1" height="5.1"/>
<rect x="406.8" y="358.5" class="st20" width="187" height="2.6"/>
<rect x="580.6" y="201.5" class="st21" width="12.4" height="157"/>
<rect x="554.3" y="226.6" class="st22" width="12.4" height="131.9"/>
<rect x="528" y="222.1" class="st23" width="12.4" height="136.5"/>
<rect x="501.7" y="253.5" class="st24" width="12.4" height="105"/>
<rect x="475.4" y="270.6" class="st25" width="12.4" height="87.9"/>
<rect x="449.1" y="298.6" class="st17" width="12.4" height="59.9"/>
<rect x="422.8" y="308.9" class="st26" width="12.4" height="49.6"/>
<rect x="257.7" y="174.9" class="st2" width="238.4" height="6"/>
<rect x="305.4" y="184.6" class="st2" width="136.2" height="4.5"/>
<rect x="320.4" y="318.2" class="st19" width="45.9" height="11.6"/>
<rect x="346.2" y="335.6" class="st20" width="17.2" height="5.1"/>
<rect x="346.4" y="349.1" class="st20" width="17" height="5.1"/>
</svg>
