<?xml version="1.0" encoding="utf-8"?>
<!-- Generator: Adobe Illustrator 21.0.0, SVG Export Plug-In . SVG Version: 6.00 Build 0)  -->
<svg version="1.1" id="Layer_1" xmlns="http://www.w3.org/2000/svg" xmlns:xlink="http://www.w3.org/1999/xlink" x="0px" y="0px"
	 width="20px" height="18.6px" viewBox="0 0 20 18.6" style="enable-background:new 0 0 20 18.6;" xml:space="preserve">
<style type="text/css">
	.st0{fill:#039BE5;}
</style>
<g>
	<path class="st0" d="M10,1.1V0.8h0.3l0,0l0,0l0,0V0.6l0,0l0,0l0,0v0.1H10V0.2l0,0l0,0V0l0,0l0,0l0,0v0.1l0,0l0,0v0.6H9.7V0.6l0,0
		l0,0l0,0v0.2l0,0l0,0l0,0H10V1.1c-0.8,0-1.4,0.7-1.4,1.4h2.9C11.4,1.7,10.8,1.1,10,1.1z"/>
	<path class="st0" d="M8.1,3h3.7c0,0,0.1,0,0.1-0.1V2.8c0,0,0-0.1-0.1-0.1H8.1c0,0-0.1,0-0.1,0.1L8.1,3L8.1,3z"/>
	<path class="st0" d="M8.1,5.8h3.7c0,0,0.1,0,0.1-0.1V5.6c0,0,0-0.1-0.1-0.1H8.1c0,0-0.1,0-0.1,0.1L8.1,5.8L8.1,5.8z"/>
	<path class="st0" d="M8.9,3.2c-0.1,0-0.1,0-0.1,0.1v1.9c0,0.1,0,0.1,0.1,0.1h0.4c0.1,0,0.1,0,0.1-0.1V3.3c0-0.1,0-0.1-0.1-0.1H8.9z
		"/>
	<path class="st0" d="M9.8,3.2c-0.1,0-0.1,0-0.1,0.1v1.9c0,0.1,0,0.1,0.1,0.1h0.4c0.1,0,0.1,0,0.1-0.1V3.3c0-0.1,0-0.1-0.1-0.1H9.8z
		"/>
	<path class="st0" d="M10.8,3.2c-0.1,0-0.1,0-0.1,0.1v1.9c0,0.1,0,0.1,0.1,0.1h0.4c0.1,0,0.1,0,0.1-0.1V3.3c0-0.1,0-0.1-0.1-0.1
		H10.8z"/>
	<path class="st0" d="M7.3,6c-3.7,1.2-6.4,4.9-6.7,9.2H2C2.2,11,4.3,7.4,7.3,6z"/>
	<path class="st0" d="M18,15.2h1.4c-0.3-4.4-3-8-6.7-9.3C15.7,7.4,17.8,11,18,15.2z"/>
	<path class="st0" d="M3,15.2h2.4c0.1-4,1.3-7.4,3-8.8C5.5,7.5,3.3,10.9,3,15.2z"/>
	<path class="st0" d="M17,15.2c-0.3-4.3-2.5-7.8-5.3-8.8c1.7,1.4,2.9,4.8,3,8.8H17z"/>
	<path class="st0" d="M9.5,6.6c-1.8,1.4-3,4.7-3.1,8.6h3.1V6.6z"/>
	<path class="st0" d="M10.5,6.6v8.7h3.2C13.6,11.3,12.3,7.9,10.5,6.6z"/>
	<path class="st0" d="M6.3,17.7C6.4,17.7,6.4,17.6,6.3,17.7l0.1-1c0-0.1,0-0.1-0.1-0.1H5.4c-0.1,0-0.1,0-0.1,0.1v0.9
		c0,0.1,0,0.1,0.1,0.1H6.3z"/>
	<path class="st0" d="M2.9,17.7C3,17.7,3,17.6,2.9,17.7l0.1-1c0-0.1,0-0.1-0.1-0.1H2c-0.1,0-0.1,0-0.1,0.1v0.9c0,0.1,0,0.1,0.1,0.1
		H2.9z"/>
	<path class="st0" d="M19.9,16H18v-0.3c0-0.1,0-0.1-0.1-0.1H17c-0.1,0-0.1,0-0.1,0.1V16h-2.3v-0.3c0-0.1,0-0.1-0.1-0.1h-0.9
		c-0.1,0-0.1,0-0.1,0.1V16h-3.1v-0.3c0-0.1,0-0.1-0.1-0.1l0,0H9.6l0,0c-0.1,0-0.1,0-0.1,0.1V16H6.4v-0.3l0,0c0-0.1,0-0.1-0.1-0.1
		H5.4c-0.1,0-0.1,0-0.1,0.1V16H3v-0.3l0,0c0-0.1,0-0.1-0.1-0.1H2c-0.1,0-0.1,0-0.1,0.1V16H0.1C0,16,0,16,0,16v0.2c0,0,0,0.1,0.1,0.1
		H10l0,0h9.9c0,0,0.1,0,0.1-0.1L19.9,16C20,16,20,16,19.9,16z"/>
	<path class="st0" d="M19.9,17.9H10l0,0H0.1C0,17.9,0,18,0,18v0.6c0,0,0,0.1,0.1,0.1H10l0,0h9.9c0,0,0.1,0,0.1-0.1L19.9,17.9
		C20,18,20,17.9,19.9,17.9z"/>
	<path class="st0" d="M14.6,17.7C14.6,17.7,14.7,17.6,14.6,17.7l0.1-1c0-0.1,0-0.1-0.1-0.1h-0.9c-0.1,0-0.1,0-0.1,0.1v0.9
		c0,0.1,0,0.1,0.1,0.1H14.6z"/>
	<path class="st0" d="M10.4,17.7C10.5,17.7,10.5,17.6,10.4,17.7l0.1-1c0,0,0-0.1-0.1-0.1l0,0H9.6l0,0c0,0-0.1,0-0.1,0.1v0.9
		c0,0.1,0,0.1,0.1,0.1H10.4z"/>
	<path class="st0" d="M18,17.7C18,17.7,18.1,17.6,18,17.7l0.1-1c0-0.1,0-0.1-0.1-0.1h-0.9c-0.1,0-0.1,0-0.1,0.1v0.9
		c0,0.1,0,0.1,0.1,0.1H18z"/>
</g>
</svg>
