<?xml version="1.0" encoding="utf-8"?>
<!-- Generator: Adobe Illustrator 21.0.0, SVG Export Plug-In . SVG Version: 6.00 Build 0)  -->
<svg version="1.1" id="Layer_1" xmlns="http://www.w3.org/2000/svg" xmlns:xlink="http://www.w3.org/1999/xlink" x="0px" y="0px"
	 width="100px" height="100px" viewBox="0 0 100 100" style="enable-background:new 0 0 100 100;" xml:space="preserve">
<style type="text/css">
	.st0{fill:#EF4036;}
	.st1{fill:#D6D6D7;}
	.st2{fill:#FFFFFF;}
</style>
<path class="st0" d="M66.1,15.7V0.1H14.3c-1.6,0-2.9,1.3-2.9,2.9v94.1c0,1.6,1.3,2.9,2.9,2.9h71.5c1.6,0,2.9-1.3,2.9-2.9V18.7H69
	C67.4,18.7,66.1,17.4,66.1,15.7z"/>
<path class="st1" d="M66.1,0.1v15.7c0,1.6,1.3,2.9,2.9,2.9h19.7v-0.5L66.1,0.1L66.1,0.1z"/>
<g>
	<path class="st2" d="M34.3,46.1c0.9-0.2,2.2-0.3,3.7-0.3c1.9,0,3.3,0.4,4.2,1.2c0.8,0.7,1.3,1.8,1.3,3.1c0,1.4-0.4,2.4-1.2,3.2
		c-1,1.1-2.7,1.6-4.6,1.6c-0.6,0-1.1,0-1.6-0.1v6h-1.9V46.1z M36.2,53.3c0.4,0.1,1,0.2,1.6,0.2c2.3,0,3.8-1.1,3.8-3.2
		c0-2-1.4-2.9-3.5-2.9c-0.8,0-1.5,0.1-1.8,0.2V53.3z"/>
	<path class="st2" d="M46.1,46.1c1.2-0.2,2.6-0.3,4.1-0.3c2.8,0,4.8,0.6,6.1,1.9c1.3,1.2,2.1,3,2.1,5.4c0,2.4-0.8,4.4-2.2,5.8
		c-1.4,1.4-3.7,2.2-6.6,2.2c-1.4,0-2.5-0.1-3.5-0.2V46.1z M48,59.3c0.5,0.1,1.2,0.1,2,0.1c4.1,0,6.4-2.3,6.4-6.4
		c0-3.5-2-5.8-6.1-5.8c-1,0-1.8,0.1-2.3,0.2V59.3z"/>
	<path class="st2" d="M60.9,45.9H69v1.6h-6.1v5h5.7v1.6h-5.7v6.8h-1.9V45.9z"/>
</g>
</svg>
