<?xml version="1.0" encoding="utf-8"?>
<!-- Generator: Adobe Illustrator 21.0.0, SVG Export Plug-In . SVG Version: 6.00 Build 0)  -->
<svg version="1.1" id="Layer_1" xmlns="http://www.w3.org/2000/svg" xmlns:xlink="http://www.w3.org/1999/xlink" x="0px" y="0px"
	 width="100px" height="100px" viewBox="0 0 100 100" style="enable-background:new 0 0 100 100;" xml:space="preserve">
<style type="text/css">
	.st0{fill:#8AC524;}
	.st1{fill:#D6D6D7;}
	.st2{fill:#FFFFFF;}
</style>
<path class="st0" d="M66.1,15.7V0.1H14.3c-1.6,0-2.9,1.3-2.9,2.9v94.1c0,1.6,1.3,2.9,2.9,2.9h71.5c1.6,0,2.9-1.3,2.9-2.9V18.7H69
	C67.4,18.7,66.1,17.4,66.1,15.7z"/>
<path class="st1" d="M66.1,0.1v15.7c0,1.6,1.3,2.9,2.9,2.9h19.7v-0.5L66.1,0.1L66.1,0.1z"/>
<g>
	<path class="st2" d="M44.1,60.4c-0.7,0.4-2.1,0.7-4,0.7c-4.2,0-7.4-2.7-7.4-7.6c0-4.7,3.2-7.9,7.8-7.9c1.9,0,3,0.4,3.6,0.7
		l-0.5,1.6c-0.7-0.4-1.8-0.6-3-0.6c-3.5,0-5.8,2.2-5.8,6.2c0,3.7,2.1,6,5.8,6c1.2,0,2.4-0.2,3.2-0.6L44.1,60.4z"/>
	<path class="st2" d="M46.2,58.5c0.9,0.5,2.1,1,3.5,1c2,0,3.1-1,3.1-2.6c0-1.4-0.8-2.2-2.8-3c-2.4-0.9-4-2.1-4-4.2
		c0-2.3,1.9-4.1,4.8-4.1c1.5,0,2.6,0.4,3.3,0.7L53.7,48c-0.5-0.3-1.5-0.7-2.8-0.7c-2,0-2.8,1.2-2.8,2.2c0,1.4,0.9,2.1,3,2.9
		c2.5,1,3.8,2.2,3.8,4.4c0,2.3-1.7,4.3-5.2,4.3c-1.4,0-3-0.4-3.8-1L46.2,58.5z"/>
	<path class="st2" d="M60.7,60.9l-4.9-15h2.1l2.3,7.4c0.6,2,1.2,3.8,1.6,5.6h0c0.4-1.7,1-3.6,1.7-5.6l2.5-7.4h2.1l-5.4,15H60.7z"/>
</g>
</svg>
