<?xml version="1.0" encoding="utf-8"?>
<!-- Generator: Adobe Illustrator 21.0.0, SVG Export Plug-In . SVG Version: 6.00 Build 0)  -->
<svg version="1.1" id="Layer_1" xmlns="http://www.w3.org/2000/svg" xmlns:xlink="http://www.w3.org/1999/xlink" x="0px" y="0px"
	 width="100px" height="100px" viewBox="0 0 100 100" style="enable-background:new 0 0 100 100;" xml:space="preserve">
<style type="text/css">
	.st0{fill:#14A085;}
	.st1{fill:#D6D6D7;}
	.st2{fill:#FFFFFF;}
</style>
<path class="st0" d="M66.1,15.7V0.1H14.3c-1.6,0-2.9,1.3-2.9,2.9v94.1c0,1.6,1.3,2.9,2.9,2.9h71.5c1.6,0,2.9-1.3,2.9-2.9V18.7H69
	C67.4,18.7,66.1,17.4,66.1,15.7z"/>
<path class="st1" d="M66.1,0.1v15.7c0,1.6,1.3,2.9,2.9,2.9h19.7v-0.5L66.1,0.1L66.1,0.1z"/>
<g>
	<path class="st2" d="M37.6,45.9h1.9v10c0,4-2,5.2-4.5,5.2c-0.7,0-1.6-0.2-2.1-0.4l0.3-1.6c0.4,0.2,1,0.3,1.6,0.3
		c1.7,0,2.8-0.8,2.8-3.7V45.9z"/>
	<path class="st2" d="M42.7,46.1c0.9-0.2,2.2-0.3,3.7-0.3c1.9,0,3.3,0.4,4.2,1.2c0.8,0.7,1.3,1.8,1.3,3.1c0,1.4-0.4,2.4-1.2,3.2
		c-1,1.1-2.7,1.6-4.6,1.6c-0.6,0-1.1,0-1.6-0.1v6h-1.9V46.1z M44.7,53.3c0.4,0.1,1,0.2,1.6,0.2c2.3,0,3.8-1.1,3.8-3.2
		c0-2-1.4-2.9-3.5-2.9c-0.8,0-1.5,0.1-1.8,0.2V53.3z"/>
	<path class="st2" d="M66,60.2c-0.9,0.3-2.6,0.8-4.6,0.8c-2.3,0-4.1-0.6-5.6-2c-1.3-1.2-2.1-3.2-2.1-5.6c0-4.5,3.1-7.7,8.1-7.7
		c1.7,0,3.1,0.4,3.7,0.7L65,48c-0.8-0.4-1.8-0.6-3.3-0.6c-3.6,0-6,2.3-6,6c0,3.8,2.3,6,5.8,6c1.3,0,2.1-0.2,2.6-0.4v-4.5h-3V53H66
		V60.2z"/>
</g>
</svg>
