<?xml version="1.0" encoding="utf-8"?>
<!-- Generator: Adobe Illustrator 21.0.0, SVG Export Plug-In . SVG Version: 6.00 Build 0)  -->
<svg version="1.1" id="Layer_1" xmlns="http://www.w3.org/2000/svg" xmlns:xlink="http://www.w3.org/1999/xlink" x="0px" y="0px"
	 width="100px" height="100px" viewBox="0 0 100 100" style="enable-background:new 0 0 100 100;" xml:space="preserve">
<style type="text/css">
	.st0{fill:#1D6F42;}
	.st1{fill:#D6D6D7;}
	.st2{fill:#FFFFFF;}
</style>
<path class="st0" d="M66.1,15.7V0.1H14.3c-1.6,0-2.9,1.3-2.9,2.9v94.1c0,1.6,1.3,2.9,2.9,2.9h71.5c1.6,0,2.9-1.3,2.9-2.9V18.7H69
	C67.4,18.7,66.1,17.4,66.1,15.7z"/>
<path class="st1" d="M66.1,0.1v15.7c0,1.6,1.3,2.9,2.9,2.9h19.7v-0.5L66.1,0.1L66.1,0.1z"/>
<g>
	<path class="st2" d="M42.9,60.9l-1.9-3.3c-0.8-1.3-1.3-2.1-1.7-3h0c-0.4,0.9-0.8,1.7-1.6,3l-1.8,3.3h-2.2l4.6-7.6l-4.4-7.4h2.2
		l2,3.5c0.6,1,1,1.7,1.4,2.5h0.1c0.4-0.9,0.8-1.6,1.4-2.5l2-3.5H45l-4.6,7.3l4.7,7.7H42.9z"/>
	<path class="st2" d="M47.3,45.9h1.9v13.4h6.4v1.6h-8.3V45.9z"/>
	<path class="st2" d="M57.6,58.5c0.9,0.5,2.1,1,3.5,1c2,0,3.1-1,3.1-2.6c0-1.4-0.8-2.2-2.8-3c-2.4-0.9-4-2.1-4-4.2
		c0-2.3,1.9-4.1,4.8-4.1c1.5,0,2.6,0.4,3.3,0.7L65,48c-0.5-0.3-1.5-0.7-2.8-0.7c-2,0-2.8,1.2-2.8,2.2c0,1.4,0.9,2.1,3,2.9
		c2.5,1,3.8,2.2,3.8,4.4c0,2.3-1.7,4.3-5.2,4.3c-1.4,0-3-0.4-3.8-1L57.6,58.5z"/>
</g>
</svg>
