<?xml version="1.0" encoding="utf-8"?>
<!-- Generator: Adobe Illustrator 21.0.0, SVG Export Plug-In . SVG Version: 6.00 Build 0)  -->
<svg version="1.1" id="Layer_1" xmlns="http://www.w3.org/2000/svg" xmlns:xlink="http://www.w3.org/1999/xlink" x="0px" y="0px"
	 viewBox="0 0 1080 1080" style="enable-background:new 0 0 1080 1080;" xml:space="preserve">
<style type="text/css">
	.st0{fill:#ADB5BD;}
</style>
<path class="st0" d="M459.2,83.9l53.5-53.5c22.7-22.7,59.3-22.7,81.7,0L1063,498.7c22.7,22.7,22.7,59.3,0,81.7L594.4,1049
	c-22.7,22.7-59.3,22.7-81.7,0l-53.5-53.5c-22.9-22.9-22.4-60.3,1-82.7l290.5-276.7H57.9C25.8,636.1,0,610.3,0,578.2v-77.1
	c0-32.1,25.8-57.9,57.9-57.9h692.8L460.2,166.5C436.5,144.1,436,106.8,459.2,83.9z"/>
</svg>
