<?xml version="1.0" encoding="utf-8"?>
<!-- Generator: Adobe Illustrator 21.0.0, SVG Export Plug-In . SVG Version: 6.00 Build 0)  -->
<svg version="1.1" id="Layer_1" xmlns="http://www.w3.org/2000/svg" xmlns:xlink="http://www.w3.org/1999/xlink" x="0px" y="0px"
	 viewBox="0 0 512 512" style="enable-background:new 0 0 512 512;" xml:space="preserve">
<style type="text/css">
	.st0{fill:none;}
	.st1{fill:#FFFFFF;}
	.st2{fill:#ED232A;}
</style>
<g>
	<rect x="0.8" y="0.8" class="st0" width="510.4" height="510.4"/>
	<g>
		<g>
			<path class="st1" d="M235.3,121.8h43.6c0.4,0,0.7-0.3,0.7-0.7v-1.7c0-0.4-0.3-0.7-0.7-0.7h-43.6c-0.4,0-0.7,0.3-0.7,0.7v1.7
				C234.5,121.5,234.9,121.8,235.3,121.8z"/>
			<path class="st1" d="M266,90.7c-0.7,0-1.3,0.6-1.3,1.3v22.7c0,0.7,0.6,1.3,1.3,1.3h4.2c0.7,0,1.3-0.6,1.3-1.3V92
				c0-0.7-0.6-1.3-1.3-1.3H266z"/>
			<path class="st1" d="M255,90.7c-0.7,0-1.3,0.6-1.3,1.3v22.7c0,0.7,0.6,1.3,1.3,1.3h4.2c0.7,0,1.3-0.6,1.3-1.3V92
				c0-0.7-0.6-1.3-1.3-1.3H255z"/>
			<path class="st1" d="M243.9,90.7c-0.7,0-1.3,0.6-1.3,1.3v22.7c0,0.7,0.6,1.3,1.3,1.3h4.2c0.7,0,1.3-0.6,1.3-1.3V92
				c0-0.7-0.6-1.3-1.3-1.3H243.9z"/>
			<path class="st1" d="M263.3,131.3c-0.2-0.1-0.5-0.4-0.5-0.4l0,101.9l37.4,0.1c0,0,0-1.1,0-1.6
				C300.2,187.9,285.2,150.2,263.3,131.3z"/>
			<path class="st1" d="M340.3,232.5c-0.2-1.8-0.4-3.6-0.6-5.3c-1-10.3-3.5-24.1-9.1-38c-1.6-3.9-3.4-7.8-5.5-11.6
				c-0.5-1-1.1-1.9-1.7-2.8c-11.5-21.3-27.9-37.6-47-45.9c0,0,0,0,0,0c0,0-0.1,0-0.1,0l0.1,0.2c0,0,5.5,5.3,10.3,12.9
				c12,18.7,20.2,40.6,23,67.7c1.2,11.2,1.1,20.1,1,17.9c0.1,1.6,0.1,4.2,0.1,5.1l-0.1,0.3l2.5,0l26.7-0.1c0,0,0,0,0,0l0.1,0
				C340.3,232.7,340.3,232.6,340.3,232.5z"/>
			<path class="st1" d="M235.3,88.8h43.6c0.4,0,0.7-0.3,0.7-0.7v-1.7c0-0.4-0.3-0.7-0.7-0.7h-43.6c-0.4,0-0.7,0.3-0.7,0.7v1.7
				C234.5,88.5,234.9,88.8,235.3,88.8z"/>
			<path class="st1" d="M298.7,129.2c1.4,1.1,3.1,2.3,4.9,3.8c4.2,3.4,7.7,7,10.8,10.3c10.4,10.9,16.1,21.3,21.7,32.4
				c3.1,6.2,5.1,11.9,6.9,17c0.3,1,3.2,8.8,5,17.8c2.1,10.5,3.2,22.3,3.2,22.3l16.2,0c0,0,0-0.1,0-0.3l0.6,0.2c0,0,0-0.1,0-0.1
				c-1.8-48.7-32.4-90-75.3-107.4c-0.1,0-0.2-0.1-0.2-0.1s1.6,0.8,3.6,2.2C296.8,127.9,297.7,128.5,298.7,129.2z"/>
			<path class="st1" d="M274,83.4c-0.1-9.6-7.5-17.3-16.6-17.5v-2.8h4.6v-0.5c0,0,0,0,0,0v-1.7c0-0.1-0.1-0.2-0.2-0.2h-0.7
				c-0.1,0-0.2,0.1-0.2,0.2v1.7h-3.6v-6.5h0.1c0.1,0,0.2-0.1,0.2-0.2v-1.8c0-0.1-0.1-0.2-0.2-0.2h-0.8c-0.1,0-0.2,0.1-0.2,0.2v1.8
				c0,0.1,0.1,0.2,0.2,0.2h0.1v6.5h-3.7v-1.7c0-0.1-0.1-0.2-0.2-0.2h-0.7c-0.1,0-0.2,0.1-0.2,0.2v1.7c0,0,0,0,0,0v0.5h4.6V66
				c-9.2,0.2-16.5,7.9-16.6,17.5c0,0,0,0.1,0,0.1H274C274,83.6,274,83.5,274,83.4z"/>
			<path class="st1" d="M227.4,141.9c4.9-7.6,10.3-12.9,10.3-12.9l0.1-0.2c0,0,0,0-0.1,0c0,0,0,0,0,0c-19.1,8.3-35.5,24.6-47,45.9
				c-0.6,0.9-1.1,1.8-1.6,2.8c-2.1,3.8-3.9,7.7-5.5,11.6c-5.6,13.8-8.1,27.7-9.1,37.9c-0.2,1.8-0.4,3.6-0.6,5.4c0,0.1,0,0.3,0,0.3
				l0.1,0c0,0,0,0,0,0l26.7,0.1l2.5,0l-0.1-0.3c0-0.9,0.1-3.5,0.1-5.1c-0.1,2.2-0.1-6.6,1-17.9C207.2,182.6,215.4,160.7,227.4,141.9
				z"/>
			<path class="st1" d="M310.5,260.9c0.7,0,1.3-0.6,1.3-1.3v-9.9c0-0.7-0.6-1.3-1.3-1.3h-9.9c-0.7,0-1.3,0.6-1.3,1.3v9.9
				c0,0.7,0.6,1.3,1.3,1.3H310.5z"/>
			<path class="st1" d="M350.4,260.9c0.7,0,1.3-0.6,1.3-1.3v-9.9c0-0.7-0.6-1.3-1.3-1.3h-9.9c-0.7,0-1.3,0.6-1.3,1.3v9.9
				c0,0.7,0.6,1.3,1.3,1.3H350.4z"/>
			<path class="st1" d="M373.7,241.1h-0.6c0,0,0,0,0,0h-21.4v-3.7c0-0.6-0.5-1.1-1.1-1.1h-10.3c-0.6,0-1.1,0.5-1.1,1.1v3.7h-27.4
				v-3.7c0-0.6-0.5-1.1-1.1-1.1h-10.3c-0.6,0-1.1,0.5-1.1,1.1v3.7h-35.9v-3.7c0-0.6-0.5-1.1-1.1-1.1H252c-0.6,0-1.1,0.5-1.1,1.1v3.7
				H215v-3.7c0-0.6-0.5-1.1-1.1-1.1h-10.3c-0.6,0-1.1,0.5-1.1,1.1v3.7h-27.4v-3.7c0-0.6-0.5-1.1-1.1-1.1h-10.3
				c-0.6,0-1.1,0.5-1.1,1.1v3.7h-21.3c0,0,0,0,0,0h-0.6c-0.4,0-0.7,0.3-0.7,0.7v2c0,0.4,0.3,0.7,0.7,0.7l233.1,0
				c0.4,0,0.7-0.3,0.7-0.7v-0.6v-0.8v-0.6C374.4,241.4,374.1,241.1,373.7,241.1z"/>
			<path class="st1" d="M262.1,260.9c0.7,0,1.3-0.6,1.3-1.3v-9.9c0-0.7-0.6-1.3-1.3-1.3h-9.9c-0.7,0-1.3,0.6-1.3,1.3v9.9
				c0,0.7,0.6,1.3,1.3,1.3H262.1z"/>
			<path class="st1" d="M213.7,260.9c0.7,0,1.3-0.6,1.3-1.3v-9.9c0-0.7-0.6-1.3-1.3-1.3h-9.9c-0.7,0-1.3,0.6-1.3,1.3v9.9
				c0,0.7,0.6,1.3,1.3,1.3H213.7z"/>
			<path class="st1" d="M251.5,232.8l0-101.9c0,0-0.3,0.3-0.5,0.4c-21.9,18.9-36.9,56.6-36.9,100.1c0,0.5,0,1.6,0,1.6L251.5,232.8z"
				/>
			<path class="st1" d="M147,232.8l6.2,0l5.5,0l0,0l4.4,0c0,0,1.1-11.8,3.2-22.3c1.8-9,4.6-16.9,5-17.8c1.8-5.1,3.8-10.8,6.9-17
				c5.6-11.1,11.4-21.5,21.7-32.4c3.2-3.3,6.7-6.9,10.8-10.3c1.8-1.5,3.4-2.7,4.9-3.8c0.9-0.6,1.8-1.3,2.6-1.8
				c2-1.3,3.6-2.2,3.6-2.2s-0.1,0-0.2,0.1c-42.9,17.3-73.5,58.7-75.3,107.4c0,0,0,0.1,0,0.1L147,232.8
				C147,232.8,147,232.8,147,232.8z"/>
			<path class="st1" d="M373.1,263.8H141.2c-0.7,0-1.3,0.6-1.3,1.3v5.5c0,0.7,0.6,1.3,1.3,1.3h231.9c0.7,0,1.3-0.6,1.3-1.3v-5.5
				C374.4,264.4,373.9,263.8,373.1,263.8z"/>
			<path class="st1" d="M173.8,260.9c0.7,0,1.3-0.6,1.3-1.3v-9.9c0-0.7-0.6-1.3-1.3-1.3h-9.9c-0.7,0-1.3,0.6-1.3,1.3v9.9
				c0,0.7,0.6,1.3,1.3,1.3H173.8z"/>
		</g>
		<rect x="139.6" y="376.9" class="st2" width="235.2" height="10.1"/>
		<path class="st1" d="M150.9,308.6c-1.1,0.5-2.3,0.7-3.6,0.7c-1.2,0-2.3-0.2-3.3-0.6c-1-0.4-1.8-1-2.5-1.7
			c-0.7-0.7-1.2-1.6-1.6-2.6c-0.4-1-0.5-2-0.5-3.2c0-1.1,0.2-2.1,0.6-3.1c0.4-1,0.9-1.8,1.6-2.6c0.7-0.7,1.5-1.3,2.5-1.8
			c1-0.4,2-0.7,3.2-0.7c0.7,0,1.3,0,1.8,0.1c0.5,0.1,1.1,0.2,1.5,0.4c0.5,0.2,0.9,0.4,1.3,0.7c0.4,0.3,0.8,0.6,1.2,0.9l-1.1,1.3
			c-0.3-0.3-0.6-0.5-0.9-0.7c-0.3-0.2-0.7-0.4-1.1-0.6c-0.4-0.2-0.8-0.3-1.3-0.4s-1-0.1-1.5-0.1c-0.9,0-1.7,0.2-2.4,0.5
			c-0.7,0.3-1.4,0.8-1.9,1.4c-0.5,0.6-0.9,1.3-1.2,2.1c-0.3,0.8-0.4,1.6-0.4,2.5c0,0.9,0.1,1.8,0.4,2.6c0.3,0.8,0.7,1.5,1.2,2.1
			c0.5,0.6,1.2,1,1.9,1.4c0.8,0.3,1.6,0.5,2.6,0.5c0.9,0,1.7-0.2,2.5-0.5c0.8-0.3,1.5-0.7,2-1.1v-3.9h-4.8v-1.6h6.5v6.2
			C152.8,307.6,151.9,308.2,150.9,308.6z"/>
		<path class="st1" d="M174.8,304.3c-0.4,1-0.9,1.8-1.6,2.6c-0.7,0.7-1.5,1.3-2.5,1.8s-2.1,0.7-3.3,0.7c-1.2,0-2.3-0.2-3.3-0.6
			c-1-0.4-1.8-1-2.5-1.8c-0.7-0.7-1.2-1.6-1.6-2.6c-0.4-1-0.6-2-0.6-3.1s0.2-2.1,0.6-3.1c0.4-1,0.9-1.8,1.6-2.6
			c0.7-0.7,1.5-1.3,2.5-1.8c1-0.4,2.1-0.7,3.3-0.7c1.2,0,2.3,0.2,3.3,0.6c1,0.4,1.8,1,2.5,1.8c0.7,0.7,1.2,1.6,1.6,2.6
			c0.4,1,0.6,2,0.6,3.1S175.2,303.3,174.8,304.3z M173.1,298.7c-0.3-0.8-0.7-1.5-1.3-2.1c-0.6-0.6-1.2-1-2-1.4
			c-0.8-0.3-1.6-0.5-2.5-0.5c-0.9,0-1.7,0.2-2.5,0.5c-0.8,0.3-1.4,0.8-1.9,1.4c-0.5,0.6-1,1.3-1.3,2s-0.5,1.6-0.5,2.5
			c0,0.9,0.2,1.7,0.5,2.5s0.7,1.5,1.3,2.1c0.6,0.6,1.2,1,2,1.4s1.6,0.5,2.5,0.5c0.9,0,1.7-0.2,2.5-0.5c0.8-0.3,1.4-0.8,1.9-1.4
			c0.5-0.6,1-1.3,1.3-2c0.3-0.8,0.5-1.6,0.5-2.5C173.5,300.4,173.4,299.5,173.1,298.7z"/>
		<path class="st1" d="M190.4,293.7c0.6,0.2,1.2,0.4,1.6,0.8c0.4,0.3,0.8,0.7,1,1.2c0.2,0.5,0.4,1,0.4,1.6c0,0.5-0.1,1-0.2,1.4
			c-0.1,0.4-0.3,0.7-0.6,1s-0.5,0.5-0.8,0.7c-0.3,0.2-0.6,0.4-0.9,0.5c0.5,0.1,0.9,0.3,1.3,0.5c0.4,0.2,0.8,0.5,1.1,0.8
			c0.3,0.3,0.5,0.7,0.7,1.1c0.2,0.4,0.3,0.9,0.3,1.4c0,0.7-0.1,1.3-0.4,1.8c-0.3,0.5-0.7,1-1.1,1.4c-0.5,0.4-1.1,0.6-1.8,0.8
			c-0.7,0.2-1.5,0.3-2.3,0.3h-6.9v-15.7h6.7C189.1,293.4,189.8,293.5,190.4,293.7z M190.6,299.7c0.7-0.5,1-1.2,1-2.1
			c0-0.8-0.3-1.4-0.9-1.9c-0.6-0.5-1.4-0.7-2.6-0.7h-4.7v5.4h4.6C189.1,300.4,189.9,300.1,190.6,299.7z M191.5,306.7
			c0.7-0.5,1-1.2,1-2.1c0-0.9-0.3-1.5-1-2c-0.7-0.5-1.7-0.7-3.1-0.7h-4.9v5.5h5.2C189.8,307.5,190.8,307.2,191.5,306.7z"/>
		<path class="st1" d="M202.3,293.4v15.7h-1.8v-15.7H202.3z"/>
		<path class="st1" d="M220.7,295h-9.5v5.3h8.5v1.6h-8.5v5.5h9.7v1.6h-11.4v-15.7h11.3V295z"/>
		<path class="st1" d="M237.7,309.1l-4.5-6.1h-4.5v6.1h-1.8v-15.7h6.7c0.9,0,1.6,0.1,2.3,0.3c0.7,0.2,1.3,0.5,1.8,1
			c0.5,0.4,0.9,0.9,1.1,1.5c0.3,0.6,0.4,1.2,0.4,1.9c0,0.7-0.1,1.2-0.3,1.8c-0.2,0.5-0.5,1-0.9,1.3s-0.8,0.7-1.4,0.9
			c-0.5,0.3-1.1,0.4-1.7,0.5l4.8,6.4H237.7z M236.5,295.9c-0.7-0.5-1.7-0.8-3-0.8h-4.8v6.4h4.8c0.6,0,1.1-0.1,1.6-0.2
			c0.5-0.2,0.9-0.4,1.3-0.6c0.4-0.3,0.6-0.6,0.8-1c0.2-0.4,0.3-0.9,0.3-1.4C237.5,297.2,237.2,296.4,236.5,295.9z"/>
		<path class="st1" d="M257.1,293.4h1.7v15.7h-1.4l-10.1-12.8v12.8h-1.7v-15.7h1.7l9.9,12.5V293.4z"/>
		<path class="st1" d="M280.5,304.3c-0.4,1-0.9,1.8-1.6,2.6c-0.7,0.7-1.5,1.3-2.5,1.8c-1,0.4-2.1,0.7-3.3,0.7
			c-1.2,0-2.3-0.2-3.3-0.6c-1-0.4-1.8-1-2.5-1.8c-0.7-0.7-1.2-1.6-1.6-2.6c-0.4-1-0.6-2-0.6-3.1s0.2-2.1,0.6-3.1
			c0.4-1,0.9-1.8,1.6-2.6c0.7-0.7,1.5-1.3,2.5-1.8c1-0.4,2.1-0.7,3.3-0.7c1.2,0,2.3,0.2,3.3,0.6c1,0.4,1.8,1,2.5,1.8
			c0.7,0.7,1.2,1.6,1.6,2.6c0.4,1,0.6,2,0.6,3.1S280.9,303.3,280.5,304.3z M278.8,298.7c-0.3-0.8-0.7-1.5-1.3-2.1
			c-0.6-0.6-1.2-1-2-1.4c-0.8-0.3-1.6-0.5-2.5-0.5c-0.9,0-1.7,0.2-2.5,0.5c-0.8,0.3-1.4,0.8-1.9,1.4c-0.5,0.6-1,1.3-1.3,2
			s-0.5,1.6-0.5,2.5c0,0.9,0.2,1.7,0.5,2.5s0.7,1.5,1.3,2.1c0.6,0.6,1.2,1,2,1.4c0.8,0.3,1.6,0.5,2.5,0.5c0.9,0,1.7-0.2,2.5-0.5
			c0.8-0.3,1.4-0.8,1.9-1.4c0.5-0.6,1-1.3,1.3-2s0.5-1.6,0.5-2.5C279.2,300.4,279.1,299.5,278.8,298.7z"/>
		<path class="st1" d="M309.8,304.3c-0.4,1-1,1.8-1.7,2.5c-0.7,0.7-1.6,1.3-2.6,1.7c-1,0.4-2.1,0.6-3.4,0.6h-5.4v-15.7h5.4
			c1.2,0,2.3,0.2,3.4,0.6c1,0.4,1.9,0.9,2.6,1.6c0.7,0.7,1.3,1.5,1.7,2.5c0.4,1,0.6,2,0.6,3.1C310.4,302.3,310.2,303.3,309.8,304.3z
			 M308.1,298.8c-0.3-0.8-0.7-1.4-1.3-2c-0.6-0.6-1.2-1-2-1.3c-0.8-0.3-1.7-0.5-2.7-0.5h-3.7v12.4h3.7c1,0,1.9-0.2,2.7-0.5
			c0.8-0.3,1.5-0.7,2-1.3c0.6-0.6,1-1.2,1.3-2s0.5-1.6,0.5-2.4C308.5,300.4,308.4,299.6,308.1,298.8z"/>
		<path class="st1" d="M328,295h-9.5v5.3h8.5v1.6h-8.5v5.5h9.7v1.6h-11.4v-15.7H328V295z"/>
		<path class="st1" d="M343.4,293.4h1.8v14h8.8v1.6h-10.6V293.4z"/>
		<path class="st1" d="M374.4,309.1h-1.9l-1.8-4.1h-8.5l-1.9,4.1h-1.8l7.1-15.8h1.7L374.4,309.1z M366.4,295.4l-3.6,8h7.1
			L366.4,295.4z"/>
		<path class="st1" d="M25.7,344.3c0.1,0,0.2,0.1,0.2,0.4c0,0.3-0.1,0.4-0.2,0.5c-0.7,0.2-1.5,0.3-2.2,0.3c-0.8,0-1.5-0.1-2.4-0.5
			c-0.8-0.4-1.6-1-2.2-1.8l-5-6.4c-0.6-0.8-1.4-1.4-2.2-1.7c-0.8-0.3-1.8-0.4-3.1-0.4v6.3c0,1,0.3,1.7,0.9,2.1s1.5,0.6,2.7,0.8
			c0.1,0,0.1,0.1,0.1,0.3c0,0.2,0,0.4-0.1,0.6c0,0.2-0.1,0.3-0.2,0.3H2.2c-0.1,0-0.2-0.1-0.2-0.3c-0.1-0.2-0.1-0.4-0.1-0.6
			c0-0.2,0-0.3,0.1-0.3c0.9-0.1,1.5-0.4,2-0.8c0.5-0.4,0.7-1.1,0.7-2.1v-14.4c0-1-0.2-1.7-0.7-2.2c-0.5-0.4-1.1-0.8-2-1
			c-0.1,0-0.2-0.3-0.1-0.6c0-0.4,0.1-0.5,0.3-0.5c1,0.1,2.3,0.2,3.7,0.2c0.9,0,2,0,3.4-0.1c1.4-0.1,2.3-0.1,2.8-0.1
			c2.5,0,4.5,0.5,6,1.5c1.5,1,2.2,2.5,2.2,4.5c0,1.8-0.6,3.1-1.7,4.1c-1.2,1-2.5,1.5-4,1.6v0.2c0.6,0,1.2,0.2,1.8,0.5
			c0.5,0.3,1.2,0.9,1.9,1.8l4.8,6C23.9,343.7,24.8,344.2,25.7,344.3L25.7,344.3z M9.5,333.3c2.5,0,4.2-0.3,5.2-0.9
			c1-0.6,1.5-1.6,1.5-3.2c0-1.7-0.5-2.9-1.4-3.8c-0.9-0.9-2.1-1.3-3.6-1.3c-0.9,0-1.6,0.2-2,0.6c-0.4,0.4-0.6,1.1-0.6,2v6.7
			L9.5,333.3L9.5,333.3z"/>
		<path class="st1" d="M31,345.1c-0.1,0-0.2-0.2-0.3-0.5c-0.1-0.4,0-0.6,0.1-0.6c0.6-0.2,1.1-0.3,1.4-0.4c0.3-0.1,0.6-0.2,1-0.5
			c0.4-0.2,0.7-0.5,0.8-0.9c0.1-0.4,0.2-0.8,0.2-1.4v-14.4c0-0.9-0.2-1.6-0.7-2c-0.5-0.4-1.1-0.7-2-0.9c-0.1,0-0.2-0.2-0.1-0.6
			s0.1-0.5,0.3-0.5c1.2,0.1,4,0.2,8.4,0.2c0.9,0,1.7,0,2.6,0c0.9,0,1.8-0.1,2.8-0.1c1,0,1.8-0.1,2.4-0.1c0.4,0,0.6,0.1,0.7,0.3
			c0.1,0.2,0.1,0.5,0,0.9l-0.8,3.1c0,0.2-0.2,0.3-0.5,0.3c-0.3,0-0.5-0.1-0.5-0.3c-0.3-0.9-0.8-1.5-1.5-1.9c-0.8-0.4-2.1-0.6-4-0.6
			c-1.1,0-1.9,0.2-2.3,0.5c-0.4,0.3-0.7,0.9-0.7,1.8v5.3c0,0.4,0.1,0.7,0.3,0.8c0.2,0.1,0.4,0.2,0.8,0.2h0.7c3.1,0,5.1-0.5,6.2-1.5
			c0.2-0.2,0.4-0.2,0.6-0.1c0.2,0.1,0.3,0.3,0.1,0.6l-1.8,4.1c-0.1,0.3-0.3,0.4-0.5,0.4c-0.2,0-0.4-0.1-0.6-0.4
			c-0.7-1-2.1-1.5-4.3-1.5h-0.4c-0.4,0-0.6,0.1-0.8,0.2c-0.2,0.1-0.3,0.4-0.3,0.8v5.4c0,0.9,0.3,1.6,0.7,2c0.5,0.4,1.4,0.6,2.7,0.6
			c3.6,0,6.1-1.2,7.6-3.5c0.1-0.2,0.3-0.2,0.6-0.2c0.3,0.1,0.5,0.3,0.5,0.5c0,1-0.3,2-1,3.2c-0.7,1.2-1.5,1.7-2.4,1.7
			c-2.4-0.1-4.5-0.2-6.3-0.2C35.5,344.9,32.4,345,31,345.1L31,345.1z"/>
		<path class="st1" d="M75.6,329.3c0,2.8-1.2,4.8-3.5,6.1c-2.3,1.2-5.4,1.6-9,1v4.7c0,1,0.3,1.7,0.9,2.1s1.5,0.6,2.7,0.8
			c0.1,0,0.1,0.1,0.1,0.3c0,0.2,0,0.4-0.1,0.6c0,0.2-0.1,0.3-0.2,0.3h-9.8c-0.1,0-0.2-0.1-0.2-0.3c-0.1-0.2-0.1-0.4-0.1-0.6
			c0-0.2,0-0.3,0.1-0.3c0.9-0.1,1.5-0.4,2-0.8c0.5-0.4,0.7-1.1,0.7-2.1v-14.4c0-1-0.2-1.7-0.7-2.2c-0.5-0.4-1.1-0.8-2-1
			c-0.1,0-0.2-0.3-0.1-0.6c0-0.4,0.1-0.5,0.3-0.5c1,0.1,2.3,0.2,3.7,0.2c0.9,0,2,0,3.3-0.1c1.3-0.1,2.3-0.1,2.7-0.1
			c2.7,0,4.9,0.6,6.6,1.7C74.8,325.1,75.6,326.9,75.6,329.3L75.6,329.3z M63.6,324.6c-0.4,0.4-0.6,1.1-0.6,2v8.2
			c2.8,0.4,4.9,0.2,6.3-0.6c1.4-0.8,2.1-2.2,2.1-4.2c0-1.9-0.5-3.3-1.6-4.4c-1.1-1.1-2.5-1.6-4.2-1.6
			C64.6,324.1,64,324.2,63.6,324.6z"/>
		<path class="st1" d="M94.3,345.6c-1.2,0-2.4-0.2-3.5-0.5c-1.1-0.3-2.1-0.8-3.1-1.5c-0.9-0.7-1.7-1.6-2.3-2.8
			c-0.6-1.2-0.9-2.6-0.9-4.2v-10.1c0-1-0.2-1.7-0.7-2.1c-0.4-0.4-1.1-0.7-2-0.8c-0.1,0-0.1-0.1-0.1-0.3c0-0.2,0-0.4,0.1-0.6
			c0.1-0.2,0.1-0.3,0.2-0.3h8.8c0.1,0,0.2,0.1,0.2,0.3c0.1,0.2,0.1,0.4,0.1,0.6c0,0.2,0,0.3-0.1,0.3c-0.8,0.1-1.4,0.4-1.9,0.8
			c-0.5,0.4-0.7,1.1-0.7,2.1v10.3c0,2.2,0.6,3.8,1.7,4.9c1.1,1.1,2.6,1.7,4.4,1.7c1.8,0,3.4-0.6,4.5-1.7c1.2-1.1,1.8-2.8,1.8-4.9
			v-10.3c0-1-0.2-1.7-0.7-2.1c-0.5-0.4-1.2-0.7-2.1-0.8c-0.1,0-0.1-0.1-0.1-0.3c0-0.2,0-0.4,0.1-0.6s0.1-0.3,0.2-0.3h7.3
			c0.1,0,0.1,0.1,0.2,0.3s0.1,0.4,0.1,0.6c0,0.2,0,0.3-0.1,0.3c-0.8,0.1-1.4,0.4-1.9,0.8c-0.5,0.4-0.7,1.1-0.7,2.1v10.1
			c0,2.9-0.8,5.1-2.5,6.7C99.1,344.8,97,345.5,94.3,345.6L94.3,345.6z M94.1,314.3c0.2-0.3,0.5-0.3,1.1,0c0.5,0.3,1,0.7,1.3,1.2
			c0.3,0.5,0.4,0.8,0.2,1l-4.2,3.2c-0.2,0.2-0.5,0.1-0.9-0.3c-0.4-0.4-0.5-0.6-0.3-0.9L94.1,314.3z"/>
		<path class="st1" d="M125.8,332.7c1.6,0,3,0.5,4.2,1.6c1.2,1.1,1.8,2.4,1.8,4.2c0,2-0.8,3.6-2.5,4.8c-1.7,1.2-3.8,1.8-6.5,1.8
			c-0.5,0-1.3,0-2.6-0.1c-1.3-0.1-2.3-0.1-3.2-0.1c-2.2,0-3.9,0.1-5.1,0.2c-0.1,0-0.2-0.2-0.3-0.5c-0.1-0.4,0-0.6,0.1-0.6
			c0.6-0.2,1.1-0.3,1.4-0.4c0.3-0.1,0.6-0.2,1-0.5c0.4-0.2,0.7-0.5,0.8-0.9c0.1-0.4,0.2-0.8,0.2-1.4v-14.4c0-0.9-0.2-1.6-0.7-2
			c-0.5-0.4-1.1-0.7-2-0.9c-0.1,0-0.2-0.2-0.1-0.6c0-0.4,0.1-0.5,0.3-0.5c1.1,0.1,2.4,0.2,3.9,0.2c0.9,0,2.1,0,3.4-0.1
			c1.3-0.1,2.1-0.1,2.5-0.1c2.2,0,4,0.5,5.4,1.4c1.4,0.9,2.2,2.2,2.2,3.9c0,1.3-0.4,2.4-1.1,3.2c-0.8,0.9-1.8,1.4-2.9,1.7
			L125.8,332.7L125.8,332.7z M122.5,343.4c1.6,0,2.8-0.3,3.7-0.9c0.9-0.6,1.3-1.7,1.3-3.3c0-1.7-0.5-3.1-1.5-4
			c-1-0.9-2.3-1.4-3.9-1.4h-3.3v7c0,0.9,0.3,1.6,0.9,2C120.3,343.2,121.2,343.4,122.5,343.4L122.5,343.4z M119.4,324.5
			c-0.3,0.3-0.5,1-0.5,1.9v5.8h3.3c2.4,0,3.7-1.2,3.7-3.7c0-1.5-0.4-2.6-1.3-3.3c-0.9-0.8-2-1.1-3.4-1.1
			C120.3,324,119.7,324.2,119.4,324.5z"/>
		<path class="st1" d="M138,345.1c-0.1,0-0.2-0.2-0.3-0.5c-0.1-0.4,0-0.6,0.1-0.6c0.6-0.2,1.1-0.3,1.4-0.4c0.3-0.1,0.6-0.2,1-0.5
			c0.4-0.2,0.7-0.5,0.8-0.9c0.1-0.4,0.2-0.8,0.2-1.4v-14.4c0-0.7-0.1-1.3-0.4-1.7c-0.3-0.4-0.6-0.7-0.9-0.9
			c-0.3-0.1-0.8-0.3-1.3-0.3c-0.1,0-0.1-0.1-0.1-0.3s0-0.4,0.1-0.6c0.1-0.2,0.1-0.3,0.2-0.3h8.9c0.1,0,0.1,0.1,0.2,0.3
			c0.1,0.2,0.1,0.4,0.1,0.6c0,0.2,0,0.3-0.1,0.3c-0.8,0.1-1.5,0.4-1.9,0.8c-0.5,0.4-0.7,1.1-0.7,2.1v14.4c0,0.9,0.3,1.6,0.7,2
			c0.5,0.4,1.4,0.6,2.7,0.6c3.6,0,6.1-1.2,7.6-3.5c0.1-0.2,0.3-0.2,0.6-0.2c0.3,0.1,0.5,0.3,0.5,0.5c0,1-0.3,2-1,3.2
			c-0.7,1.2-1.5,1.7-2.4,1.7c-2.4-0.1-4.5-0.2-6.3-0.2C142.5,344.9,139.4,345,138,345.1L138,345.1z"/>
		<path class="st1" d="M163.1,345.1c-0.1,0-0.2-0.1-0.2-0.3c-0.1-0.2-0.1-0.4-0.1-0.6c0-0.2,0-0.3,0.1-0.3c0.9-0.1,1.5-0.4,2-0.8
			c0.5-0.4,0.7-1.1,0.7-2.1v-14.6c0-1-0.2-1.7-0.7-2.1c-0.5-0.4-1.1-0.7-2-0.8c-0.1,0-0.1-0.1-0.1-0.3c0-0.2,0-0.4,0.1-0.6
			c0.1-0.2,0.1-0.3,0.2-0.3h8.9c0.1,0,0.2,0.1,0.2,0.3c0.1,0.2,0.1,0.4,0.1,0.6c0,0.2,0,0.3-0.1,0.3c-0.8,0.1-1.5,0.4-2,0.8
			c-0.5,0.4-0.7,1.1-0.7,2.1V341c0,1,0.2,1.7,0.7,2.1c0.5,0.4,1.1,0.6,2,0.8c0.1,0,0.1,0.1,0.1,0.3s0,0.4-0.1,0.6
			c-0.1,0.2-0.1,0.3-0.2,0.3L163.1,345.1L163.1,345.1z"/>
		<path class="st1" d="M191.5,345.6c-1.2,0-2.3-0.1-3.4-0.4c-1.1-0.3-2.3-0.7-3.4-1.3c-1.1-0.6-2.1-1.3-3-2.2
			c-0.9-0.9-1.6-1.9-2.1-3.3c-0.5-1.3-0.8-2.7-0.8-4.3c0-1.5,0.2-2.9,0.7-4.3c0.5-1.4,1.2-2.7,2.1-3.9c0.9-1.2,2.3-2.2,3.9-2.9
			c1.7-0.7,3.6-1.1,5.7-1.1c1.2,0,2.4,0.1,3.5,0.3c1.1,0.2,1.9,0.5,2.5,0.9c0.6,0.3,0.8,0.7,0.7,1.1l-0.4,1.3
			c-0.2,0.7-0.4,1.1-0.7,1.2c-0.3,0.2-0.6,0.1-1-0.1c-0.4-0.2-0.9-0.5-1.4-0.8c-0.5-0.3-1.2-0.6-2.1-0.9c-0.9-0.3-1.9-0.4-2.9-0.4
			c-2.3,0-4,0.7-5.1,2c-1.2,1.4-1.8,3.2-1.8,5.6c0,1.8,0.3,3.3,0.9,4.7c0.6,1.4,1.4,2.4,2.4,3.2c1,0.8,2.1,1.4,3.2,1.8
			c1.1,0.4,2.3,0.6,3.5,0.6c0.5,0,1.3-0.1,2.4-0.4c1.1-0.3,2.1-0.6,2.8-1.1c0.1-0.1,0.3,0,0.5,0.3c0.2,0.3,0.3,0.5,0.2,0.6
			c-0.6,0.9-1.7,1.8-3.3,2.6c-1.6,0.8-2.7,1.2-3.4,1.2L191.5,345.6z"/>
		<path class="st1" d="M227.9,343.9c0.2,0,0.3,0.2,0.3,0.6c0,0.3-0.1,0.5-0.3,0.5h-8.5c-0.2,0-0.3-0.2-0.3-0.5
			c0-0.3,0.1-0.5,0.2-0.6c0.4-0.1,0.7-0.1,0.9-0.2c0.2-0.1,0.4-0.3,0.6-0.5c0.2-0.2,0.3-0.6,0.2-1c0-0.4-0.2-1-0.5-1.7l-0.3-0.8
			c-0.1-0.4-0.3-0.6-0.6-0.7c-0.3-0.1-0.7-0.1-1.2-0.1h-6.6c-0.5,0-0.9,0-1.2,0.1c-0.3,0.1-0.5,0.3-0.6,0.7l-0.3,0.8
			c-0.3,0.7-0.4,1.2-0.5,1.7c0,0.4,0.1,0.8,0.3,1c0.2,0.2,0.5,0.4,0.7,0.5c0.3,0.1,0.6,0.2,1.1,0.2c0.2,0,0.3,0.2,0.3,0.6
			c0,0.3-0.2,0.5-0.4,0.5h-7c-0.2,0-0.3-0.2-0.3-0.5c0-0.3,0-0.5,0.3-0.6c0.7-0.1,1.3-0.4,1.8-0.8c0.4-0.4,0.9-1.3,1.5-2.6l5.5-12.5
			c1.1-2.5,1.6-4.3,1.6-5.4c0-0.1,0.4-0.3,1.1-0.4c0.8-0.2,1.2-0.2,1.2-0.1l7.9,18.4c0.6,1.3,1.1,2.2,1.5,2.6
			C226.7,343.5,227.2,343.8,227.9,343.9L227.9,343.9z M218,337.1c0.2,0,0.3,0,0.4,0c0.1,0,0.2-0.1,0.3-0.1c0.1-0.1,0.1-0.2,0-0.3
			l-3.8-9l-3.8,9c-0.1,0.2,0,0.3,0.1,0.4c0.2,0.1,0.4,0.1,0.6,0.1L218,337.1L218,337.1z"/>
		<path class="st1" d="M243.6,345.1c-0.1,0-0.2-0.2-0.3-0.5c-0.1-0.4,0-0.6,0.1-0.6c0.6-0.2,1.1-0.3,1.4-0.4c0.3-0.1,0.6-0.2,1-0.5
			c0.4-0.2,0.7-0.5,0.8-0.9c0.1-0.4,0.2-0.8,0.2-1.4v-14.4c0-0.9-0.2-1.6-0.7-2c-0.5-0.4-1.1-0.7-2-0.9c-0.1,0-0.2-0.2-0.1-0.6
			c0-0.4,0.1-0.5,0.3-0.5c1.1,0.1,2.4,0.2,4,0.2c0.9,0,2.1,0,3.5-0.1c1.5-0.1,2.4-0.1,2.9-0.1c3.8,0,6.8,1,8.9,3s3.2,4.6,3.2,7.8
			c0,2.1-0.4,4.1-1.3,5.8c-0.9,1.8-2.3,3.2-4.2,4.4c-1.9,1.1-4.1,1.7-6.6,1.7c-0.5,0-1.3,0-2.7-0.1c-1.3-0.1-2.4-0.1-3.3-0.1
			C246.5,344.9,244.8,345,243.6,345.1L243.6,345.1z M255,343.4c5.3,0,7.9-2.8,7.9-8.3c0-3.2-0.8-5.8-2.5-7.9
			c-1.6-2.1-3.9-3.1-6.7-3.1c-1.1,0-1.9,0.2-2.4,0.5s-0.7,1-0.7,1.8v14.4c0,0.9,0.3,1.5,1,2C252.3,343.1,253.4,343.4,255,343.4
			L255,343.4z"/>
		<path class="st1" d="M285.4,345.6c-3.4,0-6.1-1.1-8.3-3.3c-2.2-2.2-3.3-5-3.3-8.4c0-3.3,1.1-6.2,3.3-8.5c2.2-2.3,5-3.5,8.5-3.5
			c3.4,0,6.2,1.1,8.4,3.3c2.2,2.2,3.3,5,3.3,8.3s-1.1,6.2-3.3,8.5C291.7,344.4,288.9,345.6,285.4,345.6L285.4,345.6z M286.6,343.4
			c0.8,0,1.5-0.1,2.3-0.4s1.4-0.7,2.1-1.3c0.7-0.6,1.2-1.4,1.7-2.5c0.4-1.1,0.6-2.4,0.6-3.8c0-3.2-0.9-5.9-2.7-8
			c-1.8-2.2-3.9-3.3-6.3-3.3c-0.8,0-1.5,0.1-2.2,0.4c-0.7,0.3-1.4,0.7-2.1,1.3c-0.7,0.6-1.2,1.4-1.6,2.5c-0.4,1.1-0.6,2.3-0.6,3.8
			c0,3.2,0.9,5.9,2.7,8C282.2,342.3,284.3,343.4,286.6,343.4L286.6,343.4z"/>
		<path class="st1" d="M332.4,343.9c0.1,0,0.1,0.1,0.1,0.3c0,0.2,0,0.4-0.1,0.6c-0.1,0.2-0.1,0.3-0.2,0.3h-8.4
			c-0.1,0-0.1-0.1-0.2-0.3c-0.1-0.2-0.1-0.4-0.1-0.5s0-0.3,0.1-0.3c1.6-0.3,2.4-1.2,2.3-2.9l-0.6-10.9l-5.2,10.7
			c-0.7,1.5-1.2,2.6-1.3,3.3c-0.1,0.4-0.5,0.6-1.2,0.6c-0.5,0-0.8-0.2-1-0.6L309,330l-0.5,11c-0.1,1.8,0.7,2.7,2.3,2.9
			c0.1,0,0.1,0.1,0.1,0.3c0,0.2,0,0.4-0.1,0.6c-0.1,0.2-0.1,0.3-0.2,0.3H304c-0.1,0-0.2-0.1-0.2-0.3c-0.1-0.2-0.1-0.4-0.1-0.6
			c0-0.2,0-0.3,0.1-0.3c0.8-0.1,1.5-0.3,1.9-0.7c0.5-0.4,0.7-1.1,0.8-2.2l1-18.6c0-0.3,0.2-0.4,0.7-0.4c0.4,0,0.7,0.1,0.9,0.4
			l9.4,17.5l8.7-17.5c0.1-0.3,0.4-0.4,0.9-0.4c0.5,0,0.7,0.1,0.7,0.4l1,18.6c0.1,1,0.3,1.8,0.8,2.2
			C331,343.6,331.6,343.9,332.4,343.9L332.4,343.9z"/>
		<path class="st1" d="M339.1,345.1c-0.1,0-0.2-0.1-0.2-0.3c-0.1-0.2-0.1-0.4-0.1-0.6c0-0.2,0-0.3,0.1-0.3c0.9-0.1,1.5-0.4,2-0.8
			c0.5-0.4,0.7-1.1,0.7-2.1v-14.6c0-1-0.2-1.7-0.7-2.1c-0.5-0.4-1.1-0.7-2-0.8c-0.1,0-0.1-0.1-0.1-0.3c0-0.2,0-0.4,0.1-0.6
			c0.1-0.2,0.1-0.3,0.2-0.3h8.9c0.1,0,0.2,0.1,0.2,0.3c0.1,0.2,0.1,0.4,0.1,0.6c0,0.2,0,0.3-0.1,0.3c-0.8,0.1-1.5,0.4-2,0.8
			c-0.5,0.4-0.7,1.1-0.7,2.1V341c0,1,0.2,1.7,0.7,2.1c0.5,0.4,1.1,0.6,2,0.8c0.1,0,0.1,0.1,0.1,0.3s0,0.4-0.1,0.6
			c-0.1,0.2-0.1,0.3-0.2,0.3L339.1,345.1L339.1,345.1z"/>
		<path class="st1" d="M375.8,345.4c-0.4,0-0.8-0.2-1.2-0.6l-15.4-16.1v12.3c0,0.5,0.1,1,0.2,1.3c0.1,0.3,0.4,0.6,0.7,0.9
			c0.3,0.2,0.6,0.4,0.9,0.5c0.3,0.1,0.7,0.2,1.3,0.4c0.1,0,0.2,0.2,0.1,0.6c0,0.3-0.2,0.5-0.3,0.5h-7.7c-0.1,0-0.2-0.2-0.3-0.5
			c-0.1-0.3,0-0.5,0.1-0.6c1-0.3,1.7-0.6,1.9-0.9c0.5-0.5,0.7-1.2,0.7-2.1v-12.5c0-1.9-0.4-3.4-1.2-4.5c-0.1-0.1-0.1-0.2-0.2-0.3
			c-0.1-0.1-0.1-0.2-0.2-0.2c-0.1-0.1-0.1-0.1-0.1-0.2c0,0,0-0.1,0-0.1c0-0.2,0.1-0.3,0.2-0.5c0.1-0.2,0.3-0.2,0.5-0.2h2.4
			c0.3,0,0.6,0.1,0.8,0.3l15.1,15.9v-12.2c0-0.5-0.1-1-0.2-1.3c-0.1-0.3-0.4-0.6-0.8-0.9c-0.4-0.2-0.7-0.4-0.9-0.4
			c-0.2-0.1-0.6-0.2-1.2-0.3c-0.1,0-0.2-0.2-0.1-0.6c0-0.3,0.2-0.5,0.3-0.5h7.7c0.1,0,0.2,0.2,0.3,0.5c0.1,0.3,0,0.5-0.1,0.6
			c-0.5,0.1-0.9,0.3-1.1,0.3c-0.2,0.1-0.4,0.2-0.8,0.4c-0.3,0.2-0.5,0.5-0.6,0.9c-0.1,0.3-0.2,0.8-0.2,1.3v12.6
			c0,2.8,0.1,4.7,0.4,5.7c0.1,0.2,0,0.4-0.2,0.5S376.2,345.3,375.8,345.4L375.8,345.4z"/>
		<path class="st1" d="M385.6,345.1c-0.1,0-0.2-0.1-0.2-0.3c-0.1-0.2-0.1-0.4-0.1-0.6c0-0.2,0-0.3,0.1-0.3c0.9-0.1,1.5-0.4,2-0.8
			c0.5-0.4,0.7-1.1,0.7-2.1v-14.6c0-1-0.2-1.7-0.7-2.1c-0.5-0.4-1.1-0.7-2-0.8c-0.1,0-0.1-0.1-0.1-0.3c0-0.2,0-0.4,0.1-0.6
			s0.1-0.3,0.2-0.3h8.9c0.1,0,0.2,0.1,0.2,0.3s0.1,0.4,0.1,0.6c0,0.2,0,0.3-0.1,0.3c-0.8,0.1-1.5,0.4-2,0.8
			c-0.5,0.4-0.7,1.1-0.7,2.1V341c0,1,0.2,1.7,0.7,2.1c0.5,0.4,1.1,0.6,2,0.8c0.1,0,0.1,0.1,0.1,0.3s0,0.4-0.1,0.6
			c-0.1,0.2-0.1,0.3-0.2,0.3L385.6,345.1L385.6,345.1z"/>
		<path class="st1" d="M414.1,345.6c-1.2,0-2.3-0.1-3.4-0.4c-1.1-0.3-2.3-0.7-3.4-1.3c-1.1-0.6-2.1-1.3-3-2.2
			c-0.9-0.9-1.6-1.9-2.1-3.3c-0.5-1.3-0.8-2.7-0.8-4.3c0-1.5,0.2-2.9,0.7-4.3c0.5-1.4,1.2-2.7,2.1-3.9c0.9-1.2,2.3-2.2,3.9-2.9
			c1.7-0.7,3.6-1.1,5.7-1.1c1.2,0,2.4,0.1,3.5,0.3c1.1,0.2,1.9,0.5,2.5,0.9c0.6,0.3,0.8,0.7,0.7,1.1l-0.4,1.3
			c-0.2,0.7-0.4,1.1-0.7,1.2c-0.3,0.2-0.6,0.1-1-0.1c-0.4-0.2-0.9-0.5-1.4-0.8c-0.5-0.3-1.2-0.6-2.1-0.9c-0.9-0.3-1.9-0.4-2.9-0.4
			c-2.3,0-4,0.7-5.1,2c-1.2,1.4-1.8,3.2-1.8,5.6c0,1.8,0.3,3.3,0.9,4.7c0.6,1.4,1.4,2.4,2.4,3.2c1,0.8,2.1,1.4,3.2,1.8
			c1.1,0.4,2.3,0.6,3.5,0.6c0.5,0,1.3-0.1,2.4-0.4c1.1-0.3,2.1-0.6,2.8-1.1c0.1-0.1,0.3,0,0.5,0.3c0.2,0.3,0.3,0.5,0.2,0.6
			c-0.6,0.9-1.7,1.8-3.3,2.6c-1.6,0.8-2.7,1.2-3.4,1.2L414.1,345.6z"/>
		<path class="st1" d="M450.5,343.9c0.2,0,0.3,0.2,0.3,0.6c0,0.3-0.1,0.5-0.3,0.5h-8.5c-0.2,0-0.3-0.2-0.3-0.5
			c0-0.3,0.1-0.5,0.2-0.6c0.4-0.1,0.7-0.1,0.9-0.2c0.2-0.1,0.4-0.3,0.6-0.5c0.2-0.2,0.3-0.6,0.2-1c0-0.4-0.2-1-0.5-1.7l-0.3-0.8
			c-0.1-0.4-0.3-0.6-0.6-0.7c-0.3-0.1-0.7-0.1-1.2-0.1h-6.6c-0.5,0-0.9,0-1.2,0.1c-0.3,0.1-0.5,0.3-0.6,0.7l-0.3,0.8
			c-0.3,0.7-0.4,1.2-0.5,1.7c0,0.4,0.1,0.8,0.3,1c0.2,0.2,0.5,0.4,0.7,0.5c0.3,0.1,0.6,0.2,1.1,0.2c0.2,0,0.3,0.2,0.3,0.6
			c0,0.3-0.2,0.5-0.4,0.5h-7c-0.2,0-0.3-0.2-0.3-0.5c0-0.3,0-0.5,0.3-0.6c0.7-0.1,1.3-0.4,1.8-0.8s0.9-1.3,1.5-2.6l5.5-12.5
			c1.1-2.5,1.6-4.3,1.6-5.4c0-0.1,0.4-0.3,1.1-0.4c0.8-0.2,1.2-0.2,1.2-0.1l7.9,18.4c0.6,1.3,1.1,2.2,1.5,2.6
			C449.2,343.5,449.8,343.8,450.5,343.9L450.5,343.9z M440.6,337.1c0.2,0,0.3,0,0.4,0c0.1,0,0.2-0.1,0.3-0.1c0.1-0.1,0.1-0.2,0-0.3
			l-3.8-9l-3.8,9c-0.1,0.2,0,0.3,0.1,0.4s0.4,0.1,0.6,0.1L440.6,337.1L440.6,337.1z"/>
		<path class="st1" d="M477.8,345.4c-0.4,0-0.8-0.2-1.2-0.6l-15.4-16.1v12.3c0,0.5,0.1,1,0.2,1.3c0.1,0.3,0.4,0.6,0.7,0.9
			c0.3,0.2,0.6,0.4,0.9,0.5c0.3,0.1,0.7,0.2,1.3,0.4c0.1,0,0.2,0.2,0.1,0.6c0,0.3-0.2,0.5-0.3,0.5h-7.7c-0.1,0-0.2-0.2-0.3-0.5
			c-0.1-0.3,0-0.5,0.1-0.6c1-0.3,1.7-0.6,1.9-0.9c0.5-0.5,0.7-1.2,0.7-2.1v-12.5c0-1.9-0.4-3.4-1.2-4.5c-0.1-0.1-0.1-0.2-0.2-0.3
			c-0.1-0.1-0.1-0.2-0.2-0.2c-0.1-0.1-0.1-0.1-0.1-0.2c0,0,0-0.1,0-0.1c0-0.2,0.1-0.3,0.2-0.5c0.1-0.2,0.3-0.2,0.5-0.2h2.4
			c0.3,0,0.6,0.1,0.8,0.3l15.1,15.9v-12.2c0-0.5-0.1-1-0.2-1.3c-0.1-0.3-0.4-0.6-0.8-0.9c-0.4-0.2-0.7-0.4-0.9-0.4
			c-0.2-0.1-0.6-0.2-1.2-0.3c-0.1,0-0.2-0.2-0.1-0.6c0-0.3,0.2-0.5,0.3-0.5h7.7c0.1,0,0.2,0.2,0.3,0.5c0.1,0.3,0,0.5-0.1,0.6
			c-0.5,0.1-0.9,0.3-1.1,0.3c-0.2,0.1-0.4,0.2-0.8,0.4c-0.3,0.2-0.5,0.5-0.6,0.9c-0.1,0.3-0.2,0.8-0.2,1.3v12.6
			c0,2.8,0.1,4.7,0.4,5.7c0.1,0.2,0,0.4-0.2,0.5S478.2,345.3,477.8,345.4L477.8,345.4z"/>
		<path class="st1" d="M510.1,343.9c0.2,0,0.3,0.2,0.3,0.6c0,0.3-0.1,0.5-0.3,0.5h-8.5c-0.2,0-0.3-0.2-0.3-0.5
			c0-0.3,0.1-0.5,0.2-0.6c0.4-0.1,0.7-0.1,0.9-0.2c0.2-0.1,0.4-0.3,0.6-0.5c0.2-0.2,0.3-0.6,0.2-1c0-0.4-0.2-1-0.5-1.7l-0.3-0.8
			c-0.1-0.4-0.3-0.6-0.6-0.7c-0.3-0.1-0.7-0.1-1.2-0.1h-6.6c-0.5,0-0.9,0-1.2,0.1c-0.3,0.1-0.5,0.3-0.6,0.7l-0.3,0.8
			c-0.3,0.7-0.4,1.2-0.5,1.7c0,0.4,0.1,0.8,0.3,1c0.2,0.2,0.5,0.4,0.7,0.5c0.3,0.1,0.6,0.2,1.1,0.2c0.2,0,0.3,0.2,0.3,0.6
			c0,0.3-0.2,0.5-0.4,0.5h-7c-0.2,0-0.3-0.2-0.3-0.5c0-0.3,0-0.5,0.3-0.6c0.7-0.1,1.3-0.4,1.8-0.8s0.9-1.3,1.5-2.6L495,328
			c1.1-2.5,1.6-4.3,1.6-5.4c0-0.1,0.4-0.3,1.1-0.4c0.8-0.2,1.2-0.2,1.2-0.1l7.9,18.4c0.6,1.3,1.1,2.2,1.5,2.6
			C508.8,343.5,509.4,343.8,510.1,343.9L510.1,343.9z M500.2,337.1c0.2,0,0.3,0,0.4,0c0.1,0,0.2-0.1,0.3-0.1c0.1-0.1,0.1-0.2,0-0.3
			l-3.8-9l-3.8,9c-0.1,0.2,0,0.3,0.1,0.4c0.2,0.1,0.4,0.1,0.6,0.1L500.2,337.1L500.2,337.1z"/>
		<path class="st2" d="M153.8,448.5c-0.1,0-0.2-0.1-0.3-0.4c-0.1-0.2-0.1-0.5-0.1-0.7s0.1-0.3,0.2-0.4c1.6-0.2,2.9-0.6,3.6-1
			c0.8-0.4,1.2-1.2,1.2-2.2v-20.6c0-0.5-0.1-0.9-0.3-1.1c-0.2-0.2-0.6-0.3-1.1-0.3h-1.1c-3.8,0-6.2,0.9-7,2.7
			c-0.2,0.5-0.6,0.7-1.2,0.5c-0.4-0.1-0.6-0.3-0.5-0.6c0.5-1.9,0.8-3.6,1-5c0-0.4,0.1-0.6,0.3-0.7c0.2-0.1,0.5-0.1,1,0
			c1.8,0.2,5.6,0.3,11.6,0.3c6.6,0,10.9-0.1,12.7-0.3c0.5-0.1,0.8-0.1,1,0c0.2,0.1,0.3,0.3,0.2,0.7c-0.6,2-1.1,3.7-1.3,5
			c-0.1,0.4-0.3,0.5-0.7,0.5c-0.4,0-0.7-0.2-0.7-0.5c-0.4-1.8-2.4-2.7-5.8-2.7h-1.3c-1.1,0-1.6,0.5-1.6,1.4v20.6
			c0,1.1,0.4,1.8,1.2,2.2c0.8,0.4,2,0.8,3.6,1c0.1,0.1,0.2,0.2,0.2,0.4c0,0.2,0,0.4-0.1,0.7c-0.1,0.2-0.2,0.4-0.3,0.4L153.8,448.5
			L153.8,448.5z"/>
		<path class="st2" d="M210.2,447.6c0.2,0,0.2,0.2,0.2,0.5c0,0.4-0.1,0.6-0.2,0.6c-1,0.2-1.9,0.4-2.9,0.4c-1,0.1-2-0.2-3.1-0.7
			c-1.1-0.5-2-1.3-2.8-2.3l-6.4-8.2c-0.8-1.1-1.8-1.8-2.8-2.1c-1-0.3-2.4-0.5-4.1-0.5v8.1c0,1.3,0.4,2.2,1.1,2.7
			c0.8,0.5,1.9,0.8,3.5,1c0.1,0,0.1,0.1,0.1,0.4c0,0.2,0,0.5-0.1,0.7c-0.1,0.2-0.1,0.4-0.2,0.4H180c-0.1,0-0.2-0.1-0.3-0.4
			c-0.1-0.2-0.1-0.5-0.1-0.7c0-0.2,0.1-0.4,0.2-0.4c1.1-0.2,2-0.5,2.6-1.1c0.6-0.5,0.9-1.4,0.9-2.7v-18.6c0-1.3-0.3-2.2-0.9-2.8
			c-0.6-0.6-1.4-1-2.6-1.3c-0.2-0.1-0.2-0.3-0.1-0.8c0.1-0.5,0.2-0.7,0.4-0.7c1.3,0.2,2.9,0.2,4.8,0.3c1.1,0,2.6,0,4.4-0.1
			c1.8-0.1,3-0.1,3.6-0.1c3.2,0,5.8,0.7,7.7,2c1.9,1.3,2.8,3.2,2.8,5.7c0,2.3-0.7,4-2.2,5.3c-1.5,1.3-3.2,2-5.2,2.1v0.2
			c0.8,0,1.6,0.2,2.3,0.6c0.7,0.4,1.5,1.2,2.4,2.3l6.2,7.8C207.9,446.8,209.1,447.5,210.2,447.6L210.2,447.6z M189.4,433.4
			c3.2,0,5.4-0.4,6.7-1.1c1.3-0.7,1.9-2.1,1.9-4.2c0-2.1-0.6-3.8-1.8-4.9s-2.8-1.7-4.7-1.7c-1.2,0-2,0.3-2.5,0.8s-0.7,1.4-0.7,2.6
			v8.6L189.4,433.4L189.4,433.4z"/>
		<path class="st2" d="M245,447.1c0.3,0.1,0.4,0.3,0.3,0.8c0,0.4-0.2,0.7-0.4,0.7h-11c-0.3,0-0.4-0.2-0.4-0.7c0-0.4,0.1-0.7,0.3-0.8
			c0.5-0.1,0.9-0.2,1.1-0.3c0.3-0.1,0.6-0.3,0.8-0.7c0.3-0.3,0.4-0.8,0.3-1.3c-0.1-0.6-0.3-1.3-0.6-2.2l-0.4-1
			c-0.2-0.5-0.4-0.8-0.8-0.9c-0.3-0.1-0.9-0.2-1.6-0.2h-8.5c-0.7,0-1.2,0.1-1.5,0.2c-0.3,0.1-0.6,0.4-0.8,0.9l-0.4,1
			c-0.4,0.9-0.6,1.6-0.6,2.1c0,0.6,0.1,1,0.4,1.3s0.6,0.5,0.9,0.6c0.3,0.1,0.8,0.2,1.4,0.3c0.3,0.1,0.4,0.3,0.3,0.8
			c0,0.4-0.2,0.7-0.5,0.7h-9c-0.2,0-0.4-0.2-0.4-0.7c0-0.4,0.1-0.7,0.3-0.8c1-0.2,1.7-0.5,2.3-1.1c0.6-0.6,1.2-1.7,1.9-3.3l7.1-16.2
			c1.4-3.2,2.1-5.5,2.1-7c0-0.1,0.5-0.3,1.5-0.5c1-0.2,1.5-0.2,1.6-0.1l10.2,23.7c0.7,1.7,1.4,2.8,2,3.4
			C243.4,446.6,244.1,447,245,447.1L245,447.1z M232.3,438.3c0.2,0,0.4,0,0.6,0c0.2,0,0.3-0.1,0.4-0.2c0.1-0.1,0.1-0.2,0-0.4
			l-4.9-11.7l-4.9,11.7c-0.1,0.2-0.1,0.4,0.1,0.5c0.2,0.1,0.5,0.1,0.8,0.1L232.3,438.3L232.3,438.3z"/>
		<path class="st2" d="M267.8,432.6c2.1,0,3.8,0.7,5.4,2.1c1.5,1.4,2.3,3.2,2.3,5.4c0,2.6-1.1,4.6-3.2,6.2s-4.9,2.3-8.5,2.3
			c-0.6,0-1.7,0-3.3-0.1c-1.6-0.1-3-0.1-4.1-0.1c-2.8,0-5,0.1-6.5,0.2c-0.2,0-0.3-0.2-0.4-0.7c-0.1-0.5,0-0.8,0.1-0.8
			c0.8-0.2,1.4-0.4,1.8-0.5c0.3-0.1,0.8-0.3,1.3-0.6c0.5-0.3,0.9-0.7,1-1.1c0.2-0.5,0.3-1.1,0.3-1.8v-18.5c0-1.2-0.3-2.1-0.9-2.6
			c-0.6-0.5-1.5-1-2.6-1.2c-0.2,0-0.2-0.3-0.1-0.7c0.1-0.5,0.2-0.7,0.4-0.7c1.4,0.2,3,0.2,5,0.3c1.2,0,2.7,0,4.4-0.1
			c1.7-0.1,2.8-0.1,3.2-0.1c2.8,0,5.2,0.6,7,1.8c1.9,1.2,2.8,2.9,2.8,5.1c0,1.6-0.5,3-1.5,4.2c-1,1.1-2.3,1.8-3.8,2.1L267.8,432.6
			L267.8,432.6z M263.6,446.4c2,0,3.6-0.4,4.7-1.2c1.1-0.8,1.7-2.2,1.7-4.3c0-2.2-0.7-4-1.9-5.2c-1.3-1.2-3-1.8-5-1.8h-4.3v9
			c0,1.2,0.4,2.1,1.1,2.6C260.7,446.2,261.9,446.4,263.6,446.4L263.6,446.4z M259.5,422.1c-0.4,0.4-0.7,1.2-0.7,2.4v7.4h4.3
			c3.2,0,4.7-1.6,4.8-4.7c0-1.9-0.6-3.3-1.7-4.3c-1.1-1-2.6-1.5-4.4-1.5C260.7,421.4,259.9,421.6,259.5,422.1z"/>
		<path class="st2" d="M311.7,447.1c0.3,0.1,0.4,0.3,0.3,0.8c0,0.4-0.2,0.7-0.4,0.7h-11c-0.3,0-0.4-0.2-0.4-0.7
			c0-0.4,0.1-0.7,0.3-0.8c0.5-0.1,0.9-0.2,1.1-0.3c0.3-0.1,0.6-0.3,0.8-0.7c0.3-0.3,0.4-0.8,0.3-1.3c-0.1-0.6-0.3-1.3-0.6-2.2
			l-0.4-1c-0.2-0.5-0.4-0.8-0.8-0.9c-0.3-0.1-0.9-0.2-1.6-0.2h-8.5c-0.7,0-1.2,0.1-1.5,0.2c-0.3,0.1-0.6,0.4-0.8,0.9l-0.4,1
			c-0.4,0.9-0.6,1.6-0.6,2.1c0,0.6,0.1,1,0.4,1.3c0.3,0.3,0.6,0.5,0.9,0.6c0.3,0.1,0.8,0.2,1.4,0.3c0.3,0.1,0.4,0.3,0.3,0.8
			c0,0.4-0.2,0.7-0.5,0.7h-9c-0.2,0-0.4-0.2-0.4-0.7c0-0.4,0.1-0.7,0.3-0.8c1-0.2,1.7-0.5,2.3-1.1c0.6-0.6,1.2-1.7,1.9-3.3l7.1-16.2
			c1.4-3.2,2.1-5.5,2.1-7c0-0.1,0.5-0.3,1.5-0.5c1-0.2,1.5-0.2,1.6-0.1l10.2,23.7c0.7,1.7,1.4,2.8,2,3.4
			C310.1,446.6,310.8,447,311.7,447.1L311.7,447.1z M299,438.3c0.2,0,0.4,0,0.6,0c0.2,0,0.3-0.1,0.4-0.2c0.1-0.1,0.1-0.2,0-0.4
			l-4.9-11.7l-4.9,11.7c-0.1,0.2-0.1,0.4,0.1,0.5c0.2,0.1,0.5,0.1,0.8,0.1L299,438.3L299,438.3z"/>
		<path class="st2" d="M316.8,457.4c-0.2,0-0.3-0.1-0.5-0.4c-0.2-0.2-0.2-0.5-0.3-0.7c0-0.2,0-0.3,0.1-0.4c1.1-0.1,2-0.8,2.7-2
			c0.8-1.2,1.1-3,1.1-5.3v-24.4c0-1.3-0.3-2.2-0.9-2.7s-1.5-0.8-2.5-1c-0.1,0-0.2-0.1-0.2-0.3c0-0.2,0-0.4,0.1-0.7
			c0.1-0.2,0.2-0.3,0.3-0.3h11.4c0.1,0,0.2,0.1,0.3,0.3c0.1,0.2,0.1,0.4,0.1,0.7c0,0.2-0.1,0.3-0.2,0.3c-1.1,0.1-1.9,0.5-2.5,1
			s-0.9,1.4-0.9,2.7v24.4c0,2-1,4-2.9,5.9C320.2,456.5,318.4,457.5,316.8,457.4L316.8,457.4z"/>
		<path class="st2" d="M349.4,449.2c-4.3,0-7.9-1.4-10.8-4.3c-2.8-2.9-4.3-6.5-4.3-10.8c0-4.3,1.4-7.9,4.2-10.9
			c2.8-3,6.5-4.5,10.9-4.5c4.4,0,8,1.4,10.8,4.3c2.8,2.9,4.3,6.4,4.3,10.8c0,4.3-1.4,8-4.2,11C357.6,447.7,353.9,449.2,349.4,449.2
			L349.4,449.2z M351,446.4c1,0,2-0.2,2.9-0.5s1.9-0.9,2.7-1.6c0.9-0.8,1.6-1.8,2.1-3.2c0.5-1.4,0.8-3,0.8-4.9
			c0-4.1-1.2-7.6-3.5-10.4c-2.4-2.8-5.1-4.2-8.2-4.2c-1,0-2,0.2-2.9,0.5c-0.9,0.3-1.8,0.9-2.7,1.7c-0.9,0.8-1.6,1.8-2.1,3.2
			c-0.5,1.4-0.8,3-0.8,4.9c0,4.1,1.2,7.6,3.5,10.4C345.3,445,348,446.4,351,446.4L351,446.4z"/>
	</g>
</g>
</svg>
